light-wide vv(-8.0-7.9)-(109.3-100.0)-10.0-0.0-(0.0-0.0).ufo
<glyph name="be-cy.sc" format="1">
  <advance width="1405.54943863"/>
  <outline>
    <contour>
      <point x="765.640501942" y="-144.0" type="move" name="mark0"/>
    </contour>
    <contour>
      <point x="513.992025483" y="762.740627747" type="curve"/>
      <point x="513.992025483" y="1203.82832941" type="line"/>
      <point x="1065.519132" y="1191.19864328" type="line"/>
      <point x="1131.10540062" y="968.300594006" type="line"/>
      <point x="1249.68405549" y="968.300594006" type="line"/>
      <point x="1227.9691673" y="1292.0" type="line"/>
      <point x="126.406090645" y="1292.0" type="line"/>
      <point x="126.406090645" y="1205.90704018" type="line"/>
      <point x="347.823811753" y="1187.35606482" type="line"/>
      <point x="347.823811753" y="99.8568275261" type="line"/>
      <point x="124.072680338" y="83.6206952286" type="line"/>
      <point x="124.072680338" y="0.0" type="line"/>
      <point x="437.098542095" y="0.0" type="line" smooth="yes"/>
      <point x="524.399698896" y="0.0"/>
      <point x="711.906630808" y="-14.0"/>
      <point x="762.189436747" y="-14.0" type="curve" smooth="yes"/>
      <point x="1090.34158186" y="-14.0"/>
      <point x="1320.04072336" y="130.236132298"/>
      <point x="1320.04072336" y="404.819338512" type="curve" smooth="yes"/>
      <point x="1320.04072336" y="643.685156937"/>
      <point x="1138.36457816" y="779.796098557"/>
      <point x="790.263961115" y="779.796098557" type="curve" smooth="yes"/>
      <point x="690.611535332" y="779.796098557"/>
      <point x="568.521859329" y="770.268363152"/>
    </contour>
    <contour>
      <point x="513.992025483" y="95.2271413994" type="curve"/>
      <point x="513.992025483" y="667.907040176" type="line"/>
      <point x="557.370012529" y="673.434775581"/>
      <point x="655.528613422" y="677.434775581"/>
      <point x="746.215401359" y="677.434775581" type="curve" smooth="yes"/>
      <point x="990.304819451" y="677.434775581"/>
      <point x="1140.60805456" y="590.772858601"/>
      <point x="1140.60805456" y="392.347073917" type="curve" smooth="yes"/>
      <point x="1140.60805456" y="190.329092121"/>
      <point x="991.166216221" y="79.2271413994"/>
      <point x="747.393012189" y="79.2271413994" type="curve" smooth="yes"/>
      <point x="617.354463082" y="79.2271413994"/>
      <point x="575.154086867" y="89.2271413994"/>
    </contour>
  </outline>
</glyph>
<glyph name="che-cy.sc" format="1">
  <advance width="1428.61911697"/>
  <outline>
    <contour>
      <point x="656.684412899" y="1273.18066149" type="move" name="top"/>
    </contour>
    <contour>
      <point x="719.885481883" y="648.0" type="move" name="center"/>
    </contour>
    <contour>
      <point x="1383.86057574" y="0.0" type="move" name="bottomright"/>
    </contour>
    <contour>
      <point x="964.416504036" y="570.379304771" type="curve"/>
      <point x="964.416504036" y="101.856827526" type="line"/>
      <point x="746.237212712" y="83.6206952286" type="line"/>
      <point x="746.237212712" y="0.0" type="line"/>
      <point x="1324.95832398" y="0.0" type="line"/>
      <point x="1324.95832398" y="83.4632736969" type="line"/>
      <point x="1130.51111709" y="101.856827526" type="line"/>
      <point x="1130.51111709" y="1187.35606482" type="line"/>
      <point x="1322.69851435" y="1205.90704018" type="line"/>
      <point x="1322.69851435" y="1292.0" type="line"/>
      <point x="767.635886836" y="1292.0" type="line"/>
      <point x="767.635886836" y="1205.90704018" type="line"/>
      <point x="964.416504036" y="1187.43477558" type="line"/>
      <point x="964.416504036" y="667.180661488" type="line"/>
      <point x="901.951441821" y="639.023239956"/>
      <point x="742.388166161" y="613.416793785"/>
      <point x="629.861100038" y="613.416793785" type="curve" smooth="yes"/>
      <point x="348.805120408" y="613.416793785"/>
      <point x="318.124594377" y="669.652926083"/>
      <point x="318.124594377" y="945.245123196" type="curve" smooth="yes"/>
      <point x="318.124594377" y="1185.59219711" type="line"/>
      <point x="511.7104045" y="1205.90704018" type="line"/>
      <point x="511.7104045" y="1292.0" type="line"/>
      <point x="19.9742359698" y="1292.0" type="line"/>
      <point x="19.9742359698" y="1205.90704018" type="line"/>
      <point x="152.103582001" y="1185.43477558" type="line"/>
      <point x="152.103582001" y="891.907040176" type="line" smooth="yes"/>
      <point x="152.103582001" y="630.647667923"/>
      <point x="228.083879295" y="496.379304771"/>
      <point x="543.464962713" y="496.379304771" type="curve" smooth="yes"/>
      <point x="673.187297759" y="496.379304771"/>
      <point x="859.03687019" y="522.064461708"/>
    </contour>
  </outline>
</glyph>
<glyph name="cheabkhasian-cy.sc" format="1">
  <advance width="1648.0496198"/>
  <outline>
    <contour>
      <point x="1511.54390318" y="46.0" type="curve"/>
      <point x="1520.73034306" y="304.991009102" type="line"/>
      <point x="1408.87932776" y="307.77811676" type="line"/>
      <point x="1367.04695493" y="168.139439735" type="line"/>
      <point x="1306.9889037" y="120.250381355"/>
      <point x="1200.40984767" y="74.8335875702"/>
      <point x="1008.73765515" y="74.8335875702" type="curve" smooth="yes"/>
      <point x="694.299735795" y="74.8335875702"/>
      <point x="524.909425519" y="327.638677025"/>
      <point x="525.939834995" y="619.907040176" type="curve"/>
      <point x="1540.97321771" y="617.907040176" type="line"/>
      <point x="1549.57085217" y="654.536726303"/>
      <point x="1551.31545706" y="716.629686127"/>
      <point x="1551.31545706" y="794.629686127" type="curve" smooth="yes"/>
      <point x="1551.90426247" y="1127.14843063"/>
      <point x="1339.88561666" y="1306.0"/>
      <point x="1024.92432595" y="1306.0" type="curve" smooth="yes"/>
      <point x="666.091654807" y="1306.0"/>
      <point x="391.387144742" y="1074.51874451"/>
      <point x="359.477218557" y="713.101950722" type="curve"/>
      <point x="207.598391264" y="715.101950722"/>
      <point x="158.007969389" y="768.629686127"/>
      <point x="158.007969389" y="816.0" type="curve" smooth="yes"/>
      <point x="158.007969389" y="847.527735405"/>
      <point x="185.69267902" y="916.94452919"/>
      <point x="200.848940344" y="933.101950722" type="curve"/>
      <point x="59.7975791719" y="955.416793785" type="line"/>
      <point x="35.7492806795" y="943.416793785"/>
      <point x="3.86116584701" y="868.046479912"/>
      <point x="3.86116584701" y="807.008990898" type="curve" smooth="yes"/>
      <point x="3.86116584701" y="679.008990898"/>
      <point x="164.904621664" y="618.694147835"/>
      <point x="355.104800649" y="616.851569366" type="curve"/>
      <point x="356.260600127" y="231.592197113"/>
      <point x="595.985766929" y="-20.0"/>
      <point x="971.277700224" y="-20.0" type="curve" smooth="yes"/>
      <point x="1266.41590899" y="-20.0"/>
      <point x="1393.34141832" y="44.0"/>
    </contour>
    <contour>
      <point x="1366.18555816" y="713.101950722" type="curve"/>
      <point x="523.900827395" y="713.101950722" type="line"/>
      <point x="537.312483826" y="1069.59219711"/>
      <point x="755.99881327" y="1205.27735405"/>
      <point x="981.347348223" y="1205.27735405" type="curve" smooth="yes"/>
      <point x="1254.49807745" y="1205.27735405"/>
      <point x="1375.8136021" y="988.805089455"/>
      <point x="1375.51919939" y="802.11094162" type="curve" smooth="yes"/>
      <point x="1375.37199804" y="771.370313873"/>
      <point x="1373.18578908" y="742.157421532"/>
    </contour>
  </outline>
</glyph>
<glyph name="chedescender-cy.sc" format="1">
  <advance width="1442.37696543"/>
  <outline>
    <contour>
      <point x="1377.42733887" y="101.856827526" type="curve"/>
      <point x="1132.77092672" y="101.856827526" type="line"/>
      <point x="1132.77092672" y="1187.35606482" type="line"/>
      <point x="1324.95832398" y="1205.90704018" type="line"/>
      <point x="1324.95832398" y="1292.0" type="line"/>
      <point x="769.969297144" y="1292.0" type="line"/>
      <point x="769.969297144" y="1205.90704018" type="line"/>
      <point x="966.676313667" y="1187.43477558" type="line"/>
      <point x="966.676313667" y="667.180661488" type="line"/>
      <point x="904.284852129" y="639.023239956"/>
      <point x="744.721576469" y="613.416793785"/>
      <point x="632.120909669" y="613.416793785" type="curve" smooth="yes"/>
      <point x="351.138530716" y="613.416793785"/>
      <point x="320.384404008" y="669.652926083"/>
      <point x="320.384404008" y="945.245123196" type="curve" smooth="yes"/>
      <point x="320.384404008" y="1185.59219711" type="line"/>
      <point x="513.970214131" y="1205.90704018" type="line"/>
      <point x="513.970214131" y="1292.0" type="line"/>
      <point x="22.2340456005" y="1292.0" type="line"/>
      <point x="22.2340456005" y="1205.90704018" type="line"/>
      <point x="154.363391631" y="1185.43477558" type="line"/>
      <point x="154.363391631" y="891.907040176" type="line" smooth="yes"/>
      <point x="154.363391631" y="630.647667923"/>
      <point x="230.417289602" y="496.379304771"/>
      <point x="545.724772343" y="496.379304771" type="curve" smooth="yes"/>
      <point x="675.520708067" y="496.379304771"/>
      <point x="861.29667982" y="522.064461708"/>
      <point x="966.676313667" y="570.379304771" type="curve"/>
      <point x="966.676313667" y="101.856827526" type="line"/>
      <point x="748.497022342" y="83.6206952286" type="line"/>
      <point x="748.497022342" y="0.0" type="line"/>
      <point x="1193.28422675" y="0.0" type="line"/>
      <point x="1193.99842216" y="-16.9910091019"/>
      <point x="1207.75627063" y="-283.967769146"/>
      <point x="1207.60906927" y="-323.620695229" type="curve"/>
      <point x="1322.69851435" y="-323.620695229" type="line"/>
      <point x="1340.48258869" y="-206.468531857"/>
      <point x="1358.98085844" y="-34.0644617081"/>
    </contour>
  </outline>
</glyph>
<glyph name="chedescenderabkhasian-cy.sc" format="1">
  <advance width="1648.0496198"/>
  <outline>
    <contour>
      <point x="1511.54390318" y="46.0" type="curve"/>
      <point x="1520.73034306" y="304.991009102" type="line"/>
      <point x="1408.87932776" y="307.77811676" type="line"/>
      <point x="1367.04695493" y="168.139439735" type="line"/>
      <point x="1306.9889037" y="120.250381355"/>
      <point x="1200.40984767" y="74.8335875702"/>
      <point x="1008.73765515" y="74.8335875702" type="curve" smooth="yes"/>
      <point x="694.299735795" y="74.8335875702"/>
      <point x="524.909425519" y="327.638677025"/>
      <point x="525.939834995" y="619.907040176" type="curve"/>
      <point x="1540.97321771" y="617.907040176" type="line"/>
      <point x="1549.57085217" y="654.536726303"/>
      <point x="1551.31545706" y="716.629686127"/>
      <point x="1551.31545706" y="794.629686127" type="curve" smooth="yes"/>
      <point x="1551.90426247" y="1127.14843063"/>
      <point x="1339.88561666" y="1306.0"/>
      <point x="1024.92432595" y="1306.0" type="curve" smooth="yes"/>
      <point x="666.091654807" y="1306.0"/>
      <point x="391.387144742" y="1074.51874451"/>
      <point x="359.477218557" y="713.101950722" type="curve"/>
      <point x="207.598391264" y="715.101950722"/>
      <point x="158.007969389" y="768.629686127"/>
      <point x="158.007969389" y="816.0" type="curve" smooth="yes"/>
      <point x="158.007969389" y="847.527735405"/>
      <point x="185.69267902" y="916.94452919"/>
      <point x="200.848940344" y="933.101950722" type="curve"/>
      <point x="59.7975791719" y="955.416793785" type="line"/>
      <point x="35.7492806795" y="943.416793785"/>
      <point x="3.86116584701" y="868.046479912"/>
      <point x="3.86116584701" y="807.008990898" type="curve" smooth="yes"/>
      <point x="3.86116584701" y="679.008990898"/>
      <point x="164.904621664" y="618.694147835"/>
      <point x="355.104800649" y="616.851569366" type="curve"/>
      <point x="356.260600127" y="236.694147835"/>
      <point x="592.790959852" y="-13.3703138733"/>
      <point x="966.485489608" y="-20.0" type="curve"/>
      <point x="988.4947805" y="-51.8425784683"/>
      <point x="1024.06292918" y="-110.898049278"/>
      <point x="1024.06292918" y="-167.953520088" type="curve" smooth="yes"/>
      <point x="1024.06292918" y="-274.11094162"/>
      <point x="966.632690961" y="-291.638677025"/>
      <point x="863.292064715" y="-291.638677025" type="curve" smooth="yes"/>
      <point x="843.468982777" y="-291.638677025"/>
      <point x="792.89177413" y="-285.796098557"/>
      <point x="766.51006533" y="-277.953520088" type="curve"/>
      <point x="764.176655023" y="-395.148430634" type="line"/>
      <point x="801.489408592" y="-407.305852165"/>
      <point x="866.7812745" y="-417.305852165"/>
      <point x="912.986065239" y="-417.305852165" type="curve" smooth="yes"/>
      <point x="1070.22409721" y="-417.305852165"/>
      <point x="1162.75906869" y="-374.991009102"/>
      <point x="1169.1704942" y="-248.787107658" type="curve" smooth="yes"/>
      <point x="1173.39571075" y="-153.685156937"/>
      <point x="1100.95641256" y="-60.7871076584"/>
      <point x="1058.26264296" y="-17.8425784683" type="curve"/>
      <point x="1291.1784029" y="-5.52773540497"/>
      <point x="1406.01706798" y="44.0"/>
    </contour>
    <contour>
      <point x="1366.18555816" y="713.101950722" type="curve"/>
      <point x="523.900827395" y="713.101950722" type="line"/>
      <point x="537.312483826" y="1069.59219711"/>
      <point x="755.99881327" y="1205.27735405"/>
      <point x="981.347348223" y="1205.27735405" type="curve" smooth="yes"/>
      <point x="1254.49807745" y="1205.27735405"/>
      <point x="1375.8136021" y="988.805089455"/>
      <point x="1375.51919939" y="802.11094162" type="curve" smooth="yes"/>
      <point x="1375.37199804" y="771.370313873"/>
      <point x="1373.18578908" y="742.157421532"/>
    </contour>
  </outline>
</glyph>
<glyph name="chekhakassian-cy.sc" format="1">
  <advance width="1442.17797475"/>
  <outline>
    <contour>
      <point x="698.413207082" y="-144.0" type="move" name="mark0"/>
    </contour>
    <contour>
      <point x="913.479458624" y="0.0" type="curve"/>
      <point x="1327.21813361" y="0.0" type="line"/>
      <point x="1327.21813361" y="83.4632736969" type="line"/>
      <point x="1132.77092672" y="101.856827526" type="line"/>
      <point x="1132.77092672" y="1187.35606482" type="line"/>
      <point x="1324.95832398" y="1205.90704018" type="line"/>
      <point x="1324.95832398" y="1292.0" type="line"/>
      <point x="769.969297144" y="1292.0" type="line"/>
      <point x="769.969297144" y="1205.90704018" type="line"/>
      <point x="966.676313667" y="1187.43477558" type="line"/>
      <point x="966.676313667" y="667.180661488" type="line"/>
      <point x="904.284852129" y="639.023239956"/>
      <point x="744.721576469" y="613.416793785"/>
      <point x="632.120909669" y="613.416793785" type="curve" smooth="yes"/>
      <point x="351.138530716" y="613.416793785"/>
      <point x="320.384404008" y="669.652926083"/>
      <point x="320.384404008" y="945.245123196" type="curve" smooth="yes"/>
      <point x="320.384404008" y="1185.59219711" type="line"/>
      <point x="513.970214131" y="1205.90704018" type="line"/>
      <point x="513.970214131" y="1292.0" type="line"/>
      <point x="22.2340456005" y="1292.0" type="line"/>
      <point x="22.2340456005" y="1205.90704018" type="line"/>
      <point x="154.363391631" y="1185.43477558" type="line"/>
      <point x="154.363391631" y="891.907040176" type="line" smooth="yes"/>
      <point x="154.363391631" y="630.647667923"/>
      <point x="230.417289602" y="496.379304771"/>
      <point x="545.724772343" y="496.379304771" type="curve" smooth="yes"/>
      <point x="675.520708067" y="496.379304771"/>
      <point x="861.29667982" y="522.064461708"/>
      <point x="966.676313667" y="570.379304771" type="curve"/>
      <point x="966.676313667" y="104.407802887" type="line"/>
      <point x="744.124604435" y="104.407802887" type="line"/>
      <point x="745.228614588" y="64.4115356255"/>
      <point x="720.517910004" y="-306.504495449"/>
      <point x="720.517910004" y="-323.620695229" type="curve"/>
      <point x="835.018549669" y="-323.620695229" type="line"/>
      <point x="845.949594438" y="-283.227141399"/>
      <point x="910.947057639" y="-16.407802887"/>
    </contour>
  </outline>
</glyph>
<glyph name="cheverticalstroke-cy.sc" format="1">
  <advance width="1432.28550608"/>
  <outline>
    <contour>
      <point x="697.707178284" y="-144.0" type="move" name="mark0"/>
    </contour>
    <contour>
      <point x="968.2300945" y="566.772858601" type="curve"/>
      <point x="968.2300945" y="102.565224419" type="line"/>
      <point x="750.934011298" y="85.9355382919" type="line"/>
      <point x="750.934011298" y="0.0" type="line"/>
      <point x="1328.62471309" y="0.0" type="line"/>
      <point x="1328.62471309" y="83.4632736969" type="line"/>
      <point x="1136.65811786" y="101.856827526" type="line"/>
      <point x="1136.65811786" y="1187.35606482" type="line"/>
      <point x="1328.62471309" y="1205.90704018" type="line"/>
      <point x="1328.62471309" y="1292.0" type="line"/>
      <point x="774.886897761" y="1292.0" type="line"/>
      <point x="774.886897761" y="1208.30059401" type="line"/>
      <point x="968.2300945" y="1187.59219711" type="line"/>
      <point x="968.2300945" y="667.259372253" type="line"/>
      <point x="916.622476378" y="645.652926083"/>
      <point x="804.809605671" y="624.125190678"/>
      <point x="701.027375363" y="615.88905838" type="curve"/>
      <point x="701.027375363" y="879.023239956" type="line"/>
      <point x="601.734786345" y="879.023239956" type="line"/>
      <point x="601.734786345" y="613.416793785" type="line"/>
      <point x="366.169402038" y="615.259372253"/>
      <point x="322.717814316" y="673.731636848"/>
      <point x="322.717814316" y="945.245123196" type="curve" smooth="yes"/>
      <point x="322.717814316" y="1185.67090788" type="line"/>
      <point x="514.537208193" y="1208.14317247" type="line"/>
      <point x="514.537208193" y="1292.0" type="line"/>
      <point x="22.0132435698" y="1292.0" type="line"/>
      <point x="22.0132435698" y="1208.14317247" type="line"/>
      <point x="158.883010893" y="1185.90704018" type="line"/>
      <point x="158.883010893" y="891.907040176" type="line" smooth="yes"/>
      <point x="158.883010893" y="623.119932518"/>
      <point x="240.465126249" y="496.379304771"/>
      <point x="547.962770621" y="496.379304771" type="curve" smooth="yes"/>
      <point x="562.898229914" y="496.379304771"/>
      <point x="582.353308468" y="496.379304771"/>
      <point x="601.734786345" y="498.379304771" type="curve"/>
      <point x="601.734786345" y="306.268363152" type="line"/>
      <point x="701.027375363" y="306.268363152" type="line"/>
      <point x="701.027375363" y="505.559966259" type="line"/>
      <point x="798.913384901" y="517.638677025"/>
      <point x="892.279775178" y="535.638677025"/>
    </contour>
  </outline>
</glyph>
<glyph name="de-cy.sc" format="1">
  <advance width="1533.43175675"/>
  <outline>
    <contour>
      <point x="1414.46750109" y="101.856827526" type="curve"/>
      <point x="1229.81735084" y="101.856827526" type="line"/>
      <point x="1229.81735084" y="1187.35606482" type="line"/>
      <point x="1428.54156361" y="1205.90704018" type="line"/>
      <point x="1428.54156361" y="1292.0" type="line"/>
      <point x="292.852373846" y="1292.0" type="line"/>
      <point x="292.852373846" y="1205.90704018" type="line"/>
      <point x="506.806448617" y="1187.35606482" type="line"/>
      <point x="506.806448617" y="1078.0" type="line" smooth="yes"/>
      <point x="506.806448617" y="471.588464375"/>
      <point x="296.319772278" y="174.769125862"/>
      <point x="231.763913139" y="101.856827526" type="curve"/>
      <point x="76.2486747077" y="101.856827526" type="line"/>
      <point x="76.9846814766" y="63.152163372"/>
      <point x="51.5379701233" y="-307.05547081"/>
      <point x="51.758772154" y="-323.935538292" type="curve"/>
      <point x="163.926001511" y="-323.935538292" type="line"/>
      <point x="174.783445604" y="-276.472264595"/>
      <point x="242.776725204" y="-8.440033741"/>
      <point x="245.088324159" y="0.0" type="curve"/>
      <point x="1230.47159031" y="0.0" type="line"/>
      <point x="1233.44559536" y="-15.6529260826"/>
      <point x="1248.50644466" y="-289.180661488"/>
      <point x="1250.61905293" y="-323.620695229" type="curve"/>
      <point x="1363.30148703" y="-323.620695229" type="line"/>
      <point x="1365.04609192" y="-313.731636848"/>
      <point x="1414.46750109" y="80.0966925621"/>
    </contour>
    <contour>
      <point x="621.034496927" y="1068.0" type="curve"/>
      <point x="621.034496927" y="1192.5367263" type="line"/>
      <point x="1065.90894674" y="1192.5367263" type="line"/>
      <point x="1063.50193576" y="101.856827526" type="line"/>
      <point x="390.871940004" y="101.856827526" type="line"/>
      <point x="454.051197635" y="187.00525816"/>
      <point x="623.367907234" y="525.384562931"/>
    </contour>
  </outline>
</glyph>
<glyph name="dje-cy.sc" format="1">
  <advance width="1729.43274448"/>
  <outline>
    <contour>
      <point x="704.257638527" y="-144.0" type="move" name="mark0"/>
    </contour>
    <contour>
      <point x="834.113530193" y="672.708396893" type="curve"/>
      <point x="834.113530193" y="1203.90704018" type="line"/>
      <point x="1280.97519828" y="1187.43477558" type="line"/>
      <point x="1318.48694253" y="882.976760044" type="line"/>
      <point x="1430.87497392" y="882.976760044" type="line"/>
      <point x="1437.38181146" y="1292.0" type="line"/>
      <point x="114.150233692" y="1292.0" type="line"/>
      <point x="85.8767186458" y="882.976760044" type="line"/>
      <point x="203.078772003" y="882.976760044" type="line"/>
      <point x="259.331399388" y="1187.43477558" type="line"/>
      <point x="658.832477263" y="1203.90704018" type="line"/>
      <point x="658.832477263" y="104.407802887" type="line"/>
      <point x="382.508752307" y="85.9355382919" type="line"/>
      <point x="382.508752307" y="0.0" type="line"/>
      <point x="1053.8684137" y="0.0" type="line"/>
      <point x="1053.8684137" y="85.9355382919" type="line"/>
      <point x="834.113530193" y="102.565224419" type="line"/>
      <point x="834.113530193" y="581.670907879" type="line"/>
      <point x="944.770601423" y="619.198643284"/>
      <point x="1036.88578019" y="636.143172474"/>
      <point x="1148.60323887" y="636.143172474" type="curve" smooth="yes"/>
      <point x="1395.54127201" y="636.143172474"/>
      <point x="1472.79459216" y="519.796098557"/>
      <point x="1472.79459216" y="282.772858601" type="curve" smooth="yes"/>
      <point x="1472.79459216" y="-57.4490246391"/>
      <point x="1382.86562235" y="-243.008990898"/>
      <point x="1149.48644699" y="-243.008990898" type="curve" smooth="yes"/>
      <point x="1114.32992441" y="-243.008990898"/>
      <point x="1076.86996948" y="-238.300594006"/>
      <point x="1062.00811087" y="-235.907040176" type="curve"/>
      <point x="1063.3111117" y="-329.921289234" type="line"/>
      <point x="1084.51079514" y="-340.0"/>
      <point x="1149.80266105" y="-347.180661488"/>
      <point x="1175.91994512" y="-347.180661488" type="curve" smooth="yes"/>
      <point x="1486.26620453" y="-347.180661488"/>
      <point x="1642.96722042" y="-69.9355382919"/>
      <point x="1642.96722042" y="303.212892342" type="curve" smooth="yes"/>
      <point x="1642.96722042" y="566.61170433"/>
      <point x="1577.02659315" y="742.708396893"/>
      <point x="1189.38339087" y="742.708396893" type="curve" smooth="yes"/>
      <point x="1108.07386687" y="742.708396893"/>
      <point x="921.215696316" y="715.291603107"/>
    </contour>
  </outline>
</glyph>
<glyph name="dzeabkhasian-cy.sc" format="1">
  <advance width="1355.23665472"/>
  <outline>
    <contour>
      <point x="653.004379055" y="738.125190678" type="curve"/>
      <point x="1171.10592315" y="1207.19864328" type="line"/>
      <point x="1171.10592315" y="1292.0" type="line"/>
      <point x="215.988868429" y="1292.0" type="line"/>
      <point x="237.703756614" y="986.096692562" type="line"/>
      <point x="344.17375588" y="986.096692562" type="line"/>
      <point x="375.862880034" y="1169.82832941" type="line"/>
      <point x="968.265550587" y="1175.90704018" type="line"/>
      <point x="969.928388184" y="1150.8553021"/>
      <point x="501.83158056" y="763.241390457"/>
      <point x="489.788359018" y="727.05547081" type="curve"/>
      <point x="514.47725225" y="661.008990898" type="line"/>
      <point x="542.67716662" y="661.323833961"/>
      <point x="573.284091974" y="661.323833961"/>
      <point x="601.925610404" y="661.323833961" type="curve"/>
      <point x="930.930985665" y="651.874809322"/>
      <point x="1038.54045117" y="550.064461708"/>
      <point x="1038.54045117" y="381.763867702" type="curve" smooth="yes"/>
      <point x="1038.54045117" y="222.740627747"/>
      <point x="899.999679632" y="87.6529260826"/>
      <point x="606.172638311" y="87.6529260826" type="curve" smooth="yes"/>
      <point x="433.933712989" y="87.6529260826"/>
      <point x="376.797877481" y="119.731636848"/>
      <point x="356.459590805" y="128.203901443" type="curve"/>
      <point x="312.389219696" y="341.11619978" type="line"/>
      <point x="214.296052861" y="341.11619978" type="line"/>
      <point x="175.606697784" y="53.2593722534" type="line"/>
      <point x="229.231512154" y="38.0"/>
      <point x="354.221592527" y="-12.5509753609"/>
      <point x="582.176129143" y="-12.5509753609" type="curve" smooth="yes"/>
      <point x="956.571209581" y="-12.5509753609"/>
      <point x="1218.54011404" y="159.148430634"/>
      <point x="1218.54011404" y="410.125190678" type="curve" smooth="yes"/>
      <point x="1218.54011404" y="627.291603107"/>
      <point x="1068.47949232" y="743.88905838"/>
      <point x="782.969327485" y="743.88905838" type="curve" smooth="yes"/>
      <point x="735.660526593" y="743.88905838"/>
      <point x="695.499157978" y="741.88905838"/>
    </contour>
  </outline>
</glyph>
<glyph name="dzhe-cy.sc" format="1">
  <advance width="1687.6658057"/>
  <outline>
    <contour>
      <point x="952.632229116" y="0.0" type="curve"/>
      <point x="1568.03914395" y="0.0" type="line"/>
      <point x="1568.03914395" y="83.6206952286" type="line"/>
      <point x="1378.40595903" y="99.8568275261" type="line"/>
      <point x="1378.40595903" y="1187.35606482" type="line"/>
      <point x="1545.22024561" y="1205.90704018" type="line"/>
      <point x="1545.22024561" y="1292.0" type="line"/>
      <point x="1035.00761868" y="1292.0" type="line"/>
      <point x="1035.00761868" y="1205.90704018" type="line"/>
      <point x="1212.09054394" y="1187.35606482" type="line"/>
      <point x="1212.09054394" y="96.9910091019" type="line"/>
      <point x="473.094650099" y="96.9910091019" type="line"/>
      <point x="473.094650099" y="1187.35606482" type="line"/>
      <point x="675.771488069" y="1205.90704018" type="line"/>
      <point x="675.771488069" y="1292.0" type="line"/>
      <point x="130.85210923" y="1292.0" type="line"/>
      <point x="130.85210923" y="1205.90704018" type="line"/>
      <point x="309.259846676" y="1187.35606482" type="line"/>
      <point x="309.259846676" y="101.856827526" type="line"/>
      <point x="121.812870707" y="83.6206952286" type="line"/>
      <point x="121.812870707" y="0.0" type="line"/>
      <point x="762.887298925" y="0.0" type="line"/>
      <point x="764.263900434" y="-5.4167937851"/>
      <point x="798.43363625" y="-298.143172474"/>
      <point x="798.43363625" y="-323.935538292" type="curve"/>
      <point x="919.124899392" y="-323.935538292" type="line"/>
      <point x="930.644749576" y="-211.148430634"/>
      <point x="942.363590438" y="-86.8050894547"/>
    </contour>
  </outline>
</glyph>
<glyph name="e-cy.sc" format="1">
  <advance width="1388.67038376"/>
  <outline>
    <contour>
      <point x="829.040561604" y="0.0" type="move" name="mark0"/>
    </contour>
    <contour>
      <point x="1233.62277469" y="46.0" type="curve"/>
      <point x="1289.03581665" y="305.037489014" type="line"/>
      <point x="1186.42303056" y="312.565224419" type="line"/>
      <point x="1099.04827308" y="134.361322975" type="line"/>
      <point x="1040.36682336" y="101.384562931"/>
      <point x="976.083555574" y="74.9910091019"/>
      <point x="807.429252067" y="74.9910091019" type="curve" smooth="yes"/>
      <point x="476.878262592" y="74.9910091019"/>
      <point x="312.449175639" y="327.05547081"/>
      <point x="295.253906715" y="607.087701664" type="curve"/>
      <point x="1021.8249309" y="591.323833961" type="line"/>
      <point x="1021.8249309" y="729.495504551" type="line"/>
      <point x="295.474708746" y="713.652926083" type="line"/>
      <point x="312.964380377" y="1035.25937225"/>
      <point x="521.706451822" y="1213.2451232"/>
      <point x="796.697197976" y="1213.2451232" type="curve" smooth="yes"/>
      <point x="974.044547974" y="1213.2451232"/>
      <point x="1051.68768287" y="1187.32383396"/>
      <point x="1101.10909203" y="1161.40254473" type="curve"/>
      <point x="1150.87669323" y="950.411535625" type="line"/>
      <point x="1257.91368656" y="950.411535625" type="line"/>
      <point x="1270.29493352" y="1250.2361323" type="line"/>
      <point x="1188.69100681" y="1262.0"/>
      <point x="1014.58208659" y="1306.0"/>
      <point x="823.152507453" y="1306.0" type="curve" smooth="yes"/>
      <point x="411.40105074" y="1306.0"/>
      <point x="92.5089461842" y="1035.96776915"/>
      <point x="92.5089461842" y="646.976760044" type="curve" smooth="yes"/>
      <point x="92.5089461842" y="250.0"/>
      <point x="362.075053601" y="-20.0"/>
      <point x="802.710642128" y="-20.0" type="curve" smooth="yes"/>
      <point x="1047.17623022" y="-20.0"/>
      <point x="1125.12193444" y="41.9212892342"/>
    </contour>
  </outline>
</glyph>
<glyph name="ef-cy.sc" format="1">
  <advance width="1553.71277599"/>
  <outline>
    <contour>
      <point x="775.432080471" y="-144.0" type="move" name="mark0"/>
    </contour>
    <contour>
      <point x="854.58537349" y="1099.87480932" type="curve"/>
      <point x="854.58537349" y="1222.06446171" type="line"/>
      <point x="1064.70404644" y="1242.61543707" type="line"/>
      <point x="1064.70404644" y="1328.2361323" type="line"/>
      <point x="489.450333605" y="1328.2361323" type="line"/>
      <point x="489.450333605" y="1242.61543707" type="line"/>
      <point x="699.201003175" y="1222.06446171" type="line"/>
      <point x="699.201003175" y="1099.79609856" type="line"/>
      <point x="298.107999876" y="1080.81933851"/>
      <point x="54.1657831385" y="899.921289234"/>
      <point x="54.1657831385" y="661.449024639" type="curve" smooth="yes"/>
      <point x="54.1657831385" y="442.504495449"/>
      <point x="165.883241816" y="216.472264595"/>
      <point x="699.201003175" y="204.125190678" type="curve"/>
      <point x="699.201003175" y="71.6206952286" type="line"/>
      <point x="489.376732929" y="49.8568275261" type="line"/>
      <point x="489.376732929" y="-36.0" type="line"/>
      <point x="1066.74305404" y="-36.0" type="line"/>
      <point x="1066.74305404" y="48.0929598236" type="line"/>
      <point x="854.58537349" y="69.4632736969" type="line"/>
      <point x="854.58537349" y="205.88905838" type="line"/>
      <point x="1254.39718731" y="224.0"/>
      <point x="1499.54699285" y="416.11094162"/>
      <point x="1499.54699285" y="657.05547081" type="curve" smooth="yes"/>
      <point x="1499.54699285" y="884.0"/>
      <point x="1382.94191153" y="1089.05547081"/>
    </contour>
    <contour>
      <point x="699.201003175" y="1028.96251099" type="curve"/>
      <point x="699.201003175" y="280.565224419" type="line"/>
      <point x="318.440808438" y="303.037489014"/>
      <point x="244.971100777" y="495.259372253"/>
      <point x="244.971100777" y="671.291603107" type="curve" smooth="yes"/>
      <point x="244.971100777" y="849.212892342"/>
      <point x="330.549464037" y="1011.35606482"/>
    </contour>
    <contour>
      <point x="854.58537349" y="280.092959824" type="curve"/>
      <point x="854.58537349" y="1026.80508945" type="line"/>
      <point x="1244.2376054" y="1004.17540333"/>
      <point x="1306.48186558" y="823.323833961"/>
      <point x="1306.48186558" y="655.05547081" type="curve" smooth="yes"/>
      <point x="1306.48186558" y="460.314843063"/>
      <point x="1211.71706244" y="299.699405994"/>
    </contour>
  </outline>
</glyph>
<glyph name="elhook-cy.sc" format="1">
  <advance width="1542.2720046"/>
  <outline>
    <contour>
      <point x="1237.09017312" y="478.0" type="curve" smooth="yes"/>
      <point x="1237.09017312" y="1187.35606482" type="line"/>
      <point x="1434.14338167" y="1205.90704018" type="line"/>
      <point x="1434.14338167" y="1292.0" type="line"/>
      <point x="280.397526215" y="1292.0" type="line"/>
      <point x="280.397526215" y="1205.90704018" type="line"/>
      <point x="512.408266679" y="1187.35606482" type="line"/>
      <point x="512.408266679" y="1046.20390144" type="line" smooth="yes"/>
      <point x="512.408266679" y="588.472264595"/>
      <point x="450.532009879" y="327.463273697"/>
      <point x="341.199750833" y="199.935538292" type="curve"/>
      <point x="308.627418556" y="152.597455273"/>
      <point x="271.24106431" y="133.148430634"/>
      <point x="219.213653478" y="133.148430634" type="curve" smooth="yes"/>
      <point x="135.47530714" y="133.148430634"/>
      <point x="86.8635054167" y="136.991009102"/>
      <point x="64.5816231695" y="140.991009102" type="curve"/>
      <point x="74.6294598162" y="0.0" type="line"/>
      <point x="99.7599571092" y="-4.31484306335"/>
      <point x="151.860968617" y="-10.2361322975"/>
      <point x="217.079233849" y="-10.2361322975" type="curve" smooth="yes"/>
      <point x="314.649029326" y="-10.2361322975"/>
      <point x="386.131518712" y="28.472264595"/>
      <point x="447.56617145" y="115.023239956" type="curve" smooth="yes"/>
      <point x="562.058644497" y="273.652926083"/>
      <point x="626.857117019" y="606.880067482"/>
      <point x="626.857117019" y="1027.29160311" type="curve" smooth="yes"/>
      <point x="626.857117019" y="1187.19864328" type="line"/>
      <point x="1073.10816834" y="1187.19864328" type="line"/>
      <point x="1068.5149484" y="414.239865036" type="line" smooth="yes"/>
      <point x="1066.25513877" y="172.772858601"/>
      <point x="1064.95213794" y="83.7960985565"/>
      <point x="1024.79076933" y="-13.6851569366" type="curve" smooth="yes"/>
      <point x="979.542787388" y="-134.472264595"/>
      <point x="869.937936988" y="-209.763867702"/>
      <point x="745.670218649" y="-237.763867702" type="curve"/>
      <point x="791.337993297" y="-309.227141399" type="line"/>
      <point x="959.515236656" y="-280.125190678"/>
      <point x="1164.0102802" y="-166.976760044"/>
      <point x="1215.816889" y="33.0554708099" type="curve"/>
      <point x="1232.79135589" y="121.874809322"/>
      <point x="1237.09017312" y="286.0"/>
    </contour>
  </outline>
</glyph>
<glyph name="eltail-cy.sc" format="1">
  <advance width="1559.59266352"/>
  <outline>
    <contour>
      <point x="618.752875943" y="-144.0" type="move" name="mark0"/>
    </contour>
    <contour>
      <point x="1483.63839152" y="0.0" type="curve"/>
      <point x="1483.63839152" y="99.6994059944" type="line"/>
      <point x="1237.09017312" y="99.6994059944" type="line"/>
      <point x="1237.09017312" y="1187.35606482" type="line"/>
      <point x="1434.14338167" y="1205.90704018" type="line"/>
      <point x="1434.14338167" y="1292.0" type="line"/>
      <point x="280.397526215" y="1292.0" type="line"/>
      <point x="280.397526215" y="1205.90704018" type="line"/>
      <point x="512.408266679" y="1187.35606482" type="line"/>
      <point x="512.408266679" y="1046.20390144" type="line" smooth="yes"/>
      <point x="512.408266679" y="588.078710766"/>
      <point x="450.532009879" y="327.620695229"/>
      <point x="341.199750833" y="199.856827526" type="curve"/>
      <point x="308.406616525" y="150.912298336"/>
      <point x="266.427042341" y="132.912298336"/>
      <point x="219.213653478" y="132.912298336" type="curve" smooth="yes"/>
      <point x="131.029288555" y="132.912298336"/>
      <point x="86.9371060936" y="136.912298336"/>
      <point x="64.5816231695" y="140.754876804" type="curve"/>
      <point x="74.6294598162" y="0.0" type="line"/>
      <point x="99.7599571092" y="-4.31484306335"/>
      <point x="151.860968617" y="-10.2361322975"/>
      <point x="217.079233849" y="-10.2361322975" type="curve" smooth="yes"/>
      <point x="314.79623068" y="-10.2361322975"/>
      <point x="386.573122773" y="28.472264595"/>
      <point x="445.747965881" y="113.180661488" type="curve" smooth="yes"/>
      <point x="566.872666466" y="281.495504551"/>
      <point x="626.857117019" y="617.11619978"/>
      <point x="626.857117019" y="1027.29160311" type="curve" smooth="yes"/>
      <point x="626.857117019" y="1187.19864328" type="line"/>
      <point x="1073.03456767" y="1187.19864328" type="line"/>
      <point x="1072.88736631" y="101.856827526" type="line"/>
      <point x="856.820683264" y="83.6206952286" type="line"/>
      <point x="856.820683264" y="0.0" type="line"/>
      <point x="1330.2494061" y="0.0" type="line"/>
      <point x="1326.83379699" y="-23.2271413994"/>
      <point x="1245.13445825" y="-300.536726303"/>
      <point x="1243.63246674" y="-323.935538292" type="curve"/>
      <point x="1363.24153109" y="-323.935538292" type="line"/>
      <point x="1365.70033139" y="-313.023239956"/>
      <point x="1482.87240678" y="-19.0839689255"/>
    </contour>
  </outline>
</glyph>
<glyph name="emtail-cy.sc" format="1">
  <advance width="2110.02392651"/>
  <outline>
    <contour>
      <point x="1017.59154773" y="-144.0" type="move" name="mark0"/>
    </contour>
    <contour>
      <point x="2124.21942635" y="0.0" type="curve"/>
      <point x="2124.21942635" y="96.912298336" type="line"/>
      <point x="1900.68909697" y="96.912298336" type="line"/>
      <point x="1710.26811595" y="1187.35606482" type="line"/>
      <point x="1921.81517974" y="1205.90704018" type="line"/>
      <point x="1921.81517974" y="1292.0" type="line"/>
      <point x="1468.26680628" y="1292.0" type="line"/>
      <point x="1125.16555715" y="436.107208881" type="line"/>
      <point x="1060.07268191" y="215.491771812" type="line"/>
      <point x="990.680989454" y="436.107208881" type="line"/>
      <point x="626.012053487" y="1292.0" type="line"/>
      <point x="145.839357847" y="1292.0" type="line"/>
      <point x="145.839357847" y="1205.90704018" type="line"/>
      <point x="375.118706647" y="1187.35606482" type="line"/>
      <point x="204.226404862" y="101.856827526" type="line"/>
      <point x="22.2558569532" y="83.6206952286" type="line"/>
      <point x="22.2558569532" y="0.0" type="line"/>
      <point x="550.538794312" y="0.0" type="line"/>
      <point x="550.538794312" y="83.6206952286" type="line"/>
      <point x="349.996375973" y="101.856827526" type="line"/>
      <point x="444.739367757" y="884.0" type="line"/>
      <point x="484.827135696" y="1222.37930477" type="line"/>
      <point x="616.904692402" y="893.449024639" type="line"/>
      <point x="1004.79050806" y="-14.0" type="line"/>
      <point x="1083.36316229" y="-14.0" type="line"/>
      <point x="1480.97243391" y="988.175403328" type="line"/>
      <point x="1556.4075485" y="1219.59219711" type="line"/>
      <point x="1611.94598047" y="884.0" type="line"/>
      <point x="1724.32584524" y="101.856827526" type="line"/>
      <point x="1535.20786505" y="83.6206952286" type="line"/>
      <point x="1535.20786505" y="0.0" type="line"/>
      <point x="1975.42366087" y="0.0" type="line"/>
      <point x="1969.67464145" y="-20.5652244186"/>
      <point x="1888.19610475" y="-301.874809322"/>
      <point x="1885.44290173" y="-323.935538292" type="curve"/>
      <point x="2002.86575712" y="-323.935538292" type="line"/>
      <point x="2012.54559038" y="-304.94452919"/>
      <point x="2119.30182574" y="-31.0517380714"/>
    </contour>
  </outline>
</glyph>
<glyph name="endescender-cy.sc" format="1">
  <advance width="1757.79350493"/>
  <outline>
    <contour>
      <point x="877.011768587" y="-144.0" type="move" name="mark0"/>
    </contour>
    <contour>
      <point x="1665.33634807" y="101.856827526" type="curve"/>
      <point x="1451.16147127" y="101.856827526" type="line"/>
      <point x="1451.16147127" y="1187.43477558" type="line"/>
      <point x="1625.12319013" y="1205.90704018" type="line"/>
      <point x="1625.12319013" y="1292.0" type="line"/>
      <point x="1106.65912077" y="1292.0" type="line"/>
      <point x="1106.65912077" y="1205.90704018" type="line"/>
      <point x="1282.65984723" y="1187.35606482" type="line"/>
      <point x="1282.65984723" y="715.967769146" type="line"/>
      <point x="475.35445973" y="715.967769146" type="line"/>
      <point x="475.35445973" y="1187.43477558" type="line"/>
      <point x="657.619410346" y="1205.90704018" type="line"/>
      <point x="657.619410346" y="1292.0" type="line"/>
      <point x="134.93012443" y="1292.0" type="line"/>
      <point x="134.93012443" y="1205.90704018" type="line"/>
      <point x="307.000037046" y="1187.43477558" type="line"/>
      <point x="307.000037046" y="99.8568275261" type="line"/>
      <point x="128.150695538" y="83.6206952286" type="line"/>
      <point x="128.150695538" y="0.0" type="line"/>
      <point x="659.879219977" y="0.0" type="line"/>
      <point x="659.879219977" y="83.6206952286" type="line"/>
      <point x="475.35445973" y="99.8568275261" type="line"/>
      <point x="475.35445973" y="609.008990898" type="line"/>
      <point x="1282.65984723" y="609.008990898" type="line"/>
      <point x="1282.65984723" y="101.856827526" type="line"/>
      <point x="1104.39931114" y="83.6206952286" type="line"/>
      <point x="1104.39931114" y="0.0" type="line"/>
      <point x="1479.00702699" y="0.0" type="line"/>
      <point x="1481.83383068" y="-22.5974552727"/>
      <point x="1495.7388805" y="-289.967769146"/>
      <point x="1497.85148878" y="-323.620695229" type="curve"/>
      <point x="1610.53392287" y="-323.620695229" type="line"/>
      <point x="1612.27852777" y="-311.88905838"/>
      <point x="1665.33634807" y="78.4115356255"/>
    </contour>
  </outline>
</glyph>
<glyph name="enghe-cy.sc" format="1">
  <advance width="2121.95540278"/>
  <outline>
    <contour>
      <point x="133.185519538" y="1292.0" type="line"/>
      <point x="133.185519538" y="1205.90704018" type="line"/>
      <point x="311.666857661" y="1187.43477558" type="line"/>
      <point x="311.666857661" y="99.8568275261" type="line"/>
      <point x="124.072680338" y="83.6206952286" type="line"/>
      <point x="124.072680338" y="0.0" type="line"/>
      <point x="676.065890776" y="0.0" type="line"/>
      <point x="676.065890776" y="83.6206952286" type="line"/>
      <point x="477.687870038" y="101.856827526" type="line"/>
      <point x="477.687870038" y="609.008990898" type="line"/>
      <point x="1287.4738692" y="609.008990898" type="line"/>
      <point x="1287.4738692" y="101.856827526" type="line"/>
      <point x="1099.8060912" y="83.6206952286" type="line"/>
      <point x="1099.8060912" y="0.0" type="line"/>
      <point x="1632.83761647" y="0.0" type="line"/>
      <point x="1632.83761647" y="83.6206952286" type="line"/>
      <point x="1455.90189256" y="101.856827526" type="line"/>
      <point x="1455.90189256" y="1203.67090788" type="line"/>
      <point x="1845.6495365" y="1183.59219711" type="line"/>
      <point x="1898.31754207" y="857.971501884" type="line"/>
      <point x="2023.97002854" y="857.971501884" type="line"/>
      <point x="2000.65773681" y="1292.0" type="line"/>
      <point x="1097.61988225" y="1292.0" type="line"/>
      <point x="1097.61988225" y="1205.90704018" type="line"/>
      <point x="1287.4738692" y="1187.35606482" type="line"/>
      <point x="1287.4738692" y="715.967769146" type="line"/>
      <point x="477.687870038" y="715.967769146" type="line"/>
      <point x="477.687870038" y="1187.35606482" type="line"/>
      <point x="676.065890776" y="1205.90704018" type="line"/>
      <point x="676.065890776" y="1292.0" type="line"/>
    </contour>
  </outline>
</glyph>
<glyph name="enhook-cy.sc" format="1">
  <advance width="1753.22209635"/>
  <outline>
    <contour>
      <point x="879.028964835" y="-144.0" type="move" name="mark0"/>
    </contour>
    <contour>
      <point x="1451.16147127" y="452.440033741" type="curve" smooth="yes"/>
      <point x="1451.16147127" y="1187.35606482" type="line"/>
      <point x="1634.38323069" y="1205.90704018" type="line"/>
      <point x="1634.38323069" y="1292.0" type="line"/>
      <point x="1106.65912077" y="1292.0" type="line"/>
      <point x="1106.65912077" y="1205.90704018" type="line"/>
      <point x="1282.65984723" y="1187.35606482" type="line"/>
      <point x="1282.65984723" y="715.967769146" type="line"/>
      <point x="475.35445973" y="715.967769146" type="line"/>
      <point x="475.35445973" y="1187.43477558" type="line"/>
      <point x="657.619410346" y="1205.90704018" type="line"/>
      <point x="657.619410346" y="1292.0" type="line"/>
      <point x="134.93012443" y="1292.0" type="line"/>
      <point x="134.93012443" y="1205.90704018" type="line"/>
      <point x="307.000037046" y="1187.43477558" type="line"/>
      <point x="307.000037046" y="99.8568275261" type="line"/>
      <point x="128.150695538" y="83.6206952286" type="line"/>
      <point x="128.150695538" y="0.0" type="line"/>
      <point x="659.879219977" y="0.0" type="line"/>
      <point x="659.879219977" y="83.6206952286" type="line"/>
      <point x="475.35445973" y="99.8568275261" type="line"/>
      <point x="475.35445973" y="609.008990898" type="line"/>
      <point x="1280.4000376" y="609.008990898" type="line"/>
      <point x="1280.4000376" y="388.758609543" type="line" smooth="yes"/>
      <point x="1280.4000376" y="124.236132298"/>
      <point x="1281.20964505" y="20.7083968925"/>
      <point x="1236.30785514" y="-61.6386770248" type="curve"/>
      <point x="1188.80006357" y="-154.708396893"/>
      <point x="1083.71483243" y="-214.787107658"/>
      <point x="960.403922894" y="-239.652926083" type="curve"/>
      <point x="1001.55207828" y="-314.801356716" type="line"/>
      <point x="1163.81128952" y="-286.203901443"/>
      <point x="1378.2287797" y="-183.559966259"/>
      <point x="1430.10898918" y="-22.3470739174" type="curve"/>
      <point x="1453.93648564" y="86.5044954491"/>
      <point x="1451.16147127" y="210.268363152"/>
    </contour>
  </outline>
</glyph>
<glyph name="enlefthook-cy.sc" format="1">
  <advance width="1733.30360238"/>
  <outline>
    <contour>
      <point x="501.662567853" y="478.0" type="curve" smooth="yes"/>
      <point x="501.662567853" y="609.008990898" type="line"/>
      <point x="1286.81146311" y="609.008990898" type="line"/>
      <point x="1286.81146311" y="101.77811676" type="line"/>
      <point x="1106.21751671" y="83.6206952286" type="line"/>
      <point x="1106.21751671" y="0.0" type="line"/>
      <point x="1629.6428094" y="0.0" type="line"/>
      <point x="1629.6428094" y="83.6206952286" type="line"/>
      <point x="1455.4602885" y="99.7781167603" type="line"/>
      <point x="1455.4602885" y="1187.43477558" type="line"/>
      <point x="1620.45636952" y="1205.90704018" type="line"/>
      <point x="1620.45636952" y="1292.0" type="line"/>
      <point x="1108.40372566" y="1292.0" type="line"/>
      <point x="1108.40372566" y="1205.90704018" type="line"/>
      <point x="1286.81146311" y="1187.27735405" type="line"/>
      <point x="1286.81146311" y="716.046479912" type="line"/>
      <point x="501.662567853" y="716.046479912" type="line"/>
      <point x="501.662567853" y="1187.43477558" type="line"/>
      <point x="683.853917792" y="1205.90704018" type="line"/>
      <point x="683.853917792" y="1292.0" type="line"/>
      <point x="161.0910312" y="1292.0" type="line"/>
      <point x="161.0910312" y="1205.90704018" type="line"/>
      <point x="333.087343138" y="1187.43477558" type="line"/>
      <point x="333.087343138" y="414.239865036" type="line" smooth="yes"/>
      <point x="333.087343138" y="195.828329411"/>
      <point x="334.044151938" y="89.087701664"/>
      <point x="291.549373015" y="-15.4490246391" type="curve" smooth="yes"/>
      <point x="248.634801383" y="-132.472264595"/>
      <point x="136.770141352" y="-209.763867702"/>
      <point x="12.5024230141" y="-237.763867702" type="curve"/>
      <point x="58.1701976617" y="-309.227141399" type="line"/>
      <point x="235.901884282" y="-278.203901443"/>
      <point x="428.80347696" y="-163.685156937"/>
      <point x="482.722694037" y="32.8980492783" type="curve"/>
      <point x="501.809769207" y="135.16641243"/>
      <point x="501.662567853" y="282.314843063"/>
    </contour>
  </outline>
</glyph>
<glyph name="entail-cy.sc" format="1">
  <advance width="1756.26970207"/>
  <outline>
    <contour>
      <point x="1659.51372798" y="0.0" type="curve"/>
      <point x="1659.51372798" y="100.092959824" type="line"/>
      <point x="1453.49488158" y="100.092959824" type="line"/>
      <point x="1453.49488158" y="1187.43477558" type="line"/>
      <point x="1624.97598878" y="1205.90704018" type="line"/>
      <point x="1624.97598878" y="1292.0" type="line"/>
      <point x="1106.80632213" y="1292.0" type="line"/>
      <point x="1106.80632213" y="1205.90704018" type="line"/>
      <point x="1282.80704859" y="1187.35606482" type="line"/>
      <point x="1282.80704859" y="715.967769146" type="line"/>
      <point x="475.280859053" y="715.967769146" type="line"/>
      <point x="475.280859053" y="1187.35606482" type="line"/>
      <point x="657.472208992" y="1205.90704018" type="line"/>
      <point x="657.472208992" y="1292.0" type="line"/>
      <point x="135.371728491" y="1292.0" type="line"/>
      <point x="135.371728491" y="1205.90704018" type="line"/>
      <point x="307.000037046" y="1187.35606482" type="line"/>
      <point x="307.000037046" y="99.8568275261" type="line"/>
      <point x="128.592299599" y="83.6994059944" type="line"/>
      <point x="128.592299599" y="0.0" type="line"/>
      <point x="659.8056193" y="0.0" type="line"/>
      <point x="659.8056193" y="83.6994059944" type="line"/>
      <point x="475.280859053" y="101.856827526" type="line"/>
      <point x="475.280859053" y="609.008990898" type="line"/>
      <point x="1282.80704859" y="609.008990898" type="line"/>
      <point x="1282.80704859" y="101.856827526" type="line"/>
      <point x="1104.39931114" y="83.6994059944" type="line"/>
      <point x="1104.39931114" y="0.0" type="line"/>
      <point x="1505.60953782" y="0.0" type="line"/>
      <point x="1472.89000419" y="-97.7960985565"/>
      <point x="1444.85910253" y="-216.676166039"/>
      <point x="1413.31717973" y="-323.384562931" type="curve"/>
      <point x="1532.48464001" y="-323.384562931" type="line"/>
      <point x="1537.42405198" y="-310.078710766"/>
      <point x="1655.89912819" y="-24.0607289696"/>
    </contour>
  </outline>
</glyph>
<glyph name="ereversed-cy.sc" format="1">
  <advance width="1469.1621337"/>
  <outline>
    <contour>
      <point x="775.930951972" y="1273.10195072" type="move" name="top"/>
    </contour>
    <contour>
      <point x="212.941262706" y="1240.0" type="curve"/>
      <point x="205.05782366" y="965.749618645" type="line"/>
      <point x="328.008896433" y="966.064461708" type="line"/>
      <point x="379.153099142" y="1130.89804928" type="line"/>
      <point x="433.241328926" y="1165.95352009"/>
      <point x="501.60261191" y="1212.69414783"/>
      <point x="677.404347694" y="1212.69414783" type="curve" smooth="yes"/>
      <point x="1001.61751234" y="1212.69414783"/>
      <point x="1150.30153255" y="980.94452919"/>
      <point x="1176.38883865" y="716.361322975" type="curve"/>
      <point x="457.333250124" y="732.046479912" type="line"/>
      <point x="457.333250124" y="593.953520088" type="line"/>
      <point x="1180.6140552" y="607.638677025" type="line"/>
      <point x="1176.38883865" y="268.898049278"/>
      <point x="971.135976986" y="76.6761660385"/>
      <point x="694.474226617" y="76.6761660385" type="curve" smooth="yes"/>
      <point x="512.975260741" y="76.6761660385"/>
      <point x="422.435674157" y="119.574215317"/>
      <point x="370.533653327" y="149.259372253" type="curve"/>
      <point x="282.20208705" y="318.454282799" type="line"/>
      <point x="175.017892368" y="299.398811989" type="line"/>
      <point x="226.058516429" y="45.3703138733" type="line"/>
      <point x="334.92736006" y="45.2128923416"/>
      <point x="436.059966" y="-20.0"/>
      <point x="661.092286894" y="-20.0" type="curve" smooth="yes"/>
      <point x="1084.43719447" y="-20.0"/>
      <point x="1378.98659782" y="244.425784683"/>
      <point x="1378.98659782" y="637.259372253" type="curve" smooth="yes"/>
      <point x="1378.98659782" y="1032.4722646"/>
      <point x="1125.23915782" y="1306.0"/>
      <point x="684.529968618" y="1306.0" type="curve" smooth="yes"/>
      <point x="419.578892493" y="1306.0"/>
      <point x="326.035322891" y="1244.15742153"/>
    </contour>
  </outline>
</glyph>
<glyph name="ertick-cy.sc" format="1">
  <advance width="1373.73492447"/>
  <outline>
    <contour>
      <point x="709.071660496" y="-144.0" type="move" name="mark0"/>
    </contour>
    <contour>
      <point x="391.755148127" y="1292.0" type="curve" smooth="yes"/>
      <point x="139.817747076" y="1292.0" type="line"/>
      <point x="139.817747076" y="1205.90704018" type="line"/>
      <point x="307.000037046" y="1187.35606482" type="line"/>
      <point x="307.000037046" y="99.8568275261" type="line"/>
      <point x="126.258889292" y="83.6206952286" type="line"/>
      <point x="126.258889292" y="0.0" type="line"/>
      <point x="767.150660069" y="0.0" type="line"/>
      <point x="767.150660069" y="83.6206952286" type="line"/>
      <point x="475.280859053" y="101.699405994" type="line"/>
      <point x="475.280859053" y="489.434775581" type="line"/>
      <point x="494.809538284" y="485.592197113"/>
      <point x="623.471485883" y="481.670907879"/>
      <point x="699.348204528" y="481.670907879" type="curve" smooth="yes"/>
      <point x="780.804929884" y="481.670907879"/>
      <point x="853.811222131" y="491.828329411"/>
      <point x="925.293711516" y="510.300594006" type="curve"/>
      <point x="1125.5635385" y="315.921289234" type="line"/>
      <point x="1207.75627063" y="367.652926083" type="line"/>
      <point x="1022.27470158" y="547.323833961" type="line"/>
      <point x="1182.82476401" y="618.032230854"/>
      <point x="1298.49484789" y="748.032230854"/>
      <point x="1298.49484789" y="933.796098557" type="curve" smooth="yes"/>
      <point x="1298.49484789" y="1167.7638677"/>
      <point x="1167.98471675" y="1303.68515694"/>
      <point x="757.882452897" y="1303.7638677" type="curve" smooth="yes"/>
      <point x="574.955096189" y="1303.92128923"/>
      <point x="530.317731018" y="1292.0"/>
    </contour>
    <contour>
      <point x="949.55464542" y="647.431042843" type="curve"/>
      <point x="792.346591421" y="795.731636848" type="line"/>
      <point x="707.820448989" y="744.0" type="line"/>
      <point x="853.634042806" y="596.787107658" type="line"/>
      <point x="800.355420467" y="581.212892342"/>
      <point x="749.925413175" y="574.504495449"/>
      <point x="704.603830559" y="574.504495449" type="curve" smooth="yes"/>
      <point x="611.090238928" y="574.504495449"/>
      <point x="520.624253022" y="576.740627747"/>
      <point x="475.35445973" y="582.583206215" type="curve"/>
      <point x="475.35445973" y="1202.85156937" type="line"/>
      <point x="534.035909452" y="1203.2451232"/>
      <point x="604.973216128" y="1212.85156937"/>
      <point x="707.08444222" y="1212.85156937" type="curve" smooth="yes"/>
      <point x="984.945614772" y="1212.85156937"/>
      <point x="1118.84137705" y="1136.14317247"/>
      <point x="1118.84137705" y="931.323833961" type="curve" smooth="yes"/>
      <point x="1118.84137705" y="786.912298336"/>
      <point x="1050.09027933" y="697.194910545"/>
    </contour>
  </outline>
</glyph>
<glyph name="esdescender-cy.sc" format="1">
  <advance width="1388.76579579"/>
  <outline>
    <contour>
      <point x="1243.49343201" y="46.0" type="curve"/>
      <point x="1294.73304675" y="292.565224419" type="line"/>
      <point x="1194.82167434" y="304.880067482" type="line"/>
      <point x="1110.14833056" y="136.754876804" type="line"/>
      <point x="1056.50170483" y="101.463273697"/>
      <point x="984.850202742" y="73.6994059944"/>
      <point x="808.606862897" y="73.6994059944" type="curve" smooth="yes"/>
      <point x="448.383945515" y="73.6994059944"/>
      <point x="283.439653823" y="350.504495449"/>
      <point x="283.439653823" y="665.212892342" type="curve" smooth="yes"/>
      <point x="283.439653823" y="1020.97676004"/>
      <point x="507.654200652" y="1214.37930477"/>
      <point x="795.048005113" y="1214.37930477" type="curve" smooth="yes"/>
      <point x="958.247691912" y="1214.37930477"/>
      <point x="1071.3853748" y="1188.85156937"/>
      <point x="1109.50773582" y="1163.55996626" type="curve"/>
      <point x="1155.91151723" y="945.656658821" type="line"/>
      <point x="1261.49830838" y="945.656658821" type="line"/>
      <point x="1278.32557392" y="1255.02323996" type="line"/>
      <point x="1204.80407693" y="1266.2361323"/>
      <point x="1020.00672533" y="1306.0"/>
      <point x="835.724578466" y="1306.0" type="curve" smooth="yes"/>
      <point x="415.552666617" y="1306.0"/>
      <point x="90.2491365535" y="1043.41679379"/>
      <point x="90.2491365535" y="648.347073917" type="curve" smooth="yes"/>
      <point x="90.2491365535" y="289.685156937"/>
      <point x="298.969396646" y="29.2593722534"/>
      <point x="701.894250248" y="-13.527735405" type="curve"/>
      <point x="707.716870341" y="-68.7406277466"/>
      <point x="735.254378618" y="-298.615437069"/>
      <point x="735.254378618" y="-323.935538292" type="curve"/>
      <point x="856.092843114" y="-323.935538292" type="line"/>
      <point x="888.245382683" y="-43.8530947876"/>
      <point x="877.218925884" y="-113.434775581"/>
      <point x="887.561165238" y="-13.527735405" type="curve"/>
      <point x="1076.25935271" y="-3.21289234161"/>
      <point x="1145.85003585" y="41.6851569366"/>
    </contour>
  </outline>
</glyph>
<glyph name="fita-cy.sc" format="1">
  <advance width="1537.79600804"/>
  <outline>
    <contour>
      <point x="754.319642435" y="-20.0" type="curve" smooth="yes"/>
      <point x="1139.85840305" y="-14.3148430634"/>
      <point x="1447.69407284" y="253.180661488"/>
      <point x="1447.69407284" y="660.94452919" type="curve" smooth="yes"/>
      <point x="1447.69407284" y="1050.4722646"/>
      <point x="1213.52710139" y="1308.07871077"/>
      <point x="790.255794496" y="1308.2361323" type="curve" smooth="yes"/>
      <point x="402.162821539" y="1308.31484306"/>
      <point x="92.2881441536" y="1048.2361323"/>
      <point x="92.2881441536" y="638.708396893" type="curve" smooth="yes"/>
      <point x="92.2881441536" y="248.078710766"/>
      <point x="330.606731477" y="-25.6851569366"/>
    </contour>
    <contour>
      <point x="765.471489235" y="71.1484306335" type="curve" smooth="yes"/>
      <point x="485.571309083" y="71.1484306335"/>
      <point x="308.665563146" y="256.268363152"/>
      <point x="281.621448254" y="564.440033741" type="curve"/>
      <point x="333.37626773" y="597.259372253"/>
      <point x="419.543436406" y="657.638677025"/>
      <point x="530.347708989" y="657.638677025" type="curve" smooth="yes"/>
      <point x="644.324977298" y="657.638677025"/>
      <point x="797.918431511" y="545.449024639"/>
      <point x="965.468724865" y="545.449024639" type="curve" smooth="yes"/>
      <point x="1096.53768345" y="545.449024639"/>
      <point x="1193.56229622" y="596.064461708"/>
      <point x="1256.32176114" y="649.230874138" type="curve"/>
      <point x="1254.87155895" y="280.976760044"/>
      <point x="1077.67141031" y="71.1484306335"/>
    </contour>
    <contour>
      <point x="278.993635239" y="671.241390457" type="curve"/>
      <point x="282.703647054" y="1038.70839689"/>
      <point x="485.350507053" y="1217.2451232"/>
      <point x="772.103716774" y="1217.2451232" type="curve" smooth="yes"/>
      <point x="1045.37166939" y="1217.2451232"/>
      <point x="1217.53699403" y="1046.7548768"/>
      <point x="1249.32153022" y="753.796098557" type="curve"/>
      <point x="1199.60571834" y="723.212892342"/>
      <point x="1110.58993462" y="663.148430634"/>
      <point x="999.932863389" y="663.148430634" type="curve" smooth="yes"/>
      <point x="874.509345573" y="663.148430634"/>
      <point x="727.842521606" y="775.416793785"/>
      <point x="562.625638559" y="775.416793785" type="curve" smooth="yes"/>
      <point x="438.188907514" y="775.416793785"/>
      <point x="346.199118746" y="728.329092121"/>
    </contour>
  </outline>
</glyph>
<glyph name="ge-cy.sc" format="1">
  <advance width="1211.93365053"/>
  <outline>
    <contour>
      <point x="758.125066281" y="1273.18066149" type="move" name="top"/>
    </contour>
    <contour>
      <point x="608.263435235" y="648.0" type="move" name="center"/>
    </contour>
    <contour>
      <point x="353.330217785" y="0.0" type="move" name="bottomright"/>
    </contour>
    <contour>
      <point x="82.6601002155" y="1292.0" type="line"/>
      <point x="82.6601002155" y="1207.82832941" type="line"/>
      <point x="305.653413509" y="1185.43477558" type="line"/>
      <point x="305.653413509" y="101.856827526" type="line"/>
      <point x="73.6208616925" y="83.6994059944" type="line"/>
      <point x="73.6208616925" y="0.0" type="line"/>
      <point x="858.088228009" y="0.0" type="line"/>
      <point x="858.088228009" y="83.6994059944" type="line"/>
      <point x="478.821858162" y="101.856827526" type="line"/>
      <point x="478.821858162" y="1203.82832941" type="line"/>
      <point x="991.166216221" y="1190.96251099" type="line"/>
      <point x="1044.27582585" y="837.467006435" type="line"/>
      <point x="1158.26126078" y="837.467006435" type="line"/>
      <point x="1151.13563986" y="1292.0" type="line"/>
    </contour>
  </outline>
</glyph>
<glyph name="gedescender-cy.sc" format="1">
  <advance width="1202.96801269"/>
  <outline>
    <contour>
      <point x="681.512340866" y="-144.0" type="move" name="mark0"/>
    </contour>
    <contour>
      <point x="907.929429886" y="101.856827526" type="curve"/>
      <point x="478.821858162" y="101.856827526" type="line"/>
      <point x="478.821858162" y="1203.82832941" type="line"/>
      <point x="991.166216221" y="1190.96251099" type="line"/>
      <point x="1043.83422179" y="837.467006435" type="line"/>
      <point x="1158.26126078" y="837.467006435" type="line"/>
      <point x="1151.13563986" y="1292.0" type="line"/>
      <point x="82.6601002155" y="1292.0" type="line"/>
      <point x="82.6601002155" y="1207.82832941" type="line"/>
      <point x="305.653413509" y="1185.43477558" type="line"/>
      <point x="305.653413509" y="101.856827526" type="line"/>
      <point x="73.6208616925" y="83.6994059944" type="line"/>
      <point x="73.6208616925" y="0.0" type="line"/>
      <point x="723.933519112" y="0.0" type="line"/>
      <point x="726.760322805" y="-22.6761660385"/>
      <point x="740.518171267" y="-275.967769146"/>
      <point x="740.518171267" y="-323.620695229" type="curve"/>
      <point x="850.940795732" y="-323.620695229" type="line"/>
      <point x="852.611799948" y="-315.495504551"/>
      <point x="907.929429886" y="69.1986432838"/>
    </contour>
  </outline>
</glyph>
<glyph name="gestrokehook-cy.sc" format="1">
  <advance width="1225.93411238"/>
  <outline>
    <contour>
      <point x="853.715810101" y="83.6994059944" type="curve"/>
      <point x="478.821858162" y="101.856827526" type="line"/>
      <point x="478.821858162" y="572.805089455" type="line"/>
      <point x="893.920801422" y="572.805089455" type="line"/>
      <point x="893.920801422" y="666.819338512" type="line"/>
      <point x="478.821858162" y="666.819338512" type="line"/>
      <point x="478.821858162" y="1203.82832941" type="line"/>
      <point x="991.166216221" y="1190.96251099" type="line"/>
      <point x="1044.27582585" y="837.467006435" type="line"/>
      <point x="1158.26126078" y="837.467006435" type="line"/>
      <point x="1151.13563986" y="1292.0" type="line"/>
      <point x="82.6601002155" y="1292.0" type="line"/>
      <point x="82.6601002155" y="1207.82832941" type="line"/>
      <point x="305.653413509" y="1185.43477558" type="line"/>
      <point x="305.653413509" y="666.819338512" type="line"/>
      <point x="103.712582308" y="666.819338512" type="line"/>
      <point x="103.712582308" y="572.805089455" type="line"/>
      <point x="305.653413509" y="572.805089455" type="line"/>
      <point x="305.653413509" y="101.856827526" type="line"/>
      <point x="73.6208616925" y="83.6994059944" type="line"/>
      <point x="73.6208616925" y="0.0" type="line"/>
      <point x="792.03037736" y="0.0" type="line"/>
      <point x="816.961883975" y="-54.5832062149"/>
      <point x="832.706950714" y="-109.874809322"/>
      <point x="832.706950714" y="-150.347073917" type="curve" smooth="yes"/>
      <point x="832.706950714" y="-256.504495449"/>
      <point x="775.423913852" y="-291.638677025"/>
      <point x="672.009686929" y="-291.638677025" type="curve" smooth="yes"/>
      <point x="656.706224252" y="-291.638677025"/>
      <point x="610.795836221" y="-287.638677025"/>
      <point x="575.301288221" y="-277.874809322" type="curve"/>
      <point x="572.967877913" y="-395.148430634" type="line"/>
      <point x="612.540441113" y="-407.227141399"/>
      <point x="673.31268776" y="-417.384562931"/>
      <point x="721.630086776" y="-417.384562931" type="curve" smooth="yes"/>
      <point x="876.75551047" y="-417.384562931"/>
      <point x="977.740915056" y="-351.699405994"/>
      <point x="977.740915056" y="-218.032230854" type="curve" smooth="yes"/>
      <point x="977.740915056" y="-125.449024639"/>
      <point x="903.461599949" y="-10.0"/>
    </contour>
  </outline>
</glyph>
<glyph name="ghemiddlehook-cy.sc" format="1">
  <advance width="1426.85270072"/>
  <outline>
    <contour>
      <point x="529.200076131" y="672.708396893" type="curve"/>
      <point x="529.200076131" y="1203.90704018" type="line"/>
      <point x="1041.10283013" y="1187.43477558" type="line"/>
      <point x="1094.87484585" y="947.323833961" type="line"/>
      <point x="1208.86028078" y="947.323833961" type="line"/>
      <point x="1198.66524278" y="1292.0" type="line"/>
      <point x="133.038318184" y="1292.0" type="line"/>
      <point x="133.038318184" y="1207.82832941" type="line"/>
      <point x="356.178832831" y="1185.43477558" type="line"/>
      <point x="356.178832831" y="101.856827526" type="line"/>
      <point x="124.072680338" y="83.6206952286" type="line"/>
      <point x="124.072680338" y="0.0" type="line"/>
      <point x="783.882513579" y="0.0" type="line"/>
      <point x="783.882513579" y="83.6206952286" type="line"/>
      <point x="529.200076131" y="101.856827526" type="line"/>
      <point x="529.200076131" y="581.828329411" type="line"/>
      <point x="639.783546683" y="619.198643284"/>
      <point x="736.491945391" y="636.143172474"/>
      <point x="848.209404069" y="636.143172474" type="curve" smooth="yes"/>
      <point x="1092.96122825" y="636.143172474"/>
      <point x="1170.14094773" y="519.796098557"/>
      <point x="1170.14094773" y="282.772858601" type="curve" smooth="yes"/>
      <point x="1170.14094773" y="-57.4490246391"/>
      <point x="1080.13837724" y="-243.008990898"/>
      <point x="849.092612191" y="-243.008990898" type="curve" smooth="yes"/>
      <point x="811.676279974" y="-243.008990898"/>
      <point x="776.476134681" y="-238.300594006"/>
      <point x="759.354466435" y="-235.907040176" type="curve"/>
      <point x="760.657467266" y="-329.921289234" type="line"/>
      <point x="786.450370651" y="-340.0"/>
      <point x="842.555796683" y="-347.180661488"/>
      <point x="873.266300685" y="-347.180661488" type="curve" smooth="yes"/>
      <point x="1183.68616078" y="-347.180661488"/>
      <point x="1340.38717666" y="-70.1716705894"/>
      <point x="1340.38717666" y="301.05547081" type="curve" smooth="yes"/>
      <point x="1340.38717666" y="566.61170433"/>
      <point x="1274.29934804" y="742.708396893"/>
      <point x="886.72974644" y="742.708396893" type="curve" smooth="yes"/>
      <point x="807.753632746" y="742.708396893"/>
      <point x="616.302242253" y="715.291603107"/>
    </contour>
  </outline>
</glyph>
<glyph name="ghestroke-cy.sc" format="1">
  <advance width="1225.93411238"/>
  <outline>
    <contour>
      <point x="82.6601002155" y="1292.0" type="line"/>
      <point x="82.6601002155" y="1207.82832941" type="line"/>
      <point x="305.653413509" y="1185.43477558" type="line"/>
      <point x="305.653413509" y="666.819338512" type="line"/>
      <point x="103.712582308" y="666.819338512" type="line"/>
      <point x="103.712582308" y="572.805089455" type="line"/>
      <point x="305.653413509" y="572.805089455" type="line"/>
      <point x="305.653413509" y="101.856827526" type="line"/>
      <point x="73.6208616925" y="83.6994059944" type="line"/>
      <point x="73.6208616925" y="0.0" type="line"/>
      <point x="858.088228009" y="0.0" type="line"/>
      <point x="858.088228009" y="83.6994059944" type="line"/>
      <point x="478.821858162" y="101.856827526" type="line"/>
      <point x="478.821858162" y="572.805089455" type="line"/>
      <point x="893.920801422" y="572.805089455" type="line"/>
      <point x="893.920801422" y="666.819338512" type="line"/>
      <point x="478.821858162" y="666.819338512" type="line"/>
      <point x="478.821858162" y="1203.82832941" type="line"/>
      <point x="991.166216221" y="1190.96251099" type="line"/>
      <point x="1044.27582585" y="837.467006435" type="line"/>
      <point x="1158.26126078" y="837.467006435" type="line"/>
      <point x="1151.13563986" y="1292.0" type="line"/>
    </contour>
  </outline>
</glyph>
<glyph name="gheupturn-cy.sc" format="1">
  <advance width="1217.43188995"/>
  <outline>
    <contour>
      <point x="705.214447327" y="-144.0" type="move" name="mark0"/>
    </contour>
    <contour>
      <point x="1040.29322268" y="1598.0" type="line"/>
      <point x="985.218206127" y="1292.0" type="line"/>
      <point x="103.439990954" y="1292.0" type="line"/>
      <point x="103.439990954" y="1207.74961864" type="line"/>
      <point x="336.355750893" y="1185.59219711" type="line"/>
      <point x="336.355750893" y="101.77811676" type="line"/>
      <point x="98.920371692" y="83.7781167603" type="line"/>
      <point x="98.920371692" y="0.0" type="line"/>
      <point x="884.123744777" y="0.0" type="line"/>
      <point x="884.123744777" y="83.7781167603" type="line"/>
      <point x="509.376994192" y="101.77811676" type="line"/>
      <point x="509.376994192" y="1201.43477558" type="line"/>
      <point x="1143.44302487" y="1192.96251099" type="line"/>
      <point x="1163.26610681" y="1598.0" type="line"/>
    </contour>
  </outline>
</glyph>
<glyph name="haabkhasian-cy.sc" format="1">
  <advance width="1751.51563605"/>
  <outline>
    <contour>
      <point x="892.794979916" y="1205.2451232" type="curve"/>
      <point x="910.063849516" y="1299.92128923" type="line"/>
      <point x="875.231707608" y="1303.92128923"/>
      <point x="812.567654715" y="1308.2361323"/>
      <point x="773.58389693" y="1308.2361323" type="curve" smooth="yes"/>
      <point x="438.592366986" y="1308.2361323"/>
      <point x="92.4353455073" y="1076.0"/>
      <point x="92.4353455073" y="634.0" type="curve" smooth="yes"/>
      <point x="92.4353455073" y="264.0"/>
      <point x="334.758347354" y="-20.0"/>
      <point x="785.346360498" y="-20.0" type="curve" smooth="yes"/>
      <point x="893.699999391" y="-20.0"/>
      <point x="1001.24403084" y="1.92128923416"/>
      <point x="1090.58419524" y="47.4490246391" type="curve"/>
      <point x="1181.30096115" y="9.21289234161"/>
      <point x="1296.2132269" y="-20.0"/>
      <point x="1436.13059995" y="-20.0" type="curve" smooth="yes"/>
      <point x="1539.74381755" y="-20.0"/>
      <point x="1637.90241844" y="1.92128923416"/>
      <point x="1715.86993401" y="50.0" type="curve"/>
      <point x="1672.21935561" y="113.227141399" type="line"/>
      <point x="1617.93213515" y="81.2271413994"/>
      <point x="1539.22861281" y="71.1484306335"/>
      <point x="1467.23091869" y="71.1484306335" type="curve" smooth="yes"/>
      <point x="1374.37973315" y="71.1484306335"/>
      <point x="1283.64115589" y="86.440033741"/>
      <point x="1222.72170789" y="113.731636848" type="curve"/>
      <point x="1344.33980186" y="176.361322975"/>
      <point x="1552.76565924" y="348.0"/>
      <point x="1552.76565924" y="602.0" type="curve" smooth="yes"/>
      <point x="1552.76565924" y="958.708396893"/>
      <point x="1340.23180869" y="1054.0"/>
      <point x="1120.60231518" y="1054.0" type="curve" smooth="yes"/>
      <point x="901.488026407" y="1054.0"/>
      <point x="685.295953359" y="938.0"/>
      <point x="685.295953359" y="580.819338512" type="curve" smooth="yes"/>
      <point x="685.295953359" y="368.11094162"/>
      <point x="842.283205328" y="165.731636848"/>
      <point x="1000.77244881" y="97.7316368484" type="curve"/>
      <point x="901.561627084" y="71.3845629311"/>
      <point x="846.023195115" y="71.1484306335"/>
      <point x="804.411624315" y="71.1484306335" type="curve" smooth="yes"/>
      <point x="530.009683576" y="71.1484306335"/>
      <point x="280.3920481" y="251.796098557"/>
      <point x="280.3920481" y="636.0" type="curve" smooth="yes"/>
      <point x="280.3920481" y="1064.70839689"/>
      <point x="508.052182008" y="1216.85156937"/>
      <point x="766.561854654" y="1216.85156937" type="curve" smooth="yes"/>
      <point x="806.281619208" y="1216.85156937"/>
      <point x="852.854413331" y="1212.85156937"/>
    </contour>
    <contour>
      <point x="1118.34250555" y="974.143172474" type="curve" smooth="yes"/>
      <point x="1289.91902478" y="974.143172474"/>
      <point x="1366.97335425" y="844.583206215"/>
      <point x="1366.97335425" y="600.0" type="curve" smooth="yes"/>
      <point x="1366.97335425" y="374.472264595"/>
      <point x="1265.13471952" y="222.676166039"/>
      <point x="1135.39057312" y="160.329092121" type="curve"/>
      <point x="994.074787209" y="239.620695229"/>
      <point x="867.967051949" y="405.259372253"/>
      <point x="867.967051949" y="589.495504551" type="curve" smooth="yes"/>
      <point x="867.967051949" y="845.198643284"/>
      <point x="967.693078409" y="974.143172474"/>
    </contour>
  </outline>
</glyph>
<glyph name="hadescender-cy.sc" format="1">
  <advance width="1513.21069346"/>
  <outline>
    <contour>
      <point x="758.250456282" y="-144.0" type="move" name="mark0"/>
    </contour>
    <contour>
      <point x="1539.29404687" y="101.856827526" type="curve"/>
      <point x="1325.61256346" y="101.856827526" type="line"/>
      <point x="849.5124049" y="675.967769146" type="line"/>
      <point x="1287.43841312" y="1185.43477558" type="line"/>
      <point x="1453.22229022" y="1205.90704018" type="line"/>
      <point x="1453.22229022" y="1292.0" type="line"/>
      <point x="954.000664005" y="1292.0" type="line"/>
      <point x="954.000664005" y="1205.90704018" type="line"/>
      <point x="1142.89784216" y="1187.35606482" type="line"/>
      <point x="792.324780068" y="740.643935184" type="line"/>
      <point x="438.535099546" y="1185.35606482" type="line"/>
      <point x="654.130200561" y="1205.90704018" type="line"/>
      <point x="654.130200561" y="1292.0" type="line"/>
      <point x="68.8286510762" y="1292.0" type="line"/>
      <point x="68.8286510762" y="1205.90704018" type="line"/>
      <point x="230.041119599" y="1185.43477558" type="line"/>
      <point x="673.053741139" y="647.087701664" type="line"/>
      <point x="212.014431878" y="99.8568275261" type="line"/>
      <point x="29.8966826154" y="83.6206952286" type="line"/>
      <point x="29.8966826154" y="0.0" type="line"/>
      <point x="581.020329665" y="0.0" type="line"/>
      <point x="581.020329665" y="83.6206952286" type="line"/>
      <point x="365.29983865" y="99.8568275261" type="line"/>
      <point x="734.466582525" y="580.175403328" type="line"/>
      <point x="1116.97138215" y="101.856827526" type="line"/>
      <point x="910.783523047" y="83.6206952286" type="line"/>
      <point x="910.783523047" y="0.0" type="line"/>
      <point x="1355.22453542" y="0.0" type="line"/>
      <point x="1355.79152948" y="-15.1484306335"/>
      <point x="1369.62297862" y="-272.991009102"/>
      <point x="1371.88278825" y="-317.935538292" type="curve"/>
      <point x="1482.30541272" y="-317.935538292" type="line"/>
      <point x="1486.23622656" y="-306.597455273"/>
      <point x="1539.29404687" y="78.5689571571"/>
    </contour>
  </outline>
</glyph>
<glyph name="hahook-cy.sc" format="1">
  <advance width="1515.34511309"/>
  <outline>
    <contour>
      <point x="852.854413331" y="691.227141399" type="curve"/>
      <point x="1287.43841312" y="1185.43477558" type="line"/>
      <point x="1453.22229022" y="1205.90704018" type="line"/>
      <point x="1453.22229022" y="1292.0" type="line"/>
      <point x="954.000664005" y="1292.0" type="line"/>
      <point x="954.000664005" y="1205.90704018" type="line"/>
      <point x="1142.89784216" y="1187.35606482" type="line"/>
      <point x="796.329194591" y="755.588464375" type="line"/>
      <point x="438.535099546" y="1185.35606482" type="line"/>
      <point x="654.130200561" y="1205.90704018" type="line"/>
      <point x="654.130200561" y="1292.0" type="line"/>
      <point x="68.8286510762" y="1292.0" type="line"/>
      <point x="68.8286510762" y="1205.90704018" type="line"/>
      <point x="230.041119599" y="1185.43477558" type="line"/>
      <point x="676.984554986" y="660.11094162" type="line"/>
      <point x="212.014431878" y="99.8568275261" type="line"/>
      <point x="29.8966826154" y="83.6206952286" type="line"/>
      <point x="29.8966826154" y="0.0" type="line"/>
      <point x="581.020329665" y="0.0" type="line"/>
      <point x="581.020329665" y="83.6206952286" type="line"/>
      <point x="365.29983865" y="99.8568275261" type="line"/>
      <point x="737.882191633" y="593.434775581" type="line"/>
      <point x="1089.01408117" y="219.760134964"/>
      <point x="1151.90710271" y="78.5652244186"/>
      <point x="1151.90710271" y="-38.3148430634" type="curve" smooth="yes"/>
      <point x="1151.90710271" y="-133.449024639"/>
      <point x="1090.37703794" y="-203.921289234"/>
      <point x="911.822099143" y="-255.495504551" type="curve"/>
      <point x="953.610849268" y="-345.259372253" type="line"/>
      <point x="1255.27770693" y="-269.88905838"/>
      <point x="1317.80272509" y="-122.708396893"/>
      <point x="1317.80272509" y="16.5652244186" type="curve" smooth="yes"/>
      <point x="1317.80272509" y="187.524002666"/>
      <point x="1152.6512761" y="381.223408661"/>
    </contour>
  </outline>
</glyph>
<glyph name="hardsign-cy.sc" format="1">
  <advance width="1724.44154318"/>
  <outline>
    <contour>
      <point x="778.155305516" y="-144.0" type="move" name="mark0"/>
    </contour>
    <contour>
      <point x="1112.42447343" y="782.11094162" type="curve" smooth="yes"/>
      <point x="838.191545393" y="782.11094162" type="line"/>
      <point x="838.191545393" y="1187.35606482" type="line"/>
      <point x="1027.70750693" y="1208.30059401" type="line"/>
      <point x="1027.70750693" y="1292.0" type="line"/>
      <point x="123.042270861" y="1292.0" type="line"/>
      <point x="97.470169507" y="855.026972694" type="line"/>
      <point x="216.048824372" y="855.026972694" type="line"/>
      <point x="271.418243635" y="1187.43477558" type="line"/>
      <point x="665.096701417" y="1203.90704018" type="line"/>
      <point x="665.096701417" y="101.856827526" type="line"/>
      <point x="391.768792861" y="83.6994059944" type="line"/>
      <point x="391.768792861" y="0.0" type="line"/>
      <point x="758.891051021" y="0.0" type="line" smooth="yes"/>
      <point x="846.339409175" y="0.0"/>
      <point x="1034.36154583" y="-14.0"/>
      <point x="1084.64435176" y="-14.0" type="curve" smooth="yes"/>
      <point x="1411.54528537" y="-14.0"/>
      <point x="1637.97601912" y="130.550975361"/>
      <point x="1637.97601912" y="405.291603107" type="curve" smooth="yes"/>
      <point x="1637.97601912" y="642.583206215"/>
      <point x="1453.15685617" y="782.11094162"/>
    </contour>
    <contour>
      <point x="838.191545393" y="91.4632736969" type="curve"/>
      <point x="838.191545393" y="682.568957157" type="line"/>
      <point x="1070.12051856" y="682.568957157" type="line" smooth="yes"/>
      <point x="1316.04995358" y="682.568957157"/>
      <point x="1460.9503613" y="589.874809322"/>
      <point x="1460.9503613" y="392.347073917" type="curve" smooth="yes"/>
      <point x="1460.9503613" y="192.171670589"/>
      <point x="1316.17534358" y="75.6206952286"/>
      <point x="1069.03831976" y="75.6206952286" type="curve" smooth="yes"/>
      <point x="940.081969455" y="75.6206952286"/>
      <point x="891.764570439" y="83.3845629311"/>
    </contour>
  </outline>
</glyph>
<glyph name="hastroke-cy.sc" format="1">
  <advance width="1515.34511309"/>
  <outline>
    <contour>
      <point x="1204.61325287" y="706.94452919" type="line"/>
      <point x="341.066194213" y="706.94452919" type="line"/>
      <point x="341.066194213" y="612.694147835" type="line"/>
      <point x="1204.61325287" y="612.694147835" type="line"/>
    </contour>
    <contour>
      <point x="212.235233908" y="99.8568275261" type="line"/>
      <point x="30.117484646" y="83.6206952286" type="line"/>
      <point x="30.117484646" y="0.0" type="line"/>
      <point x="581.241131696" y="0.0" type="line"/>
      <point x="581.241131696" y="83.6206952286" type="line"/>
      <point x="365.52064068" y="99.8568275261" type="line"/>
      <point x="734.687384556" y="580.175403328" type="line"/>
      <point x="1117.19218419" y="101.856827526" type="line"/>
      <point x="911.004325078" y="83.6206952286" type="line"/>
      <point x="911.004325078" y="0.0" type="line"/>
      <point x="1494.04606493" y="0.0" type="line"/>
      <point x="1494.04606493" y="83.6206952286" type="line"/>
      <point x="1325.75976481" y="101.856827526" type="line"/>
      <point x="849.733206931" y="675.967769146" type="line"/>
      <point x="1287.65921515" y="1185.43477558" type="line"/>
      <point x="1453.44309226" y="1205.90704018" type="line"/>
      <point x="1453.44309226" y="1292.0" type="line"/>
      <point x="954.221466036" y="1292.0" type="line"/>
      <point x="954.221466036" y="1205.90704018" type="line"/>
      <point x="1143.11864419" y="1187.35606482" type="line"/>
      <point x="792.545582099" y="740.643935184" type="line"/>
      <point x="438.755901577" y="1185.35606482" type="line"/>
      <point x="654.277401915" y="1205.90704018" type="line"/>
      <point x="654.277401915" y="1292.0" type="line"/>
      <point x="69.0494531069" y="1292.0" type="line"/>
      <point x="69.0494531069" y="1205.90704018" type="line"/>
      <point x="230.26192163" y="1185.43477558" type="line"/>
      <point x="673.27454317" y="647.087701664" type="line"/>
    </contour>
  </outline>
</glyph>
<glyph name="ia-cy.sc" format="1">
  <advance width="1481.27895592"/>
  <outline>
    <contour>
      <point x="1005.92449619" y="566.032230854" type="curve"/>
      <point x="1005.92449619" y="99.8568275261" type="line"/>
      <point x="798.875240311" y="83.6994059944" type="line"/>
      <point x="798.875240311" y="0.0" type="line"/>
      <point x="1377.61816293" y="0.0" type="line"/>
      <point x="1377.61816293" y="83.6994059944" type="line"/>
      <point x="1174.42612023" y="99.8568275261" type="line"/>
      <point x="1174.42612023" y="1187.35606482" type="line"/>
      <point x="1359.68688724" y="1205.90704018" type="line"/>
      <point x="1359.68688724" y="1292.0" type="line"/>
      <point x="1067.78710825" y="1292.0" type="line" smooth="yes"/>
      <point x="964.836296745" y="1292.0"/>
      <point x="878.911741452" y="1305.7638677"/>
      <point x="780.20795785" y="1305.7638677" type="curve" smooth="yes"/>
      <point x="479.90136846" y="1305.7638677"/>
      <point x="206.854217877" y="1239.19864328"/>
      <point x="206.854217877" y="937.180661488" type="curve" smooth="yes"/>
      <point x="206.854217877" y="756.092959824"/>
      <point x="332.866541108" y="629.416793785"/>
      <point x="510.295658402" y="587.416793785" type="curve"/>
      <point x="365.850499475" y="509.731636848"/>
      <point x="189.048332186" y="120.329092121"/>
      <point x="86.517313385" y="101.699405994" type="curve"/>
      <point x="2.70536636956" y="83.6994059944" type="line"/>
      <point x="2.70536636956" y="0.0" type="line"/>
      <point x="238.412473915" y="0.0" type="line" smooth="yes"/>
      <point x="346.935125515" y="0.0"/>
      <point x="516.862451882" y="478.0"/>
      <point x="667.931671729" y="566.11094162" type="curve"/>
      <point x="779.354727699" y="565.874809322"/>
      <point x="894.678619543" y="565.874809322"/>
    </contour>
    <contour>
      <point x="1005.92449619" y="1201.40254473" type="curve"/>
      <point x="1005.92449619" y="664.550975361" type="line"/>
      <point x="965.468724865" y="660.314843063"/>
      <point x="878.881763481" y="658.472264595"/>
      <point x="751.228414006" y="658.472264595" type="curve" smooth="yes"/>
      <point x="517.334033915" y="658.472264595"/>
      <point x="380.957659977" y="761.212892342"/>
      <point x="380.957659977" y="951.685156937" type="curve" smooth="yes"/>
      <point x="380.957659977" y="1159.08770166"/>
      <point x="532.858298622" y="1213.0089909"/>
      <point x="751.449216037" y="1213.0089909" type="curve" smooth="yes"/>
      <point x="888.561596743" y="1213.0089909"/>
      <point x="935.428793574" y="1203.55996626"/>
    </contour>
  </outline>
</glyph>
<glyph name="ii-cy.sc" format="1">
  <advance width="1790.80744127"/>
  <outline>
    <contour>
      <point x="916.540709082" y="1273.18066149" type="move" name="top"/>
    </contour>
    <contour>
      <point x="1520.4577517" y="0.0" type="move" name="bottomright"/>
    </contour>
    <contour>
      <point x="137.410736092" y="1292.0" type="line"/>
      <point x="137.410736092" y="1205.90704018" type="line"/>
      <point x="309.554249384" y="1187.43477558" type="line"/>
      <point x="309.554249384" y="99.7781167603" type="line"/>
      <point x="128.224296215" y="83.6206952286" type="line"/>
      <point x="128.224296215" y="0.0" type="line"/>
      <point x="676.581095515" y="0.0" type="line"/>
      <point x="676.581095515" y="83.6206952286" type="line"/>
      <point x="473.389052807" y="101.77811676" type="line"/>
      <point x="473.389052807" y="164.203901443" type="line"/>
      <point x="1142.55165013" y="794.99474184" type="line"/>
      <point x="1317.6391905" y="992.712129631" type="line"/>
      <point x="1317.6391905" y="101.856827526" type="line"/>
      <point x="1125.30459188" y="83.6206952286" type="line"/>
      <point x="1125.30459188" y="0.0" type="line"/>
      <point x="1669.87777869" y="0.0" type="line"/>
      <point x="1669.87777869" y="83.6206952286" type="line"/>
      <point x="1483.95460558" y="101.856827526" type="line"/>
      <point x="1483.95460558" y="1187.35606482" type="line"/>
      <point x="1656.0245182" y="1205.90704018" type="line"/>
      <point x="1656.0245182" y="1292.0" type="line"/>
      <point x="1125.30459188" y="1292.0" type="line"/>
      <point x="1125.30459188" y="1205.90704018" type="line"/>
      <point x="1317.6391905" y="1187.35606482" type="line"/>
      <point x="1317.6391905" y="1138.5367263" type="line"/>
      <point x="668.520477144" y="516.72264595" type="line"/>
      <point x="473.389052807" y="308.185919647" type="line"/>
      <point x="473.389052807" y="1187.27735405" type="line"/>
      <point x="688.248147053" y="1207.90704018" type="line"/>
      <point x="688.248147053" y="1292.0" type="line"/>
    </contour>
  </outline>
</glyph>
<glyph name="iishorttail-cy.sc" format="1">
  <advance width="1793.14085158"/>
  <outline>
    <contour>
      <point x="1488.54782552" y="0.0" type="move" name="bottomright"/>
    </contour>
    <contour>
      <point x="1700.77910675" y="0.0" type="curve"/>
      <point x="1700.77910675" y="99.7781167603" type="line"/>
      <point x="1454.15728767" y="99.7781167603" type="line"/>
      <point x="1455.67292391" y="0.0" type="line"/>
      <point x="1547.39012133" y="0.0" type="line"/>
      <point x="1537.19508333" y="-47.8890583801"/>
      <point x="1461.68636807" y="-293.434775581"/>
      <point x="1458.51337234" y="-323.935538292" type="curve"/>
      <point x="1580.45584699" y="-323.935538292" type="line"/>
      <point x="1586.9926625" y="-301.101950722"/>
      <point x="1699.93952133" y="-19.0839689255"/>
    </contour>
    <contour>
      <point x="647.762397759" y="1855.68515694" type="curve" smooth="yes"/>
      <point x="523.655525508" y="1855.68515694" type="line"/>
      <point x="523.655525508" y="1843.21289234"/>
      <point x="521.469316554" y="1830.74062775"/>
      <point x="521.469316554" y="1820.11094162" type="curve" smooth="yes"/>
      <point x="521.469316554" y="1613.79609856"/>
      <point x="660.923274187" y="1462.34707392"/>
      <point x="919.757327512" y="1462.34707392" type="curve" smooth="yes"/>
      <point x="1182.44859401" y="1462.34707392"/>
      <point x="1313.45211853" y="1611.87480932"/>
      <point x="1313.45211853" y="1820.11094162" type="curve" smooth="yes"/>
      <point x="1313.45211853" y="1830.26836315"/>
      <point x="1311.11870822" y="1843.68515694"/>
      <point x="1311.26590958" y="1855.68515694" type="curve"/>
      <point x="1187.15903733" y="1855.68515694" type="line" smooth="yes"/>
      <point x="1158.95912296" y="1855.68515694"/>
      <point x="1154.66030573" y="1819.79609856"/>
      <point x="1154.66030573" y="1785.55996626" type="curve" smooth="yes"/>
      <point x="1154.66030573" y="1680.11094162"/>
      <point x="1102.33849219" y="1560.55097536"/>
      <point x="921.943536466" y="1560.55097536" type="curve" smooth="yes"/>
      <point x="737.176162836" y="1560.55097536"/>
      <point x="680.334730036" y="1680.11094162"/>
      <point x="680.334730036" y="1785.55996626" type="curve" smooth="yes"/>
      <point x="680.334730036" y="1819.79609856"/>
      <point x="675.962312128" y="1855.68515694"/>
    </contour>
    <contour>
      <point x="137.410736092" y="1292.0" type="line"/>
      <point x="137.410736092" y="1205.90704018" type="line"/>
      <point x="309.554249384" y="1187.43477558" type="line"/>
      <point x="309.554249384" y="99.7781167603" type="line"/>
      <point x="128.224296215" y="83.6206952286" type="line"/>
      <point x="128.224296215" y="0.0" type="line"/>
      <point x="676.581095515" y="0.0" type="line"/>
      <point x="676.581095515" y="83.6206952286" type="line"/>
      <point x="473.389052807" y="101.77811676" type="line"/>
      <point x="473.389052807" y="164.203901443" type="line"/>
      <point x="1142.55165013" y="794.99474184" type="line"/>
      <point x="1317.6391905" y="992.712129631" type="line"/>
      <point x="1317.6391905" y="101.856827526" type="line"/>
      <point x="1125.30459188" y="83.6206952286" type="line"/>
      <point x="1125.30459188" y="0.0" type="line"/>
      <point x="1669.87777869" y="0.0" type="line"/>
      <point x="1669.87777869" y="83.6206952286" type="line"/>
      <point x="1483.95460558" y="101.856827526" type="line"/>
      <point x="1483.95460558" y="1187.35606482" type="line"/>
      <point x="1656.0245182" y="1205.90704018" type="line"/>
      <point x="1656.0245182" y="1292.0" type="line"/>
      <point x="1125.30459188" y="1292.0" type="line"/>
      <point x="1125.30459188" y="1205.90704018" type="line"/>
      <point x="1317.6391905" y="1187.35606482" type="line"/>
      <point x="1317.6391905" y="1138.5367263" type="line"/>
      <point x="668.520477144" y="516.72264595" type="line"/>
      <point x="473.389052807" y="308.185919647" type="line"/>
      <point x="473.389052807" y="1187.27735405" type="line"/>
      <point x="688.248147053" y="1207.90704018" type="line"/>
      <point x="688.248147053" y="1292.0" type="line"/>
    </contour>
  </outline>
</glyph>
<glyph name="iu-cy.sc" format="1">
  <advance width="2250.876297"/>
  <outline>
    <contour>
      <point x="839.118376222" y="715.88905838" type="curve"/>
      <point x="470.687639115" y="715.88905838" type="line"/>
      <point x="470.687639115" y="1187.35606482" type="line"/>
      <point x="648.506571146" y="1205.90704018" type="line"/>
      <point x="648.506571146" y="1292.0" type="line"/>
      <point x="135.371728491" y="1292.0" type="line"/>
      <point x="135.371728491" y="1205.90704018" type="line"/>
      <point x="307.000037046" y="1187.35606482" type="line"/>
      <point x="307.000037046" y="101.856827526" type="line"/>
      <point x="128.592299599" y="83.6206952286" type="line"/>
      <point x="128.592299599" y="0.0" type="line"/>
      <point x="657.472208992" y="0.0" type="line"/>
      <point x="657.472208992" y="83.6206952286" type="line"/>
      <point x="472.947448746" y="101.856827526" type="line"/>
      <point x="472.947448746" y="614.615437069" type="line"/>
      <point x="832.265346652" y="614.615437069" type="line"/>
      <point x="828.901526868" y="235.874809322"/>
      <point x="1078.51916235" y="-16.0787107658"/>
      <point x="1490.21882973" y="-16.0787107658" type="curve" smooth="yes"/>
      <point x="1848.78707614" y="-16.0787107658"/>
      <point x="2147.50990672" y="237.416793785"/>
      <point x="2156.6963466" y="660.787107658" type="curve" smooth="yes"/>
      <point x="2165.88278648" y="1041.65292608"/>
      <point x="1920.04876349" y="1308.07871077"/>
      <point x="1521.70896321" y="1308.2361323" type="curve" smooth="yes"/>
      <point x="1193.37963878" y="1308.31484306"/>
      <point x="882.989756653" y="1090.31484306"/>
    </contour>
    <contour>
      <point x="1508.37090746" y="1213.55996626" type="curve" smooth="yes"/>
      <point x="1808.83017632" y="1213.55996626"/>
      <point x="1974.51047478" y="989.824596672"/>
      <point x="1974.51047478" y="660.708396893" type="curve" smooth="yes"/>
      <point x="1974.51047478" y="270.754876804"/>
      <point x="1789.57408844" y="80.440033741"/>
      <point x="1503.55688549" y="80.440033741" type="curve" smooth="yes"/>
      <point x="1187.20534854" y="80.440033741"/>
      <point x="1014.74562118" y="309.434775581"/>
      <point x="1014.74562118" y="635.023239956" type="curve" smooth="yes"/>
      <point x="1014.74562118" y="1036.11094162"/>
      <point x="1229.20673407" y="1213.55996626"/>
    </contour>
  </outline>
</glyph>
<glyph name="izhitsa-cy.sc" format="1">
  <advance width="1525.34932703"/>
  <outline>
    <contour>
      <point x="1134.13119499" y="1080.0" type="curve"/>
      <point x="850.616415053" y="376.046479912" type="line"/>
      <point x="774.077290315" y="155.287870369" type="line"/>
      <point x="688.646128409" y="378.046479912" type="line"/>
      <point x="338.809073086" y="1187.27735405" type="line"/>
      <point x="523.333833333" y="1205.90704018" type="line"/>
      <point x="523.333833333" y="1292.0" type="line"/>
      <point x="31.8620895386" y="1292.0" type="line"/>
      <point x="31.8620895386" y="1205.90704018" type="line"/>
      <point x="158.662208862" y="1187.27735405" type="line"/>
      <point x="688.460782465" y="-13.8425784683" type="line"/>
      <point x="822.004874594" y="-13.8425784683" type="line"/>
      <point x="1235.07297687" y="969.119932518" type="line"/>
      <point x="1289.72820072" y="1146.64766792"/>
      <point x="1395.99104269" y="1175.48125549"/>
      <point x="1483.85919355" y="1175.48125549" type="curve" smooth="yes"/>
      <point x="1495.37904373" y="1175.48125549"/>
      <point x="1504.41828226" y="1175.48125549"/>
      <point x="1504.41828226" y="1175.48125549" type="curve"/>
      <point x="1504.41828226" y="1284.31484306" type="line"/>
      <point x="1494.22324426" y="1288.62968613"/>
      <point x="1474.56917503" y="1296.94452919"/>
      <point x="1418.77996305" y="1296.94452919" type="curve" smooth="yes"/>
      <point x="1319.53916336" y="1296.94452919"/>
      <point x="1182.96379875" y="1246.15742153"/>
    </contour>
  </outline>
</glyph>
<glyph name="ka-cy.sc" format="1">
  <advance width="1481.20535524"/>
  <outline>
    <contour>
      <point x="741.769382774" y="1273.18066149" type="move" name="top"/>
    </contour>
    <contour>
      <point x="741.769382774" y="648.0" type="move" name="center"/>
    </contour>
    <contour>
      <point x="1425.29496721" y="0.0" type="move" name="bottomright"/>
    </contour>
    <contour>
      <point x="781.254700564" y="674.754876804" type="curve"/>
      <point x="1263.95710869" y="1187.35606482" type="line"/>
      <point x="1422.22555013" y="1205.90704018" type="line"/>
      <point x="1422.22555013" y="1292.0" type="line"/>
      <point x="934.10398139" y="1292.0" type="line"/>
      <point x="934.10398139" y="1205.90704018" type="line"/>
      <point x="1120.61595991" y="1187.43477558" type="line"/>
      <point x="665.009456006" y="682.440033741" type="line"/>
      <point x="468.501430161" y="682.440033741" type="line"/>
      <point x="468.501430161" y="1187.35606482" type="line"/>
      <point x="647.350771669" y="1205.90704018" type="line"/>
      <point x="647.350771669" y="1292.0" type="line"/>
      <point x="130.778508553" y="1292.0" type="line"/>
      <point x="130.778508553" y="1205.90704018" type="line"/>
      <point x="304.666626738" y="1187.35606482" type="line"/>
      <point x="304.666626738" y="101.856827526" type="line"/>
      <point x="130.778508553" y="85.4632736969" type="line"/>
      <point x="130.778508553" y="0.0" type="line"/>
      <point x="651.774978901" y="0.0" type="line"/>
      <point x="651.774978901" y="83.4632736969" type="line"/>
      <point x="468.501430161" y="101.856827526" type="line"/>
      <point x="468.501430161" y="599.921289234" type="line"/>
      <point x="624.575496036" y="599.921289234" type="line" smooth="yes"/>
      <point x="793.679570223" y="599.921289234"/>
      <point x="1093.90987043" y="0.0"/>
      <point x="1236.43324514" y="0.0" type="curve"/>
      <point x="1447.87125216" y="0.0" type="line"/>
      <point x="1447.87125216" y="83.6206952286" type="line"/>
      <point x="1366.68711816" y="101.856827526" type="line" smooth="yes"/>
      <point x="1250.30283887" y="128.092959824"/>
      <point x="973.354852414" y="608.565224419"/>
    </contour>
  </outline>
</glyph>
<glyph name="kabashkir-cy.sc" format="1">
  <advance width="1783.74177629"/>
  <outline>
    <contour>
      <point x="1121.25655465" y="-144.0" type="move" name="mark0"/>
    </contour>
    <contour>
      <point x="1106.66180928" y="681.148430634" type="curve"/>
      <point x="1581.35538835" y="1187.35606482" type="line"/>
      <point x="1744.73225448" y="1205.90704018" type="line"/>
      <point x="1744.73225448" y="1292.0" type="line"/>
      <point x="1259.75370348" y="1292.0" type="line"/>
      <point x="1259.75370348" y="1205.90704018" type="line"/>
      <point x="1431.16121001" y="1187.43477558" type="line"/>
      <point x="985.234539364" y="697.148430634" type="line"/>
      <point x="791.449738564" y="697.148430634" type="line"/>
      <point x="791.449738564" y="1187.35606482" type="line"/>
      <point x="986.412150194" y="1205.90704018" type="line"/>
      <point x="986.412150194" y="1292.0" type="line"/>
      <point x="121.076863938" y="1292.0" type="line"/>
      <point x="99.6563784609" y="857.971501884" type="line"/>
      <point x="222.975454618" y="857.971501884" type="line"/>
      <point x="278.565675911" y="1187.43477558" type="line"/>
      <point x="627.614935141" y="1203.82832941" type="line"/>
      <point x="627.614935141" y="101.856827526" type="line"/>
      <point x="440.68316391" y="83.6206952286" type="line"/>
      <point x="440.68316391" y="0.0" type="line"/>
      <point x="981.944320257" y="0.0" type="line"/>
      <point x="981.944320257" y="83.4632736969" type="line"/>
      <point x="791.449738564" y="99.8568275261" type="line"/>
      <point x="791.449738564" y="603.023239956" type="line"/>
      <point x="946.294404285" y="603.023239956" type="line" smooth="yes"/>
      <point x="1115.25127712" y="603.023239956"/>
      <point x="1412.46394958" y="0.0"/>
      <point x="1556.21672444" y="0.0" type="curve"/>
      <point x="1768.97954365" y="0.0" type="line"/>
      <point x="1768.97954365" y="83.6206952286" type="line"/>
      <point x="1686.56600949" y="103.699405994" type="line" smooth="yes"/>
      <point x="1576.44595435" y="129.935538292"/>
      <point x="1299.51977925" y="589.227141399"/>
    </contour>
  </outline>
</glyph>
<glyph name="kadescender-cy.sc" format="1">
  <advance width="1476.14871989"/>
  <outline>
    <contour>
      <point x="774.548872348" y="674.754876804" type="curve"/>
      <point x="1257.25128047" y="1187.35606482" type="line"/>
      <point x="1415.51972192" y="1205.90704018" type="line"/>
      <point x="1415.51972192" y="1292.0" type="line"/>
      <point x="927.471753851" y="1292.0" type="line"/>
      <point x="927.471753851" y="1205.90704018" type="line"/>
      <point x="1113.9101317" y="1187.43477558" type="line"/>
      <point x="658.377228468" y="682.440033741" type="line"/>
      <point x="461.795601946" y="682.440033741" type="line"/>
      <point x="461.795601946" y="1187.35606482" type="line"/>
      <point x="640.644943453" y="1205.90704018" type="line"/>
      <point x="640.644943453" y="1292.0" type="line"/>
      <point x="124.072680338" y="1292.0" type="line"/>
      <point x="124.072680338" y="1205.90704018" type="line"/>
      <point x="298.0343992" y="1187.35606482" type="line"/>
      <point x="298.0343992" y="101.856827526" type="line"/>
      <point x="124.072680338" y="85.4632736969" type="line"/>
      <point x="124.072680338" y="0.0" type="line"/>
      <point x="645.142751362" y="0.0" type="line"/>
      <point x="645.142751362" y="83.4632736969" type="line"/>
      <point x="461.795601946" y="101.856827526" type="line"/>
      <point x="461.795601946" y="599.921289234" type="line"/>
      <point x="617.869667821" y="599.921289234" type="line" smooth="yes"/>
      <point x="787.047342685" y="599.921289234"/>
      <point x="1087.20404222" y="0.0"/>
      <point x="1229.8010176" y="0.0" type="curve" smooth="yes"/>
      <point x="1287.53382515" y="0.0" type="line"/>
      <point x="1290.50783019" y="-18.912298336"/>
      <point x="1304.1184773" y="-289.416793785"/>
      <point x="1304.1184773" y="-323.620695229" type="curve"/>
      <point x="1416.87451207" y="-323.620695229" type="line"/>
      <point x="1434.80578777" y="-217.760134964"/>
      <point x="1455.49026647" y="-19.559966259"/>
      <point x="1471.52973592" y="101.856827526" type="curve"/>
      <point x="1357.72148032" y="101.856827526" type="line"/>
      <point x="1238.93019004" y="135.699405994"/>
      <point x="964.389214568" y="608.565224419"/>
    </contour>
  </outline>
</glyph>
<glyph name="kahook-cy.sc" format="1">
  <advance width="1486.65997195"/>
  <outline>
    <contour>
      <point x="468.501430161" y="678.314843063" type="curve"/>
      <point x="468.501430161" y="1187.35606482" type="line"/>
      <point x="647.350771669" y="1205.90704018" type="line"/>
      <point x="647.350771669" y="1292.0" type="line"/>
      <point x="130.778508553" y="1292.0" type="line"/>
      <point x="130.778508553" y="1205.90704018" type="line"/>
      <point x="304.666626738" y="1187.35606482" type="line"/>
      <point x="304.666626738" y="101.856827526" type="line"/>
      <point x="130.778508553" y="85.4632736969" type="line"/>
      <point x="130.778508553" y="0.0" type="line"/>
      <point x="651.774978901" y="0.0" type="line"/>
      <point x="651.774978901" y="83.4632736969" type="line"/>
      <point x="468.501430161" y="101.856827526" type="line"/>
      <point x="468.501430161" y="583.592197113" type="line"/>
      <point x="581.491911698" y="608.064461708"/>
      <point x="650.567390099" y="630.536726303"/>
      <point x="789.77056773" y="630.536726303" type="curve" smooth="yes"/>
      <point x="1034.37519056" y="630.536726303"/>
      <point x="1136.48641665" y="519.638677025"/>
      <point x="1136.48641665" y="282.772858601" type="curve" smooth="yes"/>
      <point x="1136.48641665" y="-77.2128923416"/>
      <point x="1017.30531164" y="-233.008990898"/>
      <point x="782.402333422" y="-233.008990898" type="curve" smooth="yes"/>
      <point x="748.107207605" y="-233.008990898"/>
      <point x="713.348666374" y="-230.615437069"/>
      <point x="698.339606405" y="-226.379304771" type="curve"/>
      <point x="697.456398282" y="-330.078710766" type="line"/>
      <point x="720.989492036" y="-340.314843063"/>
      <point x="787.09096539" y="-345.180661488"/>
      <point x="815.468059085" y="-345.180661488" type="curve" smooth="yes"/>
      <point x="1128.22132949" y="-345.180661488"/>
      <point x="1307.321451" y="-77.9355382919"/>
      <point x="1307.321451" y="303.212892342" type="curve" smooth="yes"/>
      <point x="1307.321451" y="564.407802887"/>
      <point x="1213.9468941" y="732.0"/>
      <point x="856.248211087" y="740.708396893" type="curve"/>
      <point x="1263.07390056" y="1187.35606482" type="line"/>
      <point x="1424.0437557" y="1205.90704018" type="line"/>
      <point x="1424.0437557" y="1292.0" type="line"/>
      <point x="939.138805389" y="1292.0" type="line"/>
      <point x="939.138805389" y="1205.90704018" type="line"/>
      <point x="1119.58555044" y="1187.35606482" type="line"/>
      <point x="710.919844037" y="730.0" type="line"/>
      <point x="625.562282807" y="718.236132298"/>
      <point x="534.035909452" y="695.921289234"/>
    </contour>
  </outline>
</glyph>
<glyph name="kastroke-cy.sc" format="1">
  <advance width="1476.17053124"/>
  <outline>
    <contour>
      <point x="786.346792003" y="-144.0" type="move" name="mark0"/>
    </contour>
    <contour>
      <point x="773.93825558" y="674.83358757" type="curve"/>
      <point x="1256.58887438" y="1187.27735405" type="line"/>
      <point x="1414.85731583" y="1205.90704018" type="line"/>
      <point x="1414.85731583" y="1292.0" type="line"/>
      <point x="926.809347759" y="1292.0" type="line"/>
      <point x="926.809347759" y="1205.90704018" type="line"/>
      <point x="1113.10052425" y="1187.43477558" type="line"/>
      <point x="657.693011023" y="682.518744507" type="line"/>
      <point x="461.20679653" y="682.518744507" type="line"/>
      <point x="461.20679653" y="909.212892342" type="line"/>
      <point x="645.289952716" y="909.212892342" type="line"/>
      <point x="645.289952716" y="1001.10195072" type="line"/>
      <point x="461.20679653" y="1001.10195072" type="line"/>
      <point x="461.20679653" y="1187.27735405" type="line"/>
      <point x="639.908936684" y="1205.90704018" type="line"/>
      <point x="639.908936684" y="1292.0" type="line"/>
      <point x="123.483874923" y="1292.0" type="line"/>
      <point x="123.483874923" y="1205.90704018" type="line"/>
      <point x="297.224791754" y="1187.27735405" type="line"/>
      <point x="297.224791754" y="1001.10195072" type="line"/>
      <point x="128.739500953" y="1001.10195072" type="line"/>
      <point x="128.739500953" y="909.212892342" type="line"/>
      <point x="297.224791754" y="909.212892342" type="line"/>
      <point x="297.224791754" y="101.77811676" type="line"/>
      <point x="123.483874923" y="85.4632736969" type="line"/>
      <point x="123.483874923" y="0.0" type="line"/>
      <point x="644.406744593" y="0.0" type="line"/>
      <point x="644.406744593" y="83.4632736969" type="line"/>
      <point x="461.20679653" y="101.77811676" type="line"/>
      <point x="461.20679653" y="599.842578468" type="line"/>
      <point x="617.185450376" y="599.842578468" type="line" smooth="yes"/>
      <point x="786.36312524" y="599.842578468"/>
      <point x="1086.46803545" y="0.0"/>
      <point x="1228.99141016" y="0.0" type="curve" smooth="yes"/>
      <point x="1440.50301786" y="0.0" type="line"/>
      <point x="1440.50301786" y="83.6206952286" type="line"/>
      <point x="1359.1716825" y="101.77811676" type="line" smooth="yes"/>
      <point x="1242.86100389" y="128.250381355"/>
      <point x="963.631396446" y="608.565224419"/>
    </contour>
  </outline>
</glyph>
<glyph name="kaverticalstroke-cy.sc" format="1">
  <advance width="1561.97786315"/>
  <outline>
    <contour>
      <point x="945.124960073" y="681.620695229" type="curve"/>
      <point x="1346.05442878" y="1187.43477558" type="line"/>
      <point x="1499.87685164" y="1205.90704018" type="line"/>
      <point x="1499.87685164" y="1292.0" type="line"/>
      <point x="1017.59971434" y="1292.0" type="line"/>
      <point x="1017.59971434" y="1205.90704018" type="line"/>
      <point x="1202.71328001" y="1185.43477558" type="line"/>
      <point x="823.771290839" y="697.148430634" type="line"/>
      <point x="741.998351424" y="697.148430634" type="line"/>
      <point x="741.998351424" y="964.0" type="line"/>
      <point x="636.934931638" y="964.0" type="line"/>
      <point x="636.934931638" y="697.148430634" type="line"/>
      <point x="468.501430161" y="697.148430634" type="line"/>
      <point x="468.501430161" y="1187.35606482" type="line"/>
      <point x="647.350771669" y="1205.90704018" type="line"/>
      <point x="647.350771669" y="1292.0" type="line"/>
      <point x="130.778508553" y="1292.0" type="line"/>
      <point x="130.778508553" y="1205.90704018" type="line"/>
      <point x="304.666626738" y="1187.35606482" type="line"/>
      <point x="304.666626738" y="101.856827526" type="line"/>
      <point x="130.778508553" y="85.4632736969" type="line"/>
      <point x="130.778508553" y="0.0" type="line"/>
      <point x="651.774978901" y="0.0" type="line"/>
      <point x="651.774978901" y="83.4632736969" type="line"/>
      <point x="468.501430161" y="101.856827526" type="line"/>
      <point x="468.501430161" y="603.023239956" type="line"/>
      <point x="636.934931638" y="603.023239956" type="line"/>
      <point x="636.934931638" y="314.0" type="line"/>
      <point x="741.998351424" y="314.0" type="line"/>
      <point x="741.998351424" y="596.472264595" type="line"/>
      <point x="785.060124409" y="596.472264595" type="line" smooth="yes"/>
      <point x="955.142818748" y="590.33282486"/>
      <point x="1203.54469881" y="0.0"/>
      <point x="1347.6436657" y="0.0" type="curve" smooth="yes"/>
      <point x="1557.87408392" y="-0.314843063354" type="line"/>
      <point x="1557.87408392" y="83.6206952286" type="line"/>
      <point x="1476.54274857" y="103.699405994" type="line" smooth="yes"/>
      <point x="1366.42269343" y="132.092959824"/>
      <point x="1127.98688272" y="591.037489014"/>
    </contour>
  </outline>
</glyph>
<glyph name="komide-cy.sc" format="1">
  <advance width="1359.6390506"/>
  <outline>
    <contour>
      <point x="837.013934563" y="0.0" type="curve"/>
      <point x="1233.30656063" y="0.0" type="line"/>
      <point x="1233.30656063" y="83.6206952286" type="line"/>
      <point x="1052.63901355" y="99.8568275261" type="line"/>
      <point x="1052.63901355" y="1192.96251099" type="line"/>
      <point x="1226.45353106" y="1217.35606482" type="line"/>
      <point x="1226.45353106" y="1292.0" type="line"/>
      <point x="673.915137909" y="1292.0" type="line"/>
      <point x="673.915137909" y="1217.35606482" type="line"/>
      <point x="886.470799819" y="1192.96251099" type="line"/>
      <point x="886.470799819" y="770.236132298" type="line"/>
      <point x="815.040099758" y="776.236132298"/>
      <point x="712.656282311" y="786.236132298"/>
      <point x="635.130370802" y="786.236132298" type="curve" smooth="yes"/>
      <point x="309.480648707" y="786.236132298"/>
      <point x="81.7251027687" y="637.402544727"/>
      <point x="81.7251027687" y="368.314843063" type="curve" smooth="yes"/>
      <point x="81.7251027687" y="127.449024639"/>
      <point x="267.972656555" y="-14.3148430634"/>
      <point x="608.233457264" y="-14.3148430634" type="curve" smooth="yes"/>
      <point x="688.858763821" y="-14.3148430634"/>
      <point x="772.501698129" y="-5.68515693665"/>
    </contour>
    <contour>
      <point x="886.470799819" y="679.323833961" type="curve"/>
      <point x="886.470799819" y="100.754876804" type="line"/>
      <point x="828.304554835" y="90.912298336"/>
      <point x="731.42714342" y="86.7548768044"/>
      <point x="653.217014467" y="86.7548768044" type="curve" smooth="yes"/>
      <point x="407.235790129" y="86.7548768044"/>
      <point x="258.014753823" y="190.329092121"/>
      <point x="258.014753823" y="375.763867702" type="curve" smooth="yes"/>
      <point x="258.014753823" y="588.772858601"/>
      <point x="406.646984714" y="692.772858601"/>
      <point x="652.208416343" y="692.772858601" type="curve" smooth="yes"/>
      <point x="765.986693973" y="692.772858601"/>
      <point x="821.966730004" y="687.245123196"/>
    </contour>
  </outline>
</glyph>
<glyph name="komidje-cy.sc" format="1">
  <advance width="1913.94385999"/>
  <outline>
    <contour>
      <point x="1702.34922082" y="290.472264595" type="curve" smooth="yes"/>
      <point x="1702.34922082" y="600.268363152" type="line"/>
      <point x="1856.11985436" y="620.898049278" type="line"/>
      <point x="1856.11985436" y="712.046479912" type="line"/>
      <point x="1364.92070192" y="712.046479912" type="line"/>
      <point x="1364.92070192" y="620.898049278" type="line"/>
      <point x="1534.14199949" y="600.425784683" type="line"/>
      <point x="1534.14199949" y="316.425784683" type="line" smooth="yes"/>
      <point x="1534.14199949" y="160.361322975"/>
      <point x="1470.44753712" y="81.1484306335"/>
      <point x="1275.70592752" y="81.1484306335" type="curve" smooth="yes"/>
      <point x="1103.85681693" y="81.1484306335"/>
      <point x="1052.56541287" y="155.101950722"/>
      <point x="1052.71261423" y="320.268363152" type="curve" smooth="yes"/>
      <point x="1052.71261423" y="1193.11993252" type="line"/>
      <point x="1226.60073241" y="1217.27735405" type="line"/>
      <point x="1226.60073241" y="1292.0" type="line"/>
      <point x="674.776534679" y="1292.0" type="line"/>
      <point x="674.629333325" y="1217.27735405" type="line"/>
      <point x="886.544400496" y="1193.11993252" type="line"/>
      <point x="886.544400496" y="770.157421532" type="line"/>
      <point x="815.113700435" y="776.157421532"/>
      <point x="712.656282311" y="786.157421532"/>
      <point x="635.277572156" y="786.157421532" type="curve" smooth="yes"/>
      <point x="309.554249384" y="786.157421532"/>
      <point x="81.7251027687" y="637.481255493"/>
      <point x="81.7251027687" y="368.314843063" type="curve" smooth="yes"/>
      <point x="81.7251027687" y="127.370313873"/>
      <point x="267.972656555" y="-14.3148430634"/>
      <point x="608.307057941" y="-14.3148430634" type="curve" smooth="yes"/>
      <point x="718.288078344" y="-14.3148430634"/>
      <point x="861.716472529" y="0.787107658386"/>
      <point x="992.469217052" y="57.8425784683" type="curve"/>
      <point x="1055.99466671" y="11.6851569366"/>
      <point x="1146.76322195" y="-14.0"/>
      <point x="1272.06951638" y="-14.0" type="curve" smooth="yes"/>
      <point x="1549.0856254" y="-14.0"/>
      <point x="1702.34922082" y="98.5832062149"/>
    </contour>
    <contour>
      <point x="886.544400496" y="679.323833961" type="curve"/>
      <point x="886.544400496" y="298.787107658" type="line" smooth="yes"/>
      <point x="886.544400496" y="256.629686127"/>
      <point x="890.622415696" y="203.101950722"/>
      <point x="915.11231825" y="158.046479912" type="curve"/>
      <point x="847.465230681" y="108.83358757"/>
      <point x="726.465920097" y="86.8335875702"/>
      <point x="653.290615144" y="86.8335875702" type="curve" smooth="yes"/>
      <point x="407.382991483" y="86.8335875702"/>
      <point x="258.0883545" y="190.250381355"/>
      <point x="258.0883545" y="375.842578468" type="curve" smooth="yes"/>
      <point x="258.0883545" y="588.694147835"/>
      <point x="406.646984714" y="692.694147835"/>
      <point x="652.28201702" y="692.694147835" type="curve" smooth="yes"/>
      <point x="766.133895327" y="692.694147835"/>
      <point x="821.966730004" y="687.16641243"/>
    </contour>
  </outline>
</glyph>
<glyph name="komidzje-cy.sc" format="1">
  <advance width="1386.21975007"/>
  <outline>
    <contour>
      <point x="550.656017695" y="714.754876804" type="curve" smooth="yes"/>
      <point x="425.306100556" y="714.754876804" type="line"/>
      <point x="425.306100556" y="618.740627747" type="line"/>
      <point x="575.145920249" y="618.740627747" type="line" smooth="yes"/>
      <point x="856.032887171" y="618.740627747"/>
      <point x="975.729196924" y="497.245123196"/>
      <point x="975.729196924" y="339.495504551" type="curve" smooth="yes"/>
      <point x="975.729196924" y="237.05547081"/>
      <point x="915.030550954" y="108.440033741"/>
      <point x="782.533201539" y="108.597455273" type="curve"/>
      <point x="782.533201539" y="0.0" type="line"/>
      <point x="1162.69911275" y="0.0" type="line"/>
      <point x="1162.03670665" y="-6.75487680435"/>
      <point x="1169.23592825" y="-216.676166039"/>
      <point x="1171.34853653" y="-323.935538292" type="curve"/>
      <point x="1286.87958567" y="-323.935538292" type="line"/>
      <point x="1336.81619958" y="-29.2519067764"/>
      <point x="1325.12733669" y="-48.8515693665"/>
      <point x="1350.50044736" y="111.699405994" type="curve"/>
      <point x="1057.99005161" y="111.699405994" type="line"/>
      <point x="1107.04345739" y="135.620695229"/>
      <point x="1177.81175136" y="229.023239956"/>
      <point x="1177.81175136" y="333.259372253" type="curve" smooth="yes"/>
      <point x="1177.81175136" y="519.259372253"/>
      <point x="1005.32204604" y="681.449024639"/>
      <point x="740.864363299" y="682.0" type="curve"/>
      <point x="912.618061854" y="710.078710766"/>
      <point x="1081.17695333" y="813.685156937"/>
      <point x="1081.17695333" y="1013.68515694" type="curve" smooth="yes"/>
      <point x="1081.17695333" y="1213.68515694"/>
      <point x="903.306231976" y="1306.0"/>
      <point x="576.574311081" y="1306.0" type="curve" smooth="yes"/>
      <point x="419.24086708" y="1306.0"/>
      <point x="263.055055938" y="1256.31484306"/>
      <point x="175.606697784" y="1250.4722646" type="curve"/>
      <point x="194.252168892" y="985.323833961" type="line"/>
      <point x="301.752577634" y="985.323833961" type="line"/>
      <point x="336.069514804" y="1144.97676004" type="line"/>
      <point x="372.300069573" y="1185.55996626"/>
      <point x="473.991502956" y="1213.40254473"/>
      <point x="602.263635817" y="1213.40254473" type="curve" smooth="yes"/>
      <point x="788.922815694" y="1213.40254473"/>
      <point x="900.073280309" y="1152.11094162"/>
      <point x="902.406690616" y="992.472264595" type="curve"/>
      <point x="902.406690616" y="801.449024639"/>
      <point x="726.825756863" y="714.754876804"/>
    </contour>
  </outline>
</glyph>
<glyph name="komilje-cy.sc" format="1">
  <advance width="2107.28705673"/>
  <outline>
    <contour>
      <point x="619.562483389" y="-144.0" type="move" name="mark0"/>
    </contour>
    <contour>
      <point x="1893.5062086" y="290.472264595" type="curve" smooth="yes"/>
      <point x="1893.5062086" y="600.268363152" type="line"/>
      <point x="2049.4630511" y="620.898049278" type="line"/>
      <point x="2049.4630511" y="714.046479912" type="line"/>
      <point x="1556.0776897" y="714.046479912" type="line"/>
      <point x="1556.0776897" y="620.898049278" type="line"/>
      <point x="1725.15178592" y="600.268363152" type="line"/>
      <point x="1725.15178592" y="316.425784683" type="line" smooth="yes"/>
      <point x="1725.15178592" y="160.361322975"/>
      <point x="1661.45732355" y="81.1484306335"/>
      <point x="1466.8629153" y="81.1484306335" type="curve" smooth="yes"/>
      <point x="1298.23042315" y="81.1484306335"/>
      <point x="1243.86960201" y="156.046479912"/>
      <point x="1243.86960201" y="320.268363152" type="curve" smooth="yes"/>
      <point x="1243.86960201" y="1187.27735405" type="line"/>
      <point x="1440.77560921" y="1205.90704018" type="line"/>
      <point x="1440.77560921" y="1292.0" type="line"/>
      <point x="282.804537199" y="1292.0" type="line"/>
      <point x="282.804537199" y="1205.90704018" type="line"/>
      <point x="514.815277663" y="1187.27735405" type="line"/>
      <point x="514.815277663" y="1036.89804928" type="line" smooth="yes"/>
      <point x="514.815277663" y="588.157421532"/>
      <point x="450.97361394" y="328.518744507"/>
      <point x="343.680362494" y="201.620695229" type="curve"/>
      <point x="313.367839848" y="156.361322975"/>
      <point x="273.721675971" y="132.83358757"/>
      <point x="219.360854832" y="132.83358757" type="curve" smooth="yes"/>
      <point x="133.362698863" y="132.83358757"/>
      <point x="87.0107067705" y="136.83358757"/>
      <point x="64.5816231695" y="140.83358757" type="curve"/>
      <point x="77.1100714776" y="0.0" type="line"/>
      <point x="102.314169447" y="-4.31484306335"/>
      <point x="152.008169971" y="-10.1574215317"/>
      <point x="217.300035879" y="-10.1574215317" type="curve" smooth="yes"/>
      <point x="312.315619019" y="-10.1574215317"/>
      <point x="386.793924804" y="30.7871076584"/>
      <point x="448.302178219" y="115.416793785" type="curve" smooth="yes"/>
      <point x="569.426878804" y="282.046479912"/>
      <point x="627.004318373" y="624.250381355"/>
      <point x="627.004318373" y="1027.37031387" type="curve" smooth="yes"/>
      <point x="627.004318373" y="1187.27735405" type="line"/>
      <point x="1075.36797797" y="1187.27735405" type="line"/>
      <point x="1075.36797797" y="298.787107658" type="line" smooth="yes"/>
      <point x="1075.36797797" y="101.685156937"/>
      <point x="1204.3324949" y="-14.0"/>
      <point x="1463.07930281" y="-14.0" type="curve" smooth="yes"/>
      <point x="1742.57602349" y="-14.0"/>
      <point x="1893.5062086" y="98.5832062149"/>
    </contour>
  </outline>
</glyph>
<glyph name="kominje-cy.sc" format="1">
  <advance width="2248.45564128"/>
  <outline>
    <contour>
      <point x="1384.00777709" y="320.268363152" type="curve" smooth="yes"/>
      <point x="1384.00777709" y="1187.43477558" type="line"/>
      <point x="1578.45498398" y="1209.90704018" type="line"/>
      <point x="1578.45498398" y="1292.0" type="line"/>
      <point x="1022.5309597" y="1292.0" type="line"/>
      <point x="1022.5309597" y="1209.90704018" type="line"/>
      <point x="1215.6533544" y="1187.59219711" type="line"/>
      <point x="1215.6533544" y="715.967769146" type="line"/>
      <point x="472.947448746" y="715.967769146" type="line"/>
      <point x="472.947448746" y="1187.35606482" type="line"/>
      <point x="657.472208992" y="1205.90704018" type="line"/>
      <point x="657.472208992" y="1292.0" type="line"/>
      <point x="135.150926461" y="1292.0" type="line"/>
      <point x="135.150926461" y="1205.90704018" type="line"/>
      <point x="307.000037046" y="1187.43477558" type="line"/>
      <point x="307.000037046" y="99.8568275261" type="line"/>
      <point x="128.592299599" y="83.6206952286" type="line"/>
      <point x="128.592299599" y="0.0" type="line"/>
      <point x="658.355417115" y="0.0" type="line"/>
      <point x="658.355417115" y="83.6206952286" type="line"/>
      <point x="472.947448746" y="99.8568275261" type="line"/>
      <point x="472.947448746" y="609.008990898" type="line"/>
      <point x="1215.6533544" y="609.008990898" type="line"/>
      <point x="1217.98676471" y="298.787107658" type="line" smooth="yes"/>
      <point x="1220.24657434" y="94.0787107658"/>
      <point x="1353.95151256" y="-14.0"/>
      <point x="1604.24788737" y="-14.0" type="curve" smooth="yes"/>
      <point x="1883.67100737" y="-14.0"/>
      <point x="2034.67479316" y="98.5832062149"/>
      <point x="2034.67479316" y="290.472264595" type="curve" smooth="yes"/>
      <point x="2034.67479316" y="600.268363152" type="line"/>
      <point x="2190.70523633" y="620.819338512" type="line"/>
      <point x="2190.70523633" y="713.967769146" type="line"/>
      <point x="1699.43248321" y="713.967769146" type="line"/>
      <point x="1699.43248321" y="620.819338512" type="line"/>
      <point x="1866.2467698" y="600.268363152" type="line"/>
      <point x="1866.2467698" y="316.347073917" type="line" smooth="yes"/>
      <point x="1866.2467698" y="160.361322975"/>
      <point x="1802.6259081" y="81.1484306335"/>
      <point x="1610.36491017" y="81.1484306335" type="curve" smooth="yes"/>
      <point x="1438.00059484" y="81.1484306335"/>
      <point x="1383.86057574" y="155.180661488"/>
    </contour>
  </outline>
</glyph>
<glyph name="komisje-cy.sc" format="1">
  <advance width="1556.49326847"/>
  <outline>
    <contour>
      <point x="803.078645512" y="-144.0" type="move" name="mark0"/>
    </contour>
    <contour>
      <point x="1340.74701343" y="290.472264595" type="curve" smooth="yes"/>
      <point x="1340.74701343" y="600.268363152" type="line"/>
      <point x="1496.7774566" y="620.819338512" type="line"/>
      <point x="1496.7774566" y="713.967769146" type="line"/>
      <point x="1005.99809686" y="713.967769146" type="line"/>
      <point x="1005.99809686" y="620.819338512" type="line"/>
      <point x="1172.81238345" y="600.268363152" type="line"/>
      <point x="1172.81238345" y="316.347073917" type="line" smooth="yes"/>
      <point x="1172.81238345" y="160.361322975"/>
      <point x="1099.9314812" y="80.9910091019"/>
      <point x="873.110932712" y="81.1484306335" type="curve" smooth="yes"/>
      <point x="486.285504499" y="81.1484306335"/>
      <point x="282.703647054" y="375.212892342"/>
      <point x="282.703647054" y="668.0" type="curve" smooth="yes"/>
      <point x="282.703647054" y="1031.05547081"/>
      <point x="524.99667093" y="1213.40254473"/>
      <point x="853.266039421" y="1213.40254473" type="curve" smooth="yes"/>
      <point x="1051.81307287" y="1213.40254473"/>
      <point x="1160.06313311" y="1183.63867702"/>
      <point x="1186.1504392" y="1163.55996626" type="curve"/>
      <point x="1233.36382807" y="954.615437069" type="line"/>
      <point x="1337.18420296" y="954.615437069" type="line"/>
      <point x="1356.41847949" y="1254.2361323" type="line"/>
      <point x="1289.38200869" y="1266.31484306"/>
      <point x="1091.56281539" y="1308.2361323"/>
      <point x="873.530725421" y="1308.2361323" type="curve" smooth="yes"/>
      <point x="447.263602124" y="1308.2361323"/>
      <point x="92.4353455073" y="1052.55097536"/>
      <point x="92.4353455073" y="630.078710766" type="curve" smooth="yes"/>
      <point x="92.4353455073" y="274.032230854"/>
      <point x="398.799001755" y="-14.0"/>
      <point x="869.253719543" y="-14.0" type="curve" smooth="yes"/>
      <point x="1172.67334871" y="-14.0"/>
      <point x="1340.74701343" y="98.7406277466"/>
    </contour>
  </outline>
</glyph>
<glyph name="komitje-cy.sc" format="1">
  <advance width="1692.42256023"/>
  <outline>
    <contour>
      <point x="768.968865639" y="-144.0" type="move" name="mark0"/>
    </contour>
    <contour>
      <point x="833.451124101" y="320.268363152" type="curve" smooth="yes"/>
      <point x="833.451124101" y="1201.90704018" type="line"/>
      <point x="1243.14723998" y="1192.88380022" type="line"/>
      <point x="1301.21807293" y="880.504495449" type="line"/>
      <point x="1413.23810093" y="880.504495449" type="line"/>
      <point x="1389.99940989" y="1292.0" type="line"/>
      <point x="121.73927003" y="1292.0" type="line"/>
      <point x="86.391923384" y="880.504495449" type="line"/>
      <point x="199.663162895" y="880.504495449" type="line"/>
      <point x="266.773234372" y="1192.88380022" type="line"/>
      <point x="662.763291109" y="1201.90704018" type="line"/>
      <point x="662.763291109" y="298.787107658" type="line" smooth="yes"/>
      <point x="662.763291109" y="101.527735405"/>
      <point x="793.987617665" y="-14.0"/>
      <point x="1052.73442558" y="-14.0" type="curve" smooth="yes"/>
      <point x="1325.37811669" y="-14.0"/>
      <point x="1483.30853273" y="96.7406277466"/>
      <point x="1483.30853273" y="290.472264595" type="curve" smooth="yes"/>
      <point x="1483.30853273" y="600.268363152" type="line"/>
      <point x="1634.67215528" y="620.819338512" type="line"/>
      <point x="1634.67215528" y="713.967769146" type="line"/>
      <point x="1145.80641315" y="713.967769146" type="line"/>
      <point x="1145.80641315" y="620.819338512" type="line"/>
      <point x="1314.88050936" y="600.268363152" type="line"/>
      <point x="1314.88050936" y="316.347073917" type="line" smooth="yes"/>
      <point x="1314.88050936" y="162.203901443"/>
      <point x="1251.25964767" y="81.1484306335"/>
      <point x="1056.66523943" y="81.1484306335" type="curve" smooth="yes"/>
      <point x="881.179717702" y="81.1484306335"/>
      <point x="833.451124101" y="159.731636848"/>
    </contour>
  </outline>
</glyph>
<glyph name="komizje-cy.sc" format="1">
  <advance width="2004.63064793"/>
  <outline>
    <contour>
      <point x="1790.62899777" y="290.472264595" type="curve" smooth="yes"/>
      <point x="1790.62899777" y="600.268363152" type="line"/>
      <point x="1946.88024297" y="620.819338512" type="line"/>
      <point x="1946.88024297" y="712.125190678" type="line"/>
      <point x="1457.86729949" y="712.125190678" type="line"/>
      <point x="1457.86729949" y="620.819338512" type="line"/>
      <point x="1624.68158607" y="600.347073917" type="line"/>
      <point x="1624.68158607" y="316.347073917" type="line" smooth="yes"/>
      <point x="1624.68158607" y="162.203901443"/>
      <point x="1563.24693333" y="81.1484306335"/>
      <point x="1366.39271546" y="81.1484306335" type="curve" smooth="yes"/>
      <point x="1212.9900853" y="81.1484306335"/>
      <point x="1140.99239118" y="138.203901443"/>
      <point x="1140.99239118" y="320.268363152" type="curve" smooth="yes"/>
      <point x="1140.99239118" y="532.819338512"/>
      <point x="1007.72905702" y="681.685156937"/>
      <point x="741.453168714" y="682.0" type="curve"/>
      <point x="908.760848685" y="707.449024639"/>
      <point x="1081.17695333" y="809.212892342"/>
      <point x="1081.17695333" y="1013.68515694" type="curve" smooth="yes"/>
      <point x="1081.17695333" y="1213.68515694"/>
      <point x="903.306231976" y="1306.0"/>
      <point x="576.574311081" y="1306.0" type="curve" smooth="yes"/>
      <point x="419.24086708" y="1306.0"/>
      <point x="263.055055938" y="1256.31484306"/>
      <point x="175.606697784" y="1250.4722646" type="curve"/>
      <point x="194.252168892" y="985.323833961" type="line"/>
      <point x="301.752577634" y="985.323833961" type="line"/>
      <point x="336.069514804" y="1144.97676004" type="line"/>
      <point x="372.300069573" y="1185.55996626"/>
      <point x="473.991502956" y="1213.40254473"/>
      <point x="602.263635817" y="1213.40254473" type="curve" smooth="yes"/>
      <point x="788.922815694" y="1213.40254473"/>
      <point x="900.073280309" y="1152.11094162"/>
      <point x="902.406690616" y="992.472264595" type="curve"/>
      <point x="902.406690616" y="801.449024639"/>
      <point x="726.825756863" y="714.754876804"/>
      <point x="552.915827326" y="714.754876804" type="curve" smooth="yes"/>
      <point x="425.306100556" y="714.754876804" type="line"/>
      <point x="425.306100556" y="618.740627747" type="line"/>
      <point x="577.405729879" y="618.740627747" type="line" smooth="yes"/>
      <point x="874.479367602" y="618.740627747"/>
      <point x="975.729196924" y="481.874809322"/>
      <point x="975.729196924" y="298.787107658" type="curve" smooth="yes"/>
      <point x="975.729196924" y="100.11094162"/>
      <point x="1100.35127391" y="-14.0"/>
      <point x="1362.53550229" y="-14.0" type="curve" smooth="yes"/>
      <point x="1637.29180168" y="-14.0"/>
      <point x="1790.62899777" y="96.8193385124"/>
    </contour>
  </outline>
</glyph>
<glyph name="lje-cy.sc" format="1">
  <advance width="2128.30139423"/>
  <outline>
    <contour>
      <point x="670.581296097" y="-144.0" type="move" name="mark0"/>
    </contour>
    <contour>
      <point x="1237.09017312" y="716.708396893" type="curve"/>
      <point x="1237.09017312" y="1187.35606482" type="line"/>
      <point x="1434.069781" y="1205.90704018" type="line"/>
      <point x="1434.069781" y="1292.0" type="line"/>
      <point x="318.740689261" y="1292.0" type="line"/>
      <point x="318.740689261" y="1205.90704018" type="line"/>
      <point x="512.408266679" y="1187.43477558" type="line"/>
      <point x="512.408266679" y="1036.81933851" type="line" smooth="yes"/>
      <point x="512.408266679" y="589.921289234"/>
      <point x="450.826412586" y="326.676166039"/>
      <point x="341.199750833" y="199.856827526" type="curve"/>
      <point x="308.406616525" y="150.912298336"/>
      <point x="266.427042341" y="132.912298336"/>
      <point x="219.213653478" y="132.912298336" type="curve" smooth="yes"/>
      <point x="131.029288555" y="132.912298336"/>
      <point x="86.9371060936" y="136.912298336"/>
      <point x="64.5816231695" y="140.754876804" type="curve"/>
      <point x="74.6294598162" y="0.0" type="line"/>
      <point x="99.7599571092" y="-4.31484306335"/>
      <point x="151.860968617" y="-10.2361322975"/>
      <point x="217.079233849" y="-10.2361322975" type="curve" smooth="yes"/>
      <point x="316.982439634" y="-10.2361322975"/>
      <point x="386.720324127" y="30.7871076584"/>
      <point x="445.821566558" y="113.652926083" type="curve" smooth="yes"/>
      <point x="566.946267143" y="281.967769146"/>
      <point x="626.857117019" y="620.880067482"/>
      <point x="626.857117019" y="1027.29160311" type="curve" smooth="yes"/>
      <point x="626.857117019" y="1187.19864328" type="line"/>
      <point x="1073.03456767" y="1187.19864328" type="line"/>
      <point x="1070.70115736" y="101.856827526" type="line"/>
      <point x="856.820683264" y="83.6206952286" type="line"/>
      <point x="856.820683264" y="0.0" type="line"/>
      <point x="1157.86327942" y="0.0" type="line" smooth="yes"/>
      <point x="1247.49784653" y="0.0"/>
      <point x="1435.81438589" y="-14.0"/>
      <point x="1486.09719183" y="-14.0" type="curve" smooth="yes"/>
      <point x="1810.51751377" y="-14.0"/>
      <point x="2041.83587017" y="123.023239956"/>
      <point x="2041.83587017" y="382.472264595" type="curve" smooth="yes"/>
      <point x="2041.83587017" y="604.550975361"/>
      <point x="1854.90409894" y="736.550975361"/>
      <point x="1513.06770604" y="736.550975361" type="curve" smooth="yes"/>
      <point x="1406.58406204" y="736.550975361"/>
      <point x="1284.03097063" y="724.472264595"/>
    </contour>
    <contour>
      <point x="1237.09017312" y="91.6206952286" type="curve"/>
      <point x="1237.09017312" y="619.559966259" type="line"/>
      <point x="1275.28613481" y="625.323833961"/>
      <point x="1377.17655887" y="631.402544727"/>
      <point x="1469.01914629" y="631.402544727" type="curve" smooth="yes"/>
      <point x="1713.84457115" y="631.402544727"/>
      <point x="1862.32960069" y="548.740627747"/>
      <point x="1862.32960069" y="367.685156937" type="curve" smooth="yes"/>
      <point x="1862.32960069" y="182.643935184"/>
      <point x="1715.00037063" y="75.6206952286"/>
      <point x="1470.41755915" y="75.6206952286" type="curve" smooth="yes"/>
      <point x="1357.64787964" y="75.6206952286"/>
      <point x="1302.18304835" y="81.6206952286"/>
    </contour>
  </outline>
</glyph>
<glyph name="nje-cy.sc" format="1">
  <advance width="2269.17557608"/>
  <outline>
    <contour>
      <point x="876.842755881" y="-144.0" type="move" name="mark0"/>
    </contour>
    <contour>
      <point x="1656.12809684" y="738.708396893" type="curve" smooth="yes"/>
      <point x="1382.41037355" y="738.708396893" type="line"/>
      <point x="1382.41037355" y="1187.59219711" type="line"/>
      <point x="1567.74474124" y="1209.90704018" type="line"/>
      <point x="1567.74474124" y="1292.0" type="line"/>
      <point x="1033.9772092" y="1292.0" type="line"/>
      <point x="1033.9772092" y="1209.90704018" type="line"/>
      <point x="1213.90874951" y="1187.43477558" type="line"/>
      <point x="1213.90874951" y="713.495504551" type="line"/>
      <point x="473.094650099" y="713.495504551" type="line"/>
      <point x="473.094650099" y="1187.35606482" type="line"/>
      <point x="654.991597331" y="1205.90704018" type="line"/>
      <point x="654.991597331" y="1292.0" type="line"/>
      <point x="135.371728491" y="1292.0" type="line"/>
      <point x="135.371728491" y="1205.90704018" type="line"/>
      <point x="307.000037046" y="1187.43477558" type="line"/>
      <point x="307.000037046" y="99.8568275261" type="line"/>
      <point x="121.73927003" y="83.6206952286" type="line"/>
      <point x="121.73927003" y="0.0" type="line"/>
      <point x="673.438077761" y="0.0" type="line"/>
      <point x="673.438077761" y="85.9355382919" type="line"/>
      <point x="473.094650099" y="102.565224419" type="line"/>
      <point x="473.094650099" y="611.402544727" type="line"/>
      <point x="1213.90874951" y="611.402544727" type="line"/>
      <point x="1213.90874951" y="102.565224419" type="line"/>
      <point x="1043.0900484" y="85.9355382919" type="line"/>
      <point x="1043.0900484" y="0.0" type="line"/>
      <point x="1259.21668739" y="0.0" type="line" smooth="yes"/>
      <point x="1344.40523592" y="0.0"/>
      <point x="1557.21167783" y="-17.7638677025"/>
      <point x="1637.60801574" y="-17.7638677025" type="curve" smooth="yes"/>
      <point x="1964.08915663" y="-17.7638677025"/>
      <point x="2184.74905962" y="107.652926083"/>
      <point x="2184.74905962" y="382.314843063" type="curve" smooth="yes"/>
      <point x="2184.74905962" y="606.550975361"/>
      <point x="1997.98630109" y="738.708396893"/>
    </contour>
    <contour>
      <point x="1382.41037355" y="100.754876804" type="curve"/>
      <point x="1382.41037355" y="633.874809322" type="line"/>
      <point x="1612.07953709" y="633.874809322" type="line" smooth="yes"/>
      <point x="1855.82276315" y="633.874809322"/>
      <point x="2007.72340179" y="552.550975361"/>
      <point x="2007.72340179" y="369.921289234" type="curve" smooth="yes"/>
      <point x="2007.72340179" y="182.880067482"/>
      <point x="1855.72735112" y="79.2271413994"/>
      <point x="1613.47794995" y="79.2271413994" type="curve" smooth="yes"/>
      <point x="1512.37532198" y="79.2271413994"/>
      <point x="1440.94462192" y="94.6761660385"/>
    </contour>
  </outline>
</glyph>
<glyph name="obarred-cy.sc" format="1">
  <advance width="1507.97687878"/>
  <outline>
    <contour>
      <point x="776.328933328" y="1273.18066149" type="move" name="top"/>
    </contour>
    <contour>
      <point x="742.799792251" y="-144.0" type="move" name="mark0"/>
    </contour>
    <contour>
      <point x="774.216325051" y="1308.2361323" type="curve" smooth="yes"/>
      <point x="386.19695277" y="1308.31484306"/>
      <point x="76.3222753846" y="1048.2361323"/>
      <point x="76.3222753846" y="638.708396893" type="curve" smooth="yes"/>
      <point x="76.3222753846" y="248.078710766"/>
      <point x="314.567262031" y="-25.6851569366"/>
      <point x="738.280172989" y="-20.0" type="curve" smooth="yes"/>
      <point x="1123.81893361" y="-14.3148430634"/>
      <point x="1431.65460339" y="253.180661488"/>
      <point x="1431.65460339" y="660.94452919" type="curve" smooth="yes"/>
      <point x="1431.65460339" y="1050.4722646"/>
      <point x="1197.56123262" y="1308.07871077"/>
    </contour>
    <contour>
      <point x="263.174967824" y="604.740627747" type="curve"/>
      <point x="1240.20869102" y="604.740627747" type="line"/>
      <point x="1222.49821736" y="251.652926083"/>
      <point x="1027.07239031" y="71.1484306335"/>
      <point x="749.432019789" y="71.1484306335" type="curve" smooth="yes"/>
      <point x="448.678348222" y="71.1484306335"/>
      <point x="274.326814623" y="280.300594006"/>
    </contour>
    <contour>
      <point x="1240.06148966" y="695.416793785" type="curve"/>
      <point x="263.101367147" y="695.416793785" type="line"/>
      <point x="281.106243516" y="1037.44902464"/>
      <point x="469.752641668" y="1217.2451232"/>
      <point x="756.137848005" y="1217.2451232" type="curve" smooth="yes"/>
      <point x="1056.81791889" y="1217.2451232"/>
      <point x="1226.72343391" y="1018.64393518"/>
    </contour>
  </outline>
</glyph>
<glyph name="pe-cy.sc" format="1">
  <advance width="1681.84318561"/>
  <outline>
    <contour>
      <point x="1191.08985117" y="0.0" type="move" name="bottomright"/>
    </contour>
    <contour>
      <point x="124.072680338" y="1292.0" type="line"/>
      <point x="124.072680338" y="1205.90704018" type="line"/>
      <point x="309.259846676" y="1187.35606482" type="line"/>
      <point x="309.259846676" y="99.8568275261" type="line"/>
      <point x="135.445329168" y="83.6206952286" type="line"/>
      <point x="135.445329168" y="0.0" type="line"/>
      <point x="681.542318837" y="0.0" type="line"/>
      <point x="681.542318837" y="83.6206952286" type="line"/>
      <point x="475.35445973" y="99.8568275261" type="line"/>
      <point x="475.35445973" y="1190.7728586" type="line"/>
      <point x="1208.74853551" y="1190.7728586" type="line"/>
      <point x="1208.74853551" y="101.699405994" type="line"/>
      <point x="1025.15877271" y="83.6206952286" type="line"/>
      <point x="1025.15877271" y="0.0" type="line"/>
      <point x="1578.18239263" y="0.0" type="line"/>
      <point x="1578.18239263" y="83.6206952286" type="line"/>
      <point x="1374.99034992" y="101.856827526" type="line"/>
      <point x="1374.99034992" y="1185.59219711" type="line"/>
      <point x="1560.17751626" y="1207.90704018" type="line"/>
      <point x="1560.17751626" y="1292.0" type="line"/>
    </contour>
  </outline>
</glyph>
<glyph name="pedescender-cy.sc" format="1">
  <advance width="1716.30732413"/>
  <outline>
    <contour>
      <point x="1622.91516983" y="101.856827526" type="curve"/>
      <point x="1374.99034992" y="101.856827526" type="line"/>
      <point x="1374.99034992" y="1185.59219711" type="line"/>
      <point x="1560.17751626" y="1207.90704018" type="line"/>
      <point x="1560.17751626" y="1292.0" type="line"/>
      <point x="124.072680338" y="1292.0" type="line"/>
      <point x="124.072680338" y="1205.90704018" type="line"/>
      <point x="309.259846676" y="1187.35606482" type="line"/>
      <point x="309.259846676" y="99.8568275261" type="line"/>
      <point x="135.445329168" y="83.6206952286" type="line"/>
      <point x="135.445329168" y="0.0" type="line"/>
      <point x="681.542318837" y="0.0" type="line"/>
      <point x="681.542318837" y="83.6206952286" type="line"/>
      <point x="475.35445973" y="99.8568275261" type="line"/>
      <point x="475.35445973" y="1190.7728586" type="line"/>
      <point x="1208.74853551" y="1190.7728586" type="line"/>
      <point x="1208.74853551" y="101.699405994" type="line"/>
      <point x="1025.15877271" y="83.6206952286" type="line"/>
      <point x="1025.15877271" y="0.0" type="line"/>
      <point x="1436.58584875" y="0.0" type="line"/>
      <point x="1439.48625312" y="-22.6761660385"/>
      <point x="1455.50391121" y="-285.88905838"/>
      <point x="1455.43031053" y="-323.620695229" type="curve"/>
      <point x="1568.11274463" y="-323.620695229" type="line"/>
      <point x="1569.9309502" y="-313.731636848"/>
      <point x="1622.91516983" y="78.3328248596"/>
    </contour>
  </outline>
</glyph>
<glyph name="pemiddlehook-cy.sc" format="1">
  <advance width="2261.04952365"/>
  <outline>
    <contour>
      <point x="868.613124804" y="-144.0" type="move" name="mark0"/>
    </contour>
    <contour>
      <point x="1374.99034992" y="683.921289234" type="curve"/>
      <point x="1374.99034992" y="1185.59219711" type="line"/>
      <point x="1560.17751626" y="1207.90704018" type="line"/>
      <point x="1560.17751626" y="1292.0" type="line"/>
      <point x="124.072680338" y="1292.0" type="line"/>
      <point x="124.072680338" y="1205.90704018" type="line"/>
      <point x="309.259846676" y="1187.35606482" type="line"/>
      <point x="309.259846676" y="99.8568275261" type="line"/>
      <point x="135.445329168" y="83.6206952286" type="line"/>
      <point x="135.445329168" y="0.0" type="line"/>
      <point x="681.542318837" y="0.0" type="line"/>
      <point x="681.542318837" y="83.6206952286" type="line"/>
      <point x="475.35445973" y="99.8568275261" type="line"/>
      <point x="475.35445973" y="1190.7728586" type="line"/>
      <point x="1208.74853551" y="1190.7728586" type="line"/>
      <point x="1208.74853551" y="101.699405994" type="line"/>
      <point x="1025.15877271" y="83.6206952286" type="line"/>
      <point x="1025.15877271" y="0.0" type="line"/>
      <point x="1578.18239263" y="0.0" type="line"/>
      <point x="1578.18239263" y="83.6206952286" type="line"/>
      <point x="1374.99034992" y="101.856827526" type="line"/>
      <point x="1374.99034992" y="587.356064816" type="line"/>
      <point x="1451.0878706" y="611.828329411"/>
      <point x="1538.75703078" y="630.536726303"/>
      <point x="1659.73453001" y="630.536726303" type="curve" smooth="yes"/>
      <point x="1904.33915284" y="630.536726303"/>
      <point x="1981.73967435" y="519.638677025"/>
      <point x="1981.73967435" y="282.772858601" type="curve" smooth="yes"/>
      <point x="1981.73967435" y="-59.4490246391"/>
      <point x="1893.99691349" y="-237.402544727"/>
      <point x="1664.99015604" y="-237.402544727" type="curve" smooth="yes"/>
      <point x="1634.35325272" y="-237.402544727"/>
      <point x="1592.52087989" y="-236.536726303"/>
      <point x="1573.06580133" y="-230.379304771" type="curve"/>
      <point x="1574.44240284" y="-329.921289234" type="line"/>
      <point x="1600.23530622" y="-340.0"/>
      <point x="1658.52694121" y="-347.180661488"/>
      <point x="1686.97763558" y="-347.180661488" type="curve" smooth="yes"/>
      <point x="1999.80450666" y="-347.180661488"/>
      <point x="2154.83451833" y="-70.1716705894"/>
      <point x="2154.83451833" y="297.449024639" type="curve" smooth="yes"/>
      <point x="2154.83451833" y="566.61170433"/>
      <point x="2088.01068294" y="742.708396893"/>
      <point x="1700.51468201" y="742.708396893" type="curve" smooth="yes"/>
      <point x="1575.16476487" y="742.708396893"/>
      <point x="1434.38599506" y="709.921289234"/>
    </contour>
  </outline>
</glyph>
<glyph name="reversedze-cy.sc" format="1">
  <advance width="1238.16815798"/>
  <outline>
    <contour>
      <point x="1087.93457087" y="48.3148430634" type="curve"/>
      <point x="1143.34761284" y="293.194910545" type="line"/>
      <point x="1041.66982419" y="304.407802887" type="line"/>
      <point x="957.070081082" y="131.259372253" type="line"/>
      <point x="903.202653328" y="98.1251906776"/>
      <point x="791.831386682" y="70.440033741"/>
      <point x="680.828123421" y="70.440033741" type="curve" smooth="yes"/>
      <point x="458.968798252" y="70.440033741"/>
      <point x="326.302436131" y="164.912298336"/>
      <point x="326.302436131" y="347.023239956" type="curve" smooth="yes"/>
      <point x="326.302436131" y="467.921289234"/>
      <point x="399.772143792" y="617.402544727"/>
      <point x="703.058216344" y="617.402544727" type="curve"/>
      <point x="857.543045299" y="611.323833961" type="line"/>
      <point x="857.543045299" y="725.259372253" type="line"/>
      <point x="729.587126498" y="713.495504551" type="line"/>
      <point x="552.629591237" y="713.495504551"/>
      <point x="360.71478533" y="773.731636848"/>
      <point x="360.71478533" y="963.495504551" type="curve" smooth="yes"/>
      <point x="360.71478533" y="1123.05547081"/>
      <point x="477.540668684" y="1215.2451232"/>
      <point x="675.278094683" y="1215.2451232" type="curve" smooth="yes"/>
      <point x="808.511450868" y="1215.2451232"/>
      <point x="907.427869882" y="1183.55996626"/>
      <point x="941.39861502" y="1163.55996626" type="curve"/>
      <point x="977.312955729" y="961.670907879" type="line"/>
      <point x="1084.81336447" y="961.670907879" type="line"/>
      <point x="1101.86143204" y="1252.07871077" type="line"/>
      <point x="1014.48667456" y="1267.44902464"/>
      <point x="822.784504068" y="1306.0"/>
      <point x="694.408792558" y="1306.0" type="curve" smooth="yes"/>
      <point x="373.300501077" y="1306.0"/>
      <point x="179.53751163" y="1181.5277354"/>
      <point x="179.53751163" y="976.314843063" type="curve" smooth="yes"/>
      <point x="179.53751163" y="780.078710766"/>
      <point x="368.949894523" y="698.078710766"/>
      <point x="539.599582924" y="669.685156937" type="curve"/>
      <point x="279.735120123" y="659.763867702"/>
      <point x="130.999310584" y="522.550975361"/>
      <point x="130.999310584" y="342.203901443" type="curve" smooth="yes"/>
      <point x="130.999310584" y="127.967769146"/>
      <point x="303.878830645" y="-20.0"/>
      <point x="673.113697082" y="-20.0" type="curve" smooth="yes"/>
      <point x="861.820051177" y="-20.0"/>
      <point x="980.810332132" y="44.0787107658"/>
    </contour>
  </outline>
</glyph>
<glyph name="semisoftsign-cy.sc" format="1">
  <advance width="1366.27127813"/>
  <outline>
    <contour>
      <point x="473.094650099" y="782.976760044" type="curve"/>
      <point x="473.094650099" y="937.638677025" type="line"/>
      <point x="736.227520655" y="937.638677025" type="line"/>
      <point x="736.227520655" y="1026.07871077" type="line"/>
      <point x="473.094650099" y="1026.07871077" type="line"/>
      <point x="473.094650099" y="1187.43477558" type="line"/>
      <point x="672.68025964" y="1209.90704018" type="line"/>
      <point x="672.68025964" y="1292.0" type="line"/>
      <point x="130.778508553" y="1292.0" type="line"/>
      <point x="130.778508553" y="1209.90704018" type="line"/>
      <point x="307.000037046" y="1187.59219711" type="line"/>
      <point x="307.000037046" y="1026.07871077" type="line"/>
      <point x="90.9115426455" y="1026.07871077" type="line"/>
      <point x="90.9115426455" y="937.638677025" type="line"/>
      <point x="307.000037046" y="937.638677025" type="line"/>
      <point x="307.000037046" y="99.8568275261" type="line"/>
      <point x="126.258889292" y="83.6206952286" type="line"/>
      <point x="126.258889292" y="0.0" type="line"/>
      <point x="399.07159311" y="0.0" type="line" smooth="yes"/>
      <point x="485.004315021" y="0.0"/>
      <point x="673.996905205" y="-14.0"/>
      <point x="722.984876931" y="-14.0" type="curve" smooth="yes"/>
      <point x="1051.79942813" y="-14.0"/>
      <point x="1279.80575407" y="132.94452919"/>
      <point x="1279.80575407" y="405.685156937" type="curve" smooth="yes"/>
      <point x="1279.80575407" y="643.05547081"/>
      <point x="1090.83497524" y="785.291603107"/>
      <point x="753.444600931" y="785.291603107" type="curve"/>
      <point x="660.866006748" y="785.291603107"/>
      <point x="566.777254436" y="783.05547081"/>
    </contour>
    <contour>
      <point x="473.094650099" y="93.2271413994" type="curve"/>
      <point x="473.094650099" y="684.064461708" type="line"/>
      <point x="553.218396652" y="684.143172474"/>
      <point x="629.861100038" y="684.379304771"/>
      <point x="707.283432898" y="684.379304771" type="curve" smooth="yes"/>
      <point x="949.849048128" y="684.379304771"/>
      <point x="1100.66748797" y="591.402544727"/>
      <point x="1100.66748797" y="395.212892342" type="curve" smooth="yes"/>
      <point x="1100.66748797" y="193.194910545"/>
      <point x="950.931246929" y="79.3845629311"/>
      <point x="708.608245082" y="79.3845629311" type="curve" smooth="yes"/>
      <point x="586.725726376" y="79.3845629311"/>
      <point x="535.927715699" y="85.2271413994"/>
    </contour>
  </outline>
</glyph>
<glyph name="sha-cy.sc" format="1">
  <advance width="2278.44378325"/>
  <outline>
    <contour>
      <point x="815.92330788" y="-144.0" type="move" name="mark0"/>
    </contour>
    <contour>
      <point x="128.592299599" y="1292.0" type="line"/>
      <point x="128.592299599" y="1205.90704018" type="line"/>
      <point x="309.259846676" y="1187.43477558" type="line"/>
      <point x="309.259846676" y="101.856827526" type="line"/>
      <point x="101.253782" y="83.6206952286" type="line"/>
      <point x="101.253782" y="0.0" type="line"/>
      <point x="2174.85659094" y="0.0" type="line"/>
      <point x="2174.85659094" y="83.6206952286" type="line"/>
      <point x="1969.18393657" y="101.699405994" type="line"/>
      <point x="1969.18393657" y="1187.43477558" type="line"/>
      <point x="2147.51807334" y="1205.90704018" type="line"/>
      <point x="2147.51807334" y="1292.0" type="line"/>
      <point x="1642.46566041" y="1292.0" type="line"/>
      <point x="1642.46566041" y="1205.90704018" type="line"/>
      <point x="1802.94212217" y="1187.35606482" type="line"/>
      <point x="1802.94212217" y="99.8568275261" type="line"/>
      <point x="1223.28870195" y="99.8568275261" type="line"/>
      <point x="1223.28870195" y="1187.43477558" type="line"/>
      <point x="1392.73080155" y="1205.90704018" type="line"/>
      <point x="1392.73080155" y="1292.0" type="line"/>
      <point x="901.458048436" y="1292.0" type="line"/>
      <point x="901.458048436" y="1205.90704018" type="line"/>
      <point x="1063.97351779" y="1187.43477558" type="line"/>
      <point x="1063.97351779" y="99.8568275261" type="line"/>
      <point x="473.094650099" y="99.8568275261" type="line"/>
      <point x="473.094650099" y="1185.59219711" type="line"/>
      <point x="672.650281668" y="1205.90704018" type="line"/>
      <point x="672.650281668" y="1292.0" type="line"/>
    </contour>
  </outline>
</glyph>
<glyph name="shcha-cy.sc" format="1">
  <advance width="2295.91164353"/>
  <outline>
    <contour>
      <point x="2223.1521786" y="101.856827526" type="curve"/>
      <point x="1969.18393657" y="101.856827526" type="line"/>
      <point x="1969.18393657" y="1187.43477558" type="line"/>
      <point x="2147.51807334" y="1205.90704018" type="line"/>
      <point x="2147.51807334" y="1292.0" type="line"/>
      <point x="1642.46566041" y="1292.0" type="line"/>
      <point x="1642.46566041" y="1205.90704018" type="line"/>
      <point x="1802.94212217" y="1187.35606482" type="line"/>
      <point x="1802.94212217" y="99.8568275261" type="line"/>
      <point x="1223.28870195" y="99.8568275261" type="line"/>
      <point x="1223.28870195" y="1187.43477558" type="line"/>
      <point x="1392.73080155" y="1205.90704018" type="line"/>
      <point x="1392.73080155" y="1292.0" type="line"/>
      <point x="901.458048436" y="1292.0" type="line"/>
      <point x="901.458048436" y="1205.90704018" type="line"/>
      <point x="1063.97351779" y="1187.43477558" type="line"/>
      <point x="1063.97351779" y="99.8568275261" type="line"/>
      <point x="473.094650099" y="99.8568275261" type="line"/>
      <point x="473.094650099" y="1187.43477558" type="line"/>
      <point x="672.650281668" y="1205.90704018" type="line"/>
      <point x="672.650281668" y="1292.0" type="line"/>
      <point x="128.592299599" y="1292.0" type="line"/>
      <point x="128.592299599" y="1205.90704018" type="line"/>
      <point x="309.259846676" y="1187.43477558" type="line"/>
      <point x="309.259846676" y="101.856827526" type="line"/>
      <point x="101.253782" y="83.6206952286" type="line"/>
      <point x="101.253782" y="0.0" type="line"/>
      <point x="2036.8964582" y="0.0" type="line"/>
      <point x="2039.72326189" y="-18.7548768044"/>
      <point x="2053.40750968" y="-289.416793785"/>
      <point x="2055.66731931" y="-323.620695229" type="curve"/>
      <point x="2168.42335408" y="-323.620695229" type="line"/>
      <point x="2188.6144394" y="-197.019507217"/>
      <point x="2207.11270916" y="-19.6386770248"/>
    </contour>
  </outline>
</glyph>
<glyph name="shha-cy.sc" format="1">
  <advance width="1428.61911697"/>
  <outline>
    <contour>
      <point x="44.6849405542" y="1124.0" type="move" name="topleft"/>
    </contour>
    <contour>
      <point x="708.660034406" y="476.0" type="move" name="center"/>
    </contour>
    <contour>
      <point x="771.787502713" y="-168.0" type="move" name="bottom"/>
    </contour>
    <contour>
      <point x="464.20261293" y="721.620695229" type="curve"/>
      <point x="464.20261293" y="1190.22188324" type="line"/>
      <point x="682.381904255" y="1208.37930477" type="line"/>
      <point x="682.381904255" y="1292.0" type="line"/>
      <point x="103.734393661" y="1292.0" type="line"/>
      <point x="103.734393661" y="1208.5367263" type="line"/>
      <point x="298.0343992" y="1190.22188324" type="line"/>
      <point x="298.0343992" y="106.565224419" type="line"/>
      <point x="105.920602615" y="86.0929598236" type="line"/>
      <point x="105.920602615" y="0.0" type="line"/>
      <point x="658.649819822" y="0.0" type="line"/>
      <point x="658.649819822" y="86.0929598236" type="line"/>
      <point x="464.20261293" y="104.565224419" type="line"/>
      <point x="464.20261293" y="624.898049278" type="line"/>
      <point x="524.260664161" y="653.05547081"/>
      <point x="688.122757052" y="678.583206215"/>
      <point x="798.758016928" y="678.583206215" type="curve" smooth="yes"/>
      <point x="1077.3333849" y="678.583206215"/>
      <point x="1108.0875116" y="624.11094162"/>
      <point x="1108.0875116" y="346.83358757" type="curve" smooth="yes"/>
      <point x="1108.0875116" y="106.407802887" type="line"/>
      <point x="916.982313143" y="86.0929598236" type="line"/>
      <point x="916.982313143" y="0.0" type="line"/>
      <point x="1408.644881" y="0.0" type="line"/>
      <point x="1408.644881" y="86.0929598236" type="line"/>
      <point x="1276.58913564" y="106.565224419" type="line"/>
      <point x="1276.58913564" y="400.092959824" type="line" smooth="yes"/>
      <point x="1276.58913564" y="661.352332077"/>
      <point x="1200.38803632" y="795.620695229"/>
      <point x="885.154154254" y="795.620695229" type="curve" smooth="yes"/>
      <point x="752.951207546" y="795.620695229"/>
      <point x="569.582246777" y="769.935538292"/>
    </contour>
  </outline>
</glyph>
<glyph name="shhadescender-cy.sc" format="1">
  <advance width="1589.4635821"/>
  <outline>
    <contour>
      <point x="38.8405091087" y="1292.0" type="move" name="topleft"/>
    </contour>
    <contour>
      <point x="702.815602961" y="646.0" type="move" name="center"/>
    </contour>
    <contour>
      <point x="766.016671945" y="0.0" type="move" name="bottom"/>
    </contour>
    <contour>
      <point x="100.149771846" y="0.0" type="line"/>
      <point x="652.878989054" y="0.0" type="line"/>
      <point x="652.878989054" y="86.1716705894" type="line"/>
      <point x="458.431782162" y="106.565224419" type="line"/>
      <point x="458.431782162" y="624.819338512" type="line"/>
      <point x="518.416232715" y="653.05547081"/>
      <point x="675.572497391" y="680.583206215"/>
      <point x="792.98718616" y="680.583206215" type="curve" smooth="yes"/>
      <point x="1071.56255413" y="680.583206215"/>
      <point x="1102.31668084" y="626.032230854"/>
      <point x="1102.31668084" y="348.754876804" type="curve" smooth="yes"/>
      <point x="1102.31668084" y="108.329092121" type="line"/>
      <point x="911.137881698" y="88.0929598236" type="line"/>
      <point x="911.137881698" y="0.0" type="line"/>
      <point x="1330.44839678" y="0.0" type="line"/>
      <point x="1333.27520047" y="-22.5974552727"/>
      <point x="1349.51366059" y="-289.967769146"/>
      <point x="1349.29285856" y="-323.620695229" type="curve"/>
      <point x="1461.97529266" y="-323.620695229" type="line"/>
      <point x="1463.71989755" y="-313.731636848"/>
      <point x="1516.77771786" y="80.3328248596"/>
      <point x="1516.77771786" y="101.856827526" type="curve"/>
      <point x="1270.67110352" y="108.565224419" type="line"/>
      <point x="1270.67110352" y="400.092959824" type="line"/>
      <point x="1270.67110352" y="697.148430634"/>
      <point x="1155.61163641" y="795.620695229"/>
      <point x="879.383323485" y="795.620695229" type="curve" smooth="yes"/>
      <point x="754.622211761" y="795.620695229"/>
      <point x="566.292027669" y="771.699405994"/>
      <point x="458.431782162" y="723.620695229" type="curve"/>
      <point x="458.431782162" y="1192.06446171" type="line"/>
      <point x="676.611073486" y="1208.37930477" type="line"/>
      <point x="676.611073486" y="1292.0" type="line"/>
      <point x="97.8163615387" y="1292.0" type="line"/>
      <point x="97.8163615387" y="1210.37930477" type="line"/>
      <point x="292.189967754" y="1192.06446171" type="line"/>
      <point x="292.189967754" y="106.643935184" type="line"/>
      <point x="100.149771846" y="86.1716705894" type="line"/>
    </contour>
  </outline>
</glyph>
<glyph name="softsign-cy.sc" format="1">
  <advance width="1364.08506918"/>
  <outline>
    <contour>
      <point x="473.094650099" y="782.976760044" type="curve"/>
      <point x="473.094650099" y="1187.43477558" type="line"/>
      <point x="670.494050686" y="1209.90704018" type="line"/>
      <point x="670.494050686" y="1292.0" type="line"/>
      <point x="130.778508553" y="1292.0" type="line"/>
      <point x="130.778508553" y="1209.90704018" type="line"/>
      <point x="307.000037046" y="1187.59219711" type="line"/>
      <point x="307.000037046" y="99.8568275261" type="line"/>
      <point x="123.999079661" y="83.6206952286" type="line"/>
      <point x="123.999079661" y="0.0" type="line"/>
      <point x="399.07159311" y="0.0" type="line"/>
      <point x="482.670904713" y="0.0"/>
      <point x="673.996905205" y="-14.0"/>
      <point x="722.984876931" y="-14.0" type="curve" smooth="yes"/>
      <point x="1049.61321918" y="-14.0"/>
      <point x="1277.61954512" y="131.023239956"/>
      <point x="1277.61954512" y="405.685156937" type="curve" smooth="yes"/>
      <point x="1277.61954512" y="643.05547081"/>
      <point x="1090.83497524" y="785.291603107"/>
      <point x="751.184791301" y="785.291603107" type="curve" smooth="yes"/>
      <point x="656.419988163" y="785.291603107"/>
      <point x="566.777254436" y="783.05547081"/>
    </contour>
    <contour>
      <point x="473.094650099" y="93.2271413994" type="curve"/>
      <point x="473.094650099" y="684.064461708" type="line"/>
      <point x="551.032187698" y="684.143172474"/>
      <point x="627.674891084" y="684.379304771"/>
      <point x="705.023623267" y="684.379304771" type="curve" smooth="yes"/>
      <point x="949.849048128" y="684.379304771"/>
      <point x="1100.66748797" y="591.402544727"/>
      <point x="1100.66748797" y="395.212892342" type="curve" smooth="yes"/>
      <point x="1100.66748797" y="193.11619978"/>
      <point x="951.078448282" y="79.3845629311"/>
      <point x="706.348435451" y="79.3845629311" type="curve" smooth="yes"/>
      <point x="586.725726376" y="79.3845629311"/>
      <point x="533.667906068" y="85.2271413994"/>
    </contour>
  </outline>
</glyph>
<glyph name="tedescender-cy.sc" format="1">
  <advance width="1516.62630256"/>
  <outline>
    <contour>
      <point x="1191.7685905" y="101.856827526" type="curve"/>
      <point x="844.087766163" y="101.856827526" type="line"/>
      <point x="844.087766163" y="1201.59219711" type="line"/>
      <point x="1252.50269256" y="1191.59219711" type="line"/>
      <point x="1309.24871333" y="830.443766479" type="line"/>
      <point x="1419.81853915" y="830.443766479" type="line"/>
      <point x="1395.99104269" y="1292.0" type="line"/>
      <point x="120.046454462" y="1292.0" type="line"/>
      <point x="84.9935105231" y="830.443766479" type="line"/>
      <point x="199.567750865" y="830.443766479" type="line"/>
      <point x="265.573812189" y="1191.59219711" type="line"/>
      <point x="666.620504279" y="1201.59219711" type="line"/>
      <point x="666.620504279" y="101.856827526" type="line"/>
      <point x="392.829180308" y="83.6206952286" type="line"/>
      <point x="392.829180308" y="0.0" type="line"/>
      <point x="1008.04527108" y="0.0" type="line"/>
      <point x="1013.94149185" y="-98.1109416199"/>
      <point x="1017.50430232" y="-226.847836628"/>
      <point x="1024.43093256" y="-323.620695229" type="curve"/>
      <point x="1134.85355703" y="-323.620695229" type="line"/>
      <point x="1155.04464235" y="-204.547242622"/>
      <point x="1171.13590112" y="-47.8283294106"/>
    </contour>
  </outline>
</glyph>
<glyph name="tetse-cy.sc" format="1">
  <advance width="2007.34022824"/>
  <outline>
    <contour>
      <point x="1953.52063713" y="101.856827526" type="curve"/>
      <point x="1678.84610504" y="101.856827526" type="line"/>
      <point x="1678.84610504" y="1187.35606482" type="line"/>
      <point x="1852.66062254" y="1205.90704018" type="line"/>
      <point x="1852.66062254" y="1292.0" type="line"/>
      <point x="1345.42200066" y="1292.0" type="line"/>
      <point x="1345.42200066" y="1205.90704018" type="line"/>
      <point x="1510.12367897" y="1187.35606482" type="line"/>
      <point x="1510.12367897" y="98.912298336" type="line"/>
      <point x="703.979569057" y="98.912298336" type="line"/>
      <point x="703.979569057" y="1198.06446171" type="line"/>
      <point x="983.269132441" y="1187.35606482" type="line"/>
      <point x="1038.49135035" y="855.93927103" type="line"/>
      <point x="1152.05699257" y="855.93927103" type="line"/>
      <point x="1131.07811115" y="1292.0" type="line"/>
      <point x="109.777815784" y="1292.0" type="line"/>
      <point x="85.6559166151" y="855.860560265" type="line"/>
      <point x="201.554969141" y="855.860560265" type="line"/>
      <point x="257.586794496" y="1187.35606482" type="line"/>
      <point x="537.884956003" y="1198.30059401" type="line"/>
      <point x="537.884956003" y="99.8568275261" type="line"/>
      <point x="370.819889416" y="83.6206952286" type="line"/>
      <point x="370.819889416" y="0.0" type="line"/>
      <point x="1767.55931943" y="0.0" type="line"/>
      <point x="1768.27351485" y="-18.7548768044"/>
      <point x="1783.7759682" y="-276.361322975"/>
      <point x="1783.7759682" y="-317.935538292" type="curve"/>
      <point x="1896.38480162" y="-317.935538292" type="line"/>
      <point x="1914.31607731" y="-202.78337492"/>
      <point x="1932.88794775" y="-30.8515693665"/>
    </contour>
  </outline>
</glyph>
<glyph name="tse-cy.sc" format="1">
  <advance width="1679.56156463"/>
  <outline>
    <contour>
      <point x="1606.87570038" y="101.856827526" type="curve"/>
      <point x="1358.95088047" y="101.856827526" type="line"/>
      <point x="1358.95088047" y="1187.43477558" type="line"/>
      <point x="1535.02520761" y="1205.90704018" type="line"/>
      <point x="1535.02520761" y="1292.0" type="line"/>
      <point x="1028.00738776" y="1292.0" type="line"/>
      <point x="1028.00738776" y="1205.90704018" type="line"/>
      <point x="1190.44925643" y="1187.43477558" type="line"/>
      <point x="1190.44925643" y="98.912298336" type="line"/>
      <point x="473.094650099" y="98.912298336" type="line"/>
      <point x="473.094650099" y="1187.35606482" type="line"/>
      <point x="687.217737576" y="1205.90704018" type="line"/>
      <point x="687.217737576" y="1292.0" type="line"/>
      <point x="126.258889292" y="1292.0" type="line"/>
      <point x="126.258889292" y="1205.90704018" type="line"/>
      <point x="309.259846676" y="1187.43477558" type="line"/>
      <point x="309.259846676" y="103.699405994" type="line"/>
      <point x="103.587192307" y="83.6994059944" type="line"/>
      <point x="103.587192307" y="0.0" type="line"/>
      <point x="1420.5463793" y="0.0" type="line"/>
      <point x="1423.37318299" y="-22.6761660385"/>
      <point x="1439.53804244" y="-289.180661488"/>
      <point x="1439.39084109" y="-323.620695229" type="curve"/>
      <point x="1552.07327518" y="-323.620695229" type="line"/>
      <point x="1553.81788007" y="-315.652926083"/>
      <point x="1606.87570038" y="80.3328248596"/>
    </contour>
  </outline>
</glyph>
<glyph name="tshe-cy.sc" format="1">
  <advance width="1806.51705192"/>
  <outline>
    <contour>
      <point x="719.223075791" y="-144.0" type="move" name="mark0"/>
    </contour>
    <contour>
      <point x="845.044574963" y="660.472264595" type="curve"/>
      <point x="845.044574963" y="1201.90704018" type="line"/>
      <point x="1303.22710256" y="1187.19864328" type="line"/>
      <point x="1341.96824696" y="882.976760044" type="line"/>
      <point x="1455.23948647" y="882.976760044" type="line"/>
      <point x="1457.30030543" y="1292.0" type="line"/>
      <point x="123.925478984" y="1292.0" type="line"/>
      <point x="97.8381728915" y="882.976760044" type="line"/>
      <point x="212.780416618" y="882.976760044" type="line"/>
      <point x="271.366454311" y="1187.43477558" type="line"/>
      <point x="674.356741971" y="1202.06446171" type="line"/>
      <point x="674.356741971" y="101.856827526" type="line"/>
      <point x="393.344385047" y="83.6206952286" type="line"/>
      <point x="393.344385047" y="0.0" type="line"/>
      <point x="1059.31486379" y="0.0" type="line"/>
      <point x="1059.31486379" y="83.6206952286" type="line"/>
      <point x="845.044574963" y="101.856827526" type="line"/>
      <point x="845.044574963" y="566.064461708" type="line"/>
      <point x="906.920831763" y="597.434775581"/>
      <point x="1022.59091564" y="629.670907879"/>
      <point x="1186.65199921" y="629.670907879" type="curve" smooth="yes"/>
      <point x="1432.7804249" y="629.670907879"/>
      <point x="1466.45676733" y="492.550975361"/>
      <point x="1466.45676733" y="303.449024639" type="curve" smooth="yes"/>
      <point x="1466.45676733" y="99.8568275261" type="line"/>
      <point x="1305.02349678" y="83.6206952286" type="line"/>
      <point x="1305.02349678" y="0.0" type="line"/>
      <point x="1800.02807306" y="0.0" type="line"/>
      <point x="1800.02807306" y="83.6206952286" type="line"/>
      <point x="1632.69858174" y="99.8568275261" type="line"/>
      <point x="1632.69858174" y="358.472264595" type="line" smooth="yes"/>
      <point x="1632.69858174" y="617.652926083"/>
      <point x="1541.39301041" y="742.708396893"/>
      <point x="1214.44028749" y="742.708396893" type="curve" smooth="yes"/>
      <point x="1109.00886432" y="742.708396893"/>
      <point x="929.276314687" y="706.787107658"/>
    </contour>
  </outline>
</glyph>
<glyph name="u-cy.sc" format="1">
  <advance width="1409.94366789"/>
  <outline>
    <contour>
      <point x="704.162226498" y="1273.10195072" type="move" name="top"/>
    </contour>
    <contour>
      <point x="810.065231701" y="267.101950722" type="curve"/>
      <point x="1271.10454096" y="1187.27735405" type="line"/>
      <point x="1378.08157835" y="1205.90704018" type="line"/>
      <point x="1378.08157835" y="1292.0" type="line"/>
      <point x="939.116994037" y="1292.0" type="line"/>
      <point x="939.116994037" y="1205.90704018" type="line"/>
      <point x="1131.96679739" y="1187.43477558" type="line"/>
      <point x="842.75478736" y="579.037489014" type="line"/>
      <point x="769.432281053" y="417.398811989" type="line"/>
      <point x="700.923796715" y="577.037489014" type="line"/>
      <point x="330.211438624" y="1187.27735405" type="line"/>
      <point x="546.815137763" y="1205.90704018" type="line"/>
      <point x="546.815137763" y="1292.0" type="line"/>
      <point x="31.8620895386" y="1292.0" type="line"/>
      <point x="31.8620895386" y="1205.90704018" type="line"/>
      <point x="145.544955139" y="1187.43477558" type="line"/>
      <point x="692.140816309" y="278.898049278" type="line"/>
      <point x="639.649990064" y="168.518744507"/>
      <point x="586.444968402" y="128.407802887"/>
      <point x="460.233654494" y="128.407802887" type="curve" smooth="yes"/>
      <point x="442.324190154" y="128.407802887"/>
      <point x="318.549865201" y="130.250381355"/>
      <point x="314.34646" y="132.092959824" type="curve"/>
      <point x="314.34646" y="10.1574215317" type="line"/>
      <point x="355.295624708" y="-5.84257846832"/>
      <point x="413.12384428" y="-20.0"/>
      <point x="483.649524865" y="-20.0" type="curve" smooth="yes"/>
      <point x="697.140184222" y="-20.0"/>
      <point x="756.734820038" y="159.953520088"/>
    </contour>
  </outline>
</glyph>
<glyph name="ustraitstroke-cy.sc" format="1">
  <advance width="1444.18700438"/>
  <outline>
    <contour>
      <point x="91.6039267089" y="1292.0" type="move" name="topleft"/>
    </contour>
    <contour>
      <point x="747.466612866" y="485.731636848" type="move" name="center"/>
    </contour>
    <contour>
      <point x="722.240703543" y="0.0" type="move" name="bottom"/>
    </contour>
    <contour>
      <point x="721.188482714" y="1292.0" type="move" name="top"/>
    </contour>
    <contour>
      <point x="747.466612866" y="485.731636848" type="move" name="_center"/>
    </contour>
    <contour>
      <point x="692.855011725" y="-144.0" type="move" name="mark0"/>
    </contour>
    <contour>
      <point x="648.563838586" y="101.77811676" type="line"/>
      <point x="415.648078647" y="83.6206952286" type="line"/>
      <point x="415.648078647" y="0.0" type="line"/>
      <point x="1059.44025379" y="0.0" type="line"/>
      <point x="1059.44025379" y="83.6206952286" type="line"/>
      <point x="819.965866994" y="101.77811676" type="line"/>
      <point x="819.965866994" y="506.83358757" type="line"/>
      <point x="1273.85774398" y="1187.74961864" type="line"/>
      <point x="1412.32491484" y="1205.90704018" type="line"/>
      <point x="1412.32491484" y="1292.0" type="line"/>
      <point x="958.814685974" y="1292.0" type="line"/>
      <point x="958.814685974" y="1205.90704018" type="line"/>
      <point x="1137.07522207" y="1187.27735405" type="line"/>
      <point x="829.195929576" y="715.77811676" type="line"/>
      <point x="748.725990992" y="584.139439735" type="line"/>
      <point x="672.775671669" y="715.77811676" type="line"/>
      <point x="352.36793087" y="1187.27735405" type="line"/>
      <point x="530.061472901" y="1205.90704018" type="line"/>
      <point x="530.061472901" y="1292.0" type="line"/>
      <point x="31.8620895386" y="1292.0" type="line"/>
      <point x="31.8620895386" y="1205.90704018" type="line"/>
      <point x="161.878827293" y="1185.59219711" type="line"/>
      <point x="648.563838586" y="504.83358757" type="line"/>
    </contour>
    <contour>
      <point x="1168.37453148" y="543.463273697" type="line"/>
      <point x="323.930881233" y="543.463273697" type="line"/>
      <point x="323.930881233" y="420.22188324" type="line"/>
      <point x="1168.37453148" y="420.22188324" type="line"/>
    </contour>
  </outline>
</glyph>
<glyph name="yat-cy.sc" format="1">
  <advance width="1557.80443592"/>
  <outline>
    <contour>
      <point x="681.970278165" y="689.731636848" type="curve"/>
      <point x="681.970278165" y="1036.61543707" type="line"/>
      <point x="1045.21898992" y="1016.37930477" type="line"/>
      <point x="1090.24616983" y="878.347073917" type="line"/>
      <point x="1207.15382048" y="878.347073917" type="line"/>
      <point x="1186.17493906" y="1123.02323996" type="line"/>
      <point x="681.970278165" y="1123.02323996" type="line"/>
      <point x="681.970278165" y="1292.0" type="line"/>
      <point x="874.945471519" y="1316.31484306" type="line"/>
      <point x="874.945471519" y="1394.40780289" type="line"/>
      <point x="326.610483572" y="1394.40780289" type="line"/>
      <point x="326.610483572" y="1316.31484306" type="line"/>
      <point x="515.875665111" y="1294.07871077" type="line"/>
      <point x="515.875665111" y="1123.02323996" type="line"/>
      <point x="28.9398738159" y="1123.02323996" type="line"/>
      <point x="2.92616840022" y="878.347073917" type="line"/>
      <point x="126.561458618" y="878.347073917" type="line"/>
      <point x="171.367836496" y="1016.37930477" type="line"/>
      <point x="515.875665111" y="1036.61543707" type="line"/>
      <point x="515.875665111" y="99.8568275261" type="line"/>
      <point x="319.705664679" y="83.6206952286" type="line"/>
      <point x="319.705664679" y="0.0" type="line"/>
      <point x="601.933777023" y="0.0" type="line" smooth="yes"/>
      <point x="689.823739239" y="0.0"/>
      <point x="859.862810873" y="-13.9212892342"/>
      <point x="917.661052473" y="-13.9212892342" type="curve" smooth="yes"/>
      <point x="1241.12456561" y="-13.9212892342"/>
      <point x="1471.33891186" y="128.0"/>
      <point x="1471.33891186" y="365.652926083" type="curve" smooth="yes"/>
      <point x="1471.33891186" y="554.440033741"/>
      <point x="1320.93209811" y="709.88905838"/>
      <point x="944.02094992" y="709.88905838" type="curve" smooth="yes"/>
      <point x="850.330178964" y="709.88905838"/>
      <point x="732.694688165" y="697.88905838"/>
    </contour>
    <contour>
      <point x="681.970278165" y="92.5974552727" type="curve"/>
      <point x="681.970278165" y="604.583206215" type="line"/>
      <point x="724.097053703" y="612.583206215"/>
      <point x="827.238689271" y="614.740627747"/>
      <point x="900.266792871" y="614.740627747" type="curve" smooth="yes"/>
      <point x="1135.46417379" y="614.740627747"/>
      <point x="1291.24383696" y="510.583206215"/>
      <point x="1291.24383696" y="350.94452919" type="curve" smooth="yes"/>
      <point x="1291.24383696" y="181.620695229"/>
      <point x="1138.90159425" y="77.2271413994"/>
      <point x="900.951010316" y="77.2271413994" type="curve" smooth="yes"/>
      <point x="794.813558348" y="77.2271413994"/>
      <point x="735.984907272" y="82.6761660385"/>
    </contour>
  </outline>
</glyph>
<glyph name="yusbig-cy.sc" format="1">
  <advance width="2195.77946909"/>
  <outline>
    <contour>
      <point x="858.720656129" y="599.921289234" type="curve" smooth="yes"/>
      <point x="1017.71693773" y="599.921289234" type="line"/>
      <point x="1017.71693773" y="101.856827526" type="line"/>
      <point x="840.854814495" y="83.6206952286" type="line"/>
      <point x="840.854814495" y="0.0" type="line"/>
      <point x="1361.26247943" y="0.0" type="line"/>
      <point x="1361.26247943" y="83.4632736969" type="line"/>
      <point x="1177.84172933" y="101.856827526" type="line"/>
      <point x="1177.84172933" y="599.921289234" type="line"/>
      <point x="1334.65180198" y="599.921289234" type="line" smooth="yes"/>
      <point x="1503.75587617" y="599.921289234"/>
      <point x="1803.17656893" y="0.0"/>
      <point x="1945.62634296" y="0.0" type="curve" smooth="yes"/>
      <point x="2159.54496165" y="0.0" type="line"/>
      <point x="2159.54496165" y="83.6206952286" type="line"/>
      <point x="2079.09683441" y="101.856827526" type="line" smooth="yes"/>
      <point x="1962.41815241" y="128.329092121"/>
      <point x="1651.27861879" y="684.440033741"/>
      <point x="1421.32053066" y="684.440033741" type="curve" smooth="yes"/>
      <point x="1229.64833813" y="684.440033741" type="line"/>
      <point x="1757.03990075" y="1211.40254473" type="line"/>
      <point x="1746.10885598" y="1292.0" type="line"/>
      <point x="449.523411755" y="1292.0" type="line"/>
      <point x="438.518766309" y="1211.40254473" type="line"/>
      <point x="963.724119973" y="684.440033741" type="line"/>
      <point x="771.978326773" y="684.440033741" type="line" smooth="yes"/>
      <point x="562.800129381" y="684.440033741"/>
      <point x="230.880705016" y="128.329092121"/>
      <point x="116.609034001" y="101.856827526" type="curve" smooth="yes"/>
      <point x="36.0137054156" y="83.6206952286" type="line"/>
      <point x="36.0137054156" y="0.0" type="line"/>
      <point x="247.672514469" y="0.0" type="line" smooth="yes"/>
      <point x="392.308497455" y="0.0"/>
      <point x="691.876391573" y="599.921289234"/>
    </contour>
    <contour>
      <point x="620.306656777" y="1177.86056026" type="line"/>
      <point x="1575.32561096" y="1177.86056026" type="line"/>
      <point x="1099.0564397" y="682.440033741" type="line"/>
    </contour>
  </outline>
</glyph>
<glyph name="ze-cy.sc" format="1">
  <advance width="1285.6977609"/>
  <outline>
    <contour>
      <point x="643.978785266" y="1273.18066149" type="move" name="top"/>
    </contour>
    <contour>
      <point x="643.978785266" y="0.0" type="move" name="bottom"/>
    </contour>
    <contour>
      <point x="183.909929538" y="1250.4722646" type="curve"/>
      <point x="200.295591015" y="985.323833961" type="line"/>
      <point x="307.795999757" y="985.323833961" type="line"/>
      <point x="344.372746558" y="1144.97676004" type="line"/>
      <point x="378.269891019" y="1185.55996626"/>
      <point x="481.705929295" y="1213.40254473"/>
      <point x="607.497450495" y="1213.40254473" type="curve" smooth="yes"/>
      <point x="796.71084271" y="1213.40254473"/>
      <point x="925.203777602" y="1152.11094162"/>
      <point x="925.130176925" y="992.472264595" type="curve" smooth="yes"/>
      <point x="925.130176925" y="802.787107658"/>
      <point x="733.068169664" y="714.754876804"/>
      <point x="556.110634403" y="714.754876804" type="curve" smooth="yes"/>
      <point x="432.946926218" y="714.754876804" type="line"/>
      <point x="432.946926218" y="618.740627747" type="line"/>
      <point x="582.786745911" y="618.740627747" type="line" smooth="yes"/>
      <point x="885.999217786" y="618.740627747"/>
      <point x="959.542526124" y="485.763867702"/>
      <point x="959.542526124" y="365.023239956" type="curve" smooth="yes"/>
      <point x="959.542526124" y="177.384562931"/>
      <point x="847.508853387" y="85.967769146"/>
      <point x="649.992229418" y="85.967769146" type="curve" smooth="yes"/>
      <point x="505.386224403" y="85.967769146"/>
      <point x="402.538991542" y="106.361322975"/>
      <point x="341.892134896" y="132.361322975" type="curve"/>
      <point x="285.933910219" y="354.880067482" type="line"/>
      <point x="209.555631569" y="354.880067482" type="line"/>
      <point x="175.606697784" y="56.5509753609" type="line"/>
      <point x="248.171385969" y="35.7316368484"/>
      <point x="404.790634554" y="-10.0"/>
      <point x="602.683428526" y="-10.0" type="curve" smooth="yes"/>
      <point x="990.364775394" y="-10.0"/>
      <point x="1154.77205099" y="140.787107658"/>
      <point x="1154.77205099" y="379.180661488" type="curve" smooth="yes"/>
      <point x="1154.77205099" y="547.180661488"/>
      <point x="1019.81590127" y="675.763867702"/>
      <point x="750.838599269" y="682.0" type="curve"/>
      <point x="929.592528747" y="712.0"/>
      <point x="1106.23384995" y="817.449024639"/>
      <point x="1106.23384995" y="1013.68515694" type="curve" smooth="yes"/>
      <point x="1106.23384995" y="1213.68515694"/>
      <point x="913.354068623" y="1306.0"/>
      <point x="582.028927789" y="1306.0" type="curve" smooth="yes"/>
      <point x="424.621883111" y="1306.0"/>
      <point x="271.358287692" y="1256.31484306"/>
    </contour>
  </outline>
</glyph>
<glyph name="zhe-cy.sc" format="1">
  <advance width="2192.23846998"/>
  <outline>
    <contour>
      <point x="1096.15603533" y="1273.18066149" type="move" name="top"/>
    </contour>
    <contour>
      <point x="2136.32808195" y="0.0" type="move" name="bottomright"/>
    </contour>
    <contour>
      <point x="1490.02800567" y="670.912298336" type="curve"/>
      <point x="1970.54420484" y="1187.35606482" type="line"/>
      <point x="2131.07245592" y="1205.90704018" type="line"/>
      <point x="2131.07245592" y="1292.0" type="line"/>
      <point x="1647.54410712" y="1292.0" type="line"/>
      <point x="1647.54410712" y="1205.90704018" type="line"/>
      <point x="1820.20282515" y="1185.59219711" type="line"/>
      <point x="1375.74816804" y="682.440033741" type="line"/>
      <point x="1177.27473527" y="682.440033741" type="line"/>
      <point x="1177.27473527" y="1187.43477558" type="line"/>
      <point x="1359.46608521" y="1205.90704018" type="line"/>
      <point x="1359.46608521" y="1292.0" type="line"/>
      <point x="839.551813664" y="1292.0" type="line"/>
      <point x="839.551813664" y="1205.90704018" type="line"/>
      <point x="1017.14994366" y="1187.43477558" type="line"/>
      <point x="1017.14994366" y="682.440033741" type="line"/>
      <point x="818.82371225" y="682.440033741" type="line"/>
      <point x="369.775835206" y="1187.43477558" type="line"/>
      <point x="544.694362867" y="1205.90704018" type="line"/>
      <point x="544.694362867" y="1292.0" type="line"/>
      <point x="60.7980106769" y="1292.0" type="line"/>
      <point x="60.7980106769" y="1205.90704018" type="line"/>
      <point x="221.767865817" y="1187.35606482" type="line"/>
      <point x="699.950654678" y="674.597455273" type="line"/>
      <point x="507.629700796" y="603.148430634"/>
      <point x="237.976347969" y="126.407802887"/>
      <point x="121.518467999" y="101.856827526" type="curve" smooth="yes"/>
      <point x="35.4467113533" y="83.6206952286" type="line"/>
      <point x="35.4467113533" y="0.0" type="line"/>
      <point x="238.728687975" y="0.0" type="line" smooth="yes"/>
      <point x="383.364670962" y="0.0"/>
      <point x="691.30939751" y="599.921289234"/>
      <point x="858.153662067" y="599.921289234" type="curve" smooth="yes"/>
      <point x="1017.14994366" y="599.921289234" type="line"/>
      <point x="1017.14994366" y="101.856827526" type="line"/>
      <point x="840.287820433" y="83.6206952286" type="line"/>
      <point x="840.287820433" y="0.0" type="line"/>
      <point x="1360.69548537" y="0.0" type="line"/>
      <point x="1360.69548537" y="83.4632736969" type="line"/>
      <point x="1177.27473527" y="101.856827526" type="line"/>
      <point x="1177.27473527" y="599.921289234" type="line"/>
      <point x="1334.08480792" y="599.921289234" type="line" smooth="yes"/>
      <point x="1503.1888821" y="599.921289234"/>
      <point x="1809.53620511" y="0.0"/>
      <point x="1954.39299013" y="0.0" type="curve"/>
      <point x="2158.97796758" y="0.0" type="line"/>
      <point x="2158.97796758" y="83.6206952286" type="line"/>
      <point x="2070.94080401" y="101.856827526" type="line" smooth="yes"/>
      <point x="1954.48292404" y="126.407802887"/>
      <point x="1682.34895956" y="599.463273697"/>
    </contour>
  </outline>
</glyph>
<glyph name="zhedescender-cy.sc" format="1">
  <advance width="2191.70145389"/>
  <outline>
    <contour>
      <point x="1492.28781531" y="672.676166039" type="curve"/>
      <point x="1970.54420484" y="1187.35606482" type="line"/>
      <point x="2131.07245592" y="1205.90704018" type="line"/>
      <point x="2131.07245592" y="1292.0" type="line"/>
      <point x="1647.54410712" y="1292.0" type="line"/>
      <point x="1647.54410712" y="1205.90704018" type="line"/>
      <point x="1820.20282515" y="1185.59219711" type="line"/>
      <point x="1375.74816804" y="682.440033741" type="line"/>
      <point x="1177.27473527" y="682.440033741" type="line"/>
      <point x="1177.27473527" y="1187.43477558" type="line"/>
      <point x="1359.46608521" y="1205.90704018" type="line"/>
      <point x="1359.46608521" y="1292.0" type="line"/>
      <point x="839.551813664" y="1292.0" type="line"/>
      <point x="839.551813664" y="1205.90704018" type="line"/>
      <point x="1017.14994366" y="1187.43477558" type="line"/>
      <point x="1017.14994366" y="682.440033741" type="line"/>
      <point x="818.82371225" y="682.440033741" type="line"/>
      <point x="369.775835206" y="1187.43477558" type="line"/>
      <point x="544.694362867" y="1205.90704018" type="line"/>
      <point x="544.694362867" y="1292.0" type="line"/>
      <point x="60.7980106769" y="1292.0" type="line"/>
      <point x="60.7980106769" y="1205.90704018" type="line"/>
      <point x="221.767865817" y="1187.35606482" type="line"/>
      <point x="699.950654678" y="674.597455273" type="line"/>
      <point x="507.629700796" y="603.148430634"/>
      <point x="230.387311631" y="128.329092121"/>
      <point x="116.042039938" y="101.856827526" type="curve" smooth="yes"/>
      <point x="35.4467113533" y="83.6206952286" type="line"/>
      <point x="35.4467113533" y="0.0" type="line"/>
      <point x="247.179121083" y="0.0" type="line" smooth="yes"/>
      <point x="391.741503393" y="0.0"/>
      <point x="691.30939751" y="599.921289234"/>
      <point x="858.153662067" y="599.921289234" type="curve" smooth="yes"/>
      <point x="1017.14994366" y="599.921289234" type="line"/>
      <point x="1017.14994366" y="101.856827526" type="line"/>
      <point x="840.287820433" y="83.6206952286" type="line"/>
      <point x="840.287820433" y="0.0" type="line"/>
      <point x="1360.69548537" y="0.0" type="line"/>
      <point x="1360.69548537" y="83.4632736969" type="line"/>
      <point x="1177.27473527" y="101.856827526" type="line"/>
      <point x="1177.27473527" y="599.921289234" type="line"/>
      <point x="1334.08480792" y="599.921289234" type="line" smooth="yes"/>
      <point x="1503.1888821" y="599.921289234"/>
      <point x="1802.68317554" y="0.0"/>
      <point x="1945.13294958" y="0.0" type="curve" smooth="yes"/>
      <point x="2018.48543386" y="0.0" type="line"/>
      <point x="2025.75825613" y="-26.2039014435"/>
      <point x="2034.99648533" y="-285.495504551"/>
      <point x="2034.99648533" y="-323.620695229" type="curve"/>
      <point x="2147.67891943" y="-323.620695229" type="line"/>
      <point x="2151.75693463" y="-309.88905838"/>
      <point x="2202.48134463" y="76.647667923"/>
      <point x="2202.48134463" y="101.856827526" type="curve"/>
      <point x="2073.93662041" y="101.856827526" type="line"/>
      <point x="1957.25793841" y="135.699405994"/>
      <point x="1684.60876919" y="601.227141399"/>
    </contour>
  </outline>
</glyph>
